<svg xmlns="http://www.w3.org/2000/svg" id="icons" width="32.623" height="32.623" version="1.1" viewBox="0 0 36 36"><defs id="defs6"><linearGradient id="linear-gradient" x1="32" x2="32" y1="62" y2="2" gradientUnits="userSpaceOnUse"><stop id="stop1" offset="0" stop-color="#3871e9"/><stop id="stop2" offset="1" stop-color="#61c5f6"/></linearGradient><linearGradient id="linear-gradient-2" x1="32" x2="32" y1="62" y2="2" gradientUnits="userSpaceOnUse"><stop id="stop3" offset="0"/><stop id="stop4" offset=".36" stop-opacity="0"/></linearGradient><linearGradient id="linear-gradient-3" x1="32" x2="32" y1="48" y2="16" gradientTransform="translate(-13.971 -13.972)" gradientUnits="userSpaceOnUse"><stop id="stop5" offset="0" stop-color="#e2eff6" style="stop-color:#fff;stop-opacity:1"/><stop id="stop6" offset="1" stop-color="#fff"/></linearGradient><style id="style1">.cls-1{opacity:.08}.cls-2{fill:url(#linear-gradient)}.cls-3{opacity:.16}.cls-4{fill:url(#linear-gradient-2)}</style></defs><path id="path15" d="M6.005 22.118v4.968h24.098v-4.968z" style="fill:#fff"/><path id="path14" d="M4.281 23.221v6.636H31.72v-6.636h-1.67v4.968H5.952v-4.968z" style="fill:#333"/><g id="text15"><path id="path16" d="M15.38 19.91q0-1.896-.784-2.97-.775-1.083-2.14-1.083-1.363 0-2.147 1.083-.775 1.074-.775 2.97 0 1.896.775 2.98.784 1.073 2.148 1.073t2.139-1.074q.784-1.083.784-2.979zm-5.846-3.652q.541-.934 1.363-1.382.831-.458 1.98-.458 1.905 0 3.092 1.513 1.195 1.513 1.195 3.979t-1.195 3.979q-1.187 1.513-3.092 1.513-1.149 0-1.98-.449-.822-.457-1.363-1.391v1.569H7.806V10.598h1.728zm15.233 3.615q-2.083 0-2.886.476-.804.476-.804 1.625 0 .915.598 1.457.607.532 1.644.532 1.429 0 2.288-1.008.869-1.018.869-2.7v-.382zm3.427-.71v5.968h-1.718v-1.588q-.589.953-1.467 1.41-.878.449-2.148.449-1.606 0-2.559-.897-.943-.906-.943-2.419 0-1.765 1.177-2.662 1.186-.896 3.53-.896h2.41v-.168q0-1.187-.785-1.831-.775-.654-2.185-.654-.897 0-1.747.215-.85.215-1.634.644v-1.587q.943-.365 1.83-.542.888-.187 1.728-.187 2.27 0 3.39 1.177 1.121 1.177 1.121 3.568z" style="color:#000;-inkscape-font-specification:&quot;DejaVu Sans&quot;;fill:#326cee;-inkscape-stroke:none"/><path id="path17" d="M7.75 10.543v14.643h1.838v-1.493c.351.562.767 1.021 1.283 1.309.564.304 1.233.455 2.006.455 1.285 0 2.335-.515 3.135-1.535.805-1.02 1.207-2.36 1.207-4.012 0-1.653-.401-2.993-1.207-4.014-.8-1.02-1.85-1.533-3.135-1.533-.773 0-1.442.155-2.006.465-.516.282-.932.737-1.283 1.299v-5.584zm.111.111H9.48v5.809l.103-.178c.357-.615.804-1.068 1.342-1.361.545-.3 1.194-.451 1.953-.451 1.256 0 2.267.494 3.049 1.492.788.997 1.183 2.31 1.183 3.945 0 1.635-.395 2.946-1.183 3.944v.002c-.782.997-1.793 1.49-3.049 1.49-.759 0-1.408-.148-1.953-.442-.539-.3-.985-.755-1.342-1.37l-.103-.177v1.72H7.86Zm15.823 3.71c-.565 0-1.146.062-1.74.187a11.24 11.24 0 0 0-1.839.545l-.035.013v1.72l.08-.046a6.883 6.883 0 0 1 3.356-.853c.932 0 1.646.215 2.15.64v.002c.51.42.764 1.009.764 1.787v.114h-2.354c-1.57 0-2.76.3-3.564.908-.798.608-1.197 1.516-1.197 2.705 0 1.02.319 1.844.959 2.459.646.608 1.516.912 2.597.912.854 0 1.58-.151 2.174-.455.553-.288 1.003-.754 1.385-1.33v1.514h1.83v-6.024c0-1.602-.377-2.807-1.137-3.605s-1.907-1.194-3.43-1.194zm0 .109c1.503 0 2.615.389 3.35 1.16.734.77 1.105 1.944 1.105 3.53v5.913H26.53V23.35l-.101.164c-.388.628-.87 1.09-1.446 1.39-.575.294-1.282.442-2.123.442-1.06 0-1.897-.294-2.521-.881-.618-.593-.926-1.382-.926-2.38 0-1.164.384-2.03 1.154-2.616.777-.587 1.943-.887 3.498-.887h2.465v-.223c0-.803-.269-1.433-.804-1.873-.53-.446-1.272-.666-2.221-.666-.602 0-1.189.073-1.76.217a6.98 6.98 0 0 0-1.566.615v-1.465c.613-.234 1.21-.413 1.787-.529a8.325 8.325 0 0 1 1.717-.185zM12.457 15.8c-.924 0-1.661.373-2.193 1.107-.526.729-.785 1.73-.785 3.002 0 1.272.259 2.277.785 3.012.532.728 1.27 1.096 2.193 1.096.924 0 1.658-.368 2.184-1.096.532-.735.795-1.74.795-3.012 0-1.271-.263-2.273-.795-3.002-.526-.735-1.26-1.107-2.184-1.107zm0 .111c.894 0 1.586.35 2.094 1.06.514.704.773 1.682.773 2.938 0 1.257-.26 2.238-.773 2.947-.508.704-1.2 1.051-2.094 1.051-.895 0-1.59-.347-2.103-1.05-.508-.71-.766-1.691-.766-2.948 0-1.256.258-2.234.766-2.937.514-.71 1.209-1.06 2.103-1.06zm12.309 3.906c-1.393 0-2.361.155-2.914.483-.553.327-.83.895-.83 1.674 0 .622.207 1.126.617 1.498.416.365.979.545 1.68.545.965 0 1.747-.344 2.33-1.028.588-.69.882-1.604.882-2.734v-.438zm0 .11h1.654v.328c0 1.111-.286 1.995-.856 2.662-.563.66-1.306.99-2.246.99-.68 0-1.212-.175-1.605-.52h-.002c-.386-.35-.578-.816-.578-1.413 0-.753.256-1.27.775-1.579.518-.306 1.473-.468 2.858-.468z" style="color:#000;-inkscape-font-specification:&quot;DejaVu Sans&quot;;fill:#000;-inkscape-stroke:none"/></g></svg>