<svg xmlns="http://www.w3.org/2000/svg" xml:space="preserve" id="icons" width="32.623" height="32.623" version="1.1" viewBox="0 0 36 36"><defs id="defs6"><linearGradient id="linear-gradient" x1="32" x2="32" y1="62" y2="2" gradientUnits="userSpaceOnUse"><stop id="stop1" offset="0" stop-color="#3871e9"/><stop id="stop2" offset="1" stop-color="#61c5f6"/></linearGradient><linearGradient id="linear-gradient-2" x1="32" x2="32" y1="62" y2="2" gradientUnits="userSpaceOnUse"><stop id="stop3" offset="0"/><stop id="stop4" offset=".36" stop-opacity="0"/></linearGradient><linearGradient id="linear-gradient-3" x1="32" x2="32" y1="48" y2="16" gradientTransform="translate(-13.971 -13.972)" gradientUnits="userSpaceOnUse"><stop id="stop5" offset="0" stop-color="#e2eff6" style="stop-color:#fff;stop-opacity:1"/><stop id="stop6" offset="1" stop-color="#fff"/></linearGradient><style id="style1">.cls-1{opacity:.08}.cls-2{fill:url(#linear-gradient)}.cls-3{opacity:.16}.cls-4{fill:url(#linear-gradient-2)}.str1{stroke:#e00047;stroke-width:442.127;stroke-linecap:round}</style></defs><g id="g1" style="clip-rule:evenodd;fill:#1ac33f;fill-opacity:1;fill-rule:evenodd;image-rendering:optimizeQuality;shape-rendering:geometricPrecision;text-rendering:geometricPrecision;stroke:#000;stroke-opacity:1;stroke-width:5.56622172;stroke-dasharray:none" transform="translate(-369.364 -405.247) scale(.11895)"><g id="Layer_x0020_1" style="fill:#1ac33f;fill-opacity:1;stroke:#000;stroke-opacity:1;stroke-width:5.56622172;stroke-dasharray:none"><path id="path1" d="M3264.483 3508.403c5.338 0 8.372 2.03 13.938 2.875v-43.436h-43.299c.913-5.634 2.943-8.668 2.943-14.098 0-5.908-7.117-10.699-15.832-10.699-8.806 0-15.855 4.79-15.855 10.7 0 5.086 2.19 8.166 3.103 14.097h-43.093v42.455c-5.772-.912-8.806-3.034-14.304-3.034-5.909 0-10.7 7.118-10.7 15.855s4.791 15.832 10.7 15.832c5.156 0 8.327-2.236 14.304-3.171v45.489h43.8c-.912-5.909-3.102-9.012-3.102-14.076 0-5.909 7.117-10.7 15.854-10.7 8.715 0 15.832 4.791 15.832 10.7 0 5.43-2.098 8.44-3.034 14.076h42.615v-44.28c-5.772.912-8.875 3.034-13.939 3.034-5.84 0-10.63-7.05-10.7-15.786 0-8.806 4.769-15.833 10.7-15.9z" style="fill:#1ac33f;fill-opacity:1;stroke:#000;stroke-width:5.56622172;stroke-dasharray:none;stroke-opacity:1"/></g></g><path id="path8" d="m30.952 28.987-5.51-5.51a9.066 9.066 0 1 0-1.965 1.965l5.51 5.51a1.39 1.39 0 0 0 1.965-1.965zm-19.047-10.83a6.253 6.253 0 1 1 6.253 6.254 6.26 6.26 0 0 1-6.253-6.253z" style="fill:#fff;fill-opacity:1;stroke:#326cee;stroke-width:1.10351589;stroke-dasharray:none;stroke-opacity:1"/></svg>