<svg xmlns="http://www.w3.org/2000/svg" id="icons" width="32.623" height="32.623" version="1.1" viewBox="0 0 36 36"><defs id="defs6"><linearGradient id="linear-gradient" x1="32" x2="32" y1="62" y2="2" gradientUnits="userSpaceOnUse"><stop id="stop1" offset="0" stop-color="#3871e9"/><stop id="stop2" offset="1" stop-color="#61c5f6"/></linearGradient><linearGradient id="linear-gradient-2" x1="32" x2="32" y1="62" y2="2" gradientUnits="userSpaceOnUse"><stop id="stop3" offset="0"/><stop id="stop4" offset=".36" stop-opacity="0"/></linearGradient><linearGradient id="linear-gradient-3" x1="32" x2="32" y1="48" y2="16" gradientTransform="translate(-13.971 -13.972)" gradientUnits="userSpaceOnUse"><stop id="stop5" offset="0" stop-color="#e2eff6" style="stop-color:#fff;stop-opacity:1"/><stop id="stop6" offset="1" stop-color="#fff"/></linearGradient><style id="style1">.cls-1{opacity:.08}.cls-2{fill:url(#linear-gradient)}.cls-3{opacity:.16}.cls-4{fill:url(#linear-gradient-2)}</style></defs><g id="text2" transform="scale(.85814 1.1653)"><path id="path3" d="M18.471 20.23c.069-.381.131-.717.188-1.007.063-.29.114-.569.154-.836.045-.268.08-.541.102-.82.023-.285.034-.615.034-.99 0-.09.003-.216.009-.375a5.977 5.977 0 0 0-.009-.538 5.122 5.122 0 0 0-.051-.589 2.145 2.145 0 0 0-.145-.538 1.056 1.056 0 0 0-.256-.4.582.582 0 0 0-.418-.154c-.222 0-.427.065-.615.196a2.3 2.3 0 0 0-.52.512 4.264 4.264 0 0 0-.419.691 11.04 11.04 0 0 0-.597 1.477 37.064 37.064 0 0 1-.282.878c-.051.154-.108.33-.17.53-.063.2-.131.407-.205.623l-.197.623c-.057.2-.11.376-.162.53a7.08 7.08 0 0 0-.094.34.493.493 0 0 1-.128.257.826.826 0 0 1-.222.17 1.35 1.35 0 0 1-.281.094 1.55 1.55 0 0 1-.273.026.698.698 0 0 1-.316-.068.84.84 0 0 1-.24-.18.941.941 0 0 1-.195-.571v-.274c.136-.295.258-.628.367-.998.113-.375.216-.765.307-1.17.097-.403.182-.813.256-1.228.08-.421.151-.828.213-1.22.069-.393.131-.76.188-1.102.063-.347.123-.651.18-.913a5.58 5.58 0 0 1 .178-.623c.063-.153.131-.236.205-.248a.825.825 0 0 1 .222.018c.097.017.188.045.273.085.091.04.168.091.23.153a.293.293 0 0 1 .095.214v1.024c.176-.205.335-.398.478-.58.147-.182.3-.341.46-.478.16-.137.34-.242.538-.316.2-.08.441-.12.726-.12.575 0 1.052.165 1.433.495.387.325.668.763.845 1.315.193-.16.353-.317.478-.47.125-.153.24-.298.342-.435.108-.142.21-.273.307-.392.097-.12.21-.223.341-.308.131-.09.288-.159.47-.205.187-.05.418-.076.691-.076.478 0 .885.08 1.22.239.342.153.624.361.845.623.228.261.407.566.538.913.137.341.236.703.299 1.084.068.381.11.768.128 1.16.023.393.034.766.034 1.119 0 .108.011.279.034.512.011.233.023.492.034.776.006.108.009.219.009.333v.18c0 .125-.003.25-.009.375a3.367 3.367 0 0 1-.128.828 1.568 1.568 0 0 1-.324.606.693.693 0 0 1-.555.239.84.84 0 0 1-.623-.24.84.84 0 0 1-.239-.622c0-.495.026-.993.077-1.494.051-.5.077-.998.077-1.493.005-.29.008-.6.008-.93v-.043c0-.313-.028-.623-.085-.93a3.173 3.173 0 0 0-.299-.897 1.609 1.609 0 0 0-.648-.691h-.393a1.382 1.382 0 0 0-.922.418 3.647 3.647 0 0 0-.708.99c-.2.398-.373.848-.52 1.349-.143.5-.265 1-.368 1.502a28.4 28.4 0 0 0-.256 1.416c-.063.444-.117.817-.162 1.118a.626.626 0 0 1-.12.205.892.892 0 0 1-.187.171 1.08 1.08 0 0 1-.222.128.662.662 0 0 1-.222.043c-.256 0-.458-.085-.606-.256a.977.977 0 0 1-.222-.649zm17.402-2.68-.042.913c-.063.421-.154.857-.273 1.306-.114.427-.339.837-.675 1.23-.113.136-.287.207-.52.213h-.017a.786.786 0 0 1-.58-.265.654.654 0 0 1-.171-.47c0-.097.014-.205.042-.324.25-1.047.396-1.931.436-2.654l.034-.734c.005-.16.008-.31.008-.452 0-1.377-.344-2.066-1.032-2.066h-.035c-1.383.051-2.333 1.005-2.85 2.86l-.222.597c-.16.285-.274.651-.341 1.1-.006.04-.089.308-.248.803-.108.336-.196.598-.265.785-.125.347-.378.52-.76.52-.511 0-.767-.244-.767-.733v-.214l.077-.34.128-.539c.29-1.235.446-2.008.469-2.321.011-.188.031-.418.06-.691.017-.233.04-.475.068-.726.04-.358.074-.62.102-.785.228-1.371.524-2.057.888-2.057.262 0 .47.077.623.23.142.143.213.294.213.453v.051l-.102.87c.148-.113.313-.247.495-.4l.46-.402c.575-.523 1.116-.79 1.622-.802h.103c1.525 0 2.506.728 2.944 2.185l.12.939c.034.279.051.586.051.922 0 .307-.014.64-.043.998zm2.86-4.754c.41 0 .66.142.75.427v2.134c0 2.97-.321 4.819-.964 5.547-.13.148-.264.222-.4.222-.137 0-.26-.017-.368-.051a.896.896 0 0 1-.282-.154c-.245-.193-.367-.338-.367-.435 0-.063.012-.131.035-.205.455-1.616.708-3.935.76-6.956a.89.89 0 0 1 .23-.426c.068-.069.27-.103.606-.103zm-.922-2.253c0-.125.034-.265.102-.418.063-.142.148-.276.256-.401.091-.108.214-.208.367-.299a.811.811 0 0 1 .444-.128.848.848 0 0 1 .401.12c.137.08.259.174.367.281.12.12.211.245.273.376a.939.939 0 0 1 .111.392c0 .12-.034.245-.102.376-.08.153-.163.273-.248.358a1.392 1.392 0 0 1-.35.256.807.807 0 0 1-.375.103 1.35 1.35 0 0 1-.819-.325 1.343 1.343 0 0 1-.308-.324.682.682 0 0 1-.12-.367z" style="color:#000;-inkscape-font-specification:Lavi;fill:#265ede;stroke-linejoin:round;-inkscape-stroke:none"/><path id="path4" d="M38.982 9.232a.869.869 0 0 0-.478.137 1.479 1.479 0 0 0-.383.313c-.11.125-.2.266-.267.418h.002c-.071.16-.11.306-.11.443 0 .134.046.27.131.402.079.121.185.234.32.34.241.205.544.324.86.338a.88.88 0 0 0 .406-.11c.136-.07.258-.16.365-.267.092-.092.176-.217.258-.375a.876.876 0 0 0 .111-.404 1 1 0 0 0-.117-.42v-.002a1.45 1.45 0 0 0-.287-.393 1.85 1.85 0 0 0-.379-.29.913.913 0 0 0-.432-.13Zm-.005.13a.778.778 0 0 1 .373.11c.132.078.25.168.353.272.115.115.2.234.26.358.06.113.097.237.105.365a.75.75 0 0 1-.095.346c-.078.15-.158.263-.237.341a1.34 1.34 0 0 1-.334.244.75.75 0 0 1-.345.096 1.09 1.09 0 0 1-.395-.08c-.14-.053-.27-.13-.383-.228l-.002-.002a1.295 1.295 0 0 1-.293-.309.616.616 0 0 1-.109-.332c0-.114.032-.245.098-.393a1.53 1.53 0 0 1 .246-.384c.085-.102.2-.197.35-.286a.74.74 0 0 1 .408-.119zm-15.99 2.833c-.278 0-.514.025-.71.078a1.52 1.52 0 0 0-.488.215 1.537 1.537 0 0 0-.355.319c-.098.12-.2.251-.309.394-.102.136-.215.28-.34.434a3.35 3.35 0 0 1-.418.412c-.18-.517-.44-.952-.814-1.266-.393-.34-.889-.51-1.475-.51-.29 0-.539.04-.748.124a1.828 1.828 0 0 0-.557.328c-.17.148-.327.31-.468.486-.108.138-.236.29-.364.441v-.845a.362.362 0 0 0-.113-.258.808.808 0 0 0-.248-.168h-.002a1.154 1.154 0 0 0-.287-.09.866.866 0 0 0-.244-.018.244.244 0 0 0-.147.094.738.738 0 0 0-.107.196 5.712 5.712 0 0 0-.182.63 28.052 28.052 0 0 0-.181.918 171.37 171.37 0 0 1-.188 1.102 39.955 39.955 0 0 1-.213 1.219 21.73 21.73 0 0 1-.256 1.226c-.09.403-.191.79-.304 1.165-.108.367-.23.697-.366.99a.064.064 0 0 0-.005.027v.274a.979.979 0 0 0 .214.615c.15.174.372.272.602.267a1.688 1.688 0 0 0 .287-.027c.107-.024.205-.056.295-.098l.002-.002a.895.895 0 0 0 .24-.183.566.566 0 0 0 .143-.29c.016-.07.049-.182.094-.333l-.002.002c.051-.155.106-.332.164-.532l-.002.002.197-.623c.074-.216.142-.423.205-.623.062-.198.119-.376.17-.529.051-.154.088-.267.111-.342.046-.137.102-.316.17-.537v-.002c.163-.502.362-.993.594-1.467.123-.252.261-.478.412-.68a2.28 2.28 0 0 1 .506-.497.986.986 0 0 1 .578-.186c.158 0 .28.046.375.137a1.003 1.003 0 0 1 .24.379c.066.153.113.327.14.521a5.09 5.09 0 0 1 .052.584c.01.192.013.369.007.532-.005.16-.007.286-.007.378 0 .375-.011.703-.034.985a9.381 9.381 0 0 1-.101.812l-.002.002a12.918 12.918 0 0 1-.153.834 62.279 62.279 0 0 0-.189 1.02v.111c0 .269.08.502.238.69a.831.831 0 0 0 .903.23c.083-.036.16-.08.232-.135a.97.97 0 0 0 .201-.181.698.698 0 0 0 .133-.237c.046-.301.1-.674.162-1.117v-.002c.068-.448.154-.919.256-1.412a21 21 0 0 1 .365-1.496v-.002c.147-.497.32-.942.518-1.336a3.555 3.555 0 0 1 .695-.975 1.31 1.31 0 0 1 .877-.398h.37c.279.17.484.386.613.654l.002.002c.139.273.235.564.29.877l.003.002c.056.304.084.61.084.918v.043a52.81 52.81 0 0 1-.01.93c0 .493-.025.988-.076 1.486s-.077.999-.077 1.5c0 .27.087.499.258.67a.91.91 0 0 0 .668.258c.247 0 .453-.09.602-.262a1.643 1.643 0 0 0 .34-.629 3.48 3.48 0 0 0 .129-.843c.005-.127.01-.253.01-.38v-.179c0-.111-.004-.223-.01-.334v-.002a91.927 91.927 0 0 0-.034-.779 6.031 6.031 0 0 1-.035-.506c0-.354-.01-.728-.033-1.121a8.8 8.8 0 0 0-.129-1.168v-.002a5.227 5.227 0 0 0-.303-1.094v-.002a3.047 3.047 0 0 0-.549-.932 2.415 2.415 0 0 0-.865-.638h-.002c-.346-.164-.761-.244-1.246-.244zm0 .127c.47 0 .868.078 1.193.233v.002c.333.15.607.351.822.605a2.92 2.92 0 0 1 .527.897c.135.337.233.693.295 1.07.068.378.11.763.127 1.152.023.392.035.764.035 1.116 0 .112.01.283.034.517l.035.774v.002c.005.107.007.215.007.328v.18c0 .124-.002.248-.007.372a3.297 3.297 0 0 1-.127.813h.002c-.072.237-.178.43-.313.582a.622.622 0 0 1-.506.217.775.775 0 0 1-.578-.22.775.775 0 0 1-.22-.58c0-.492.027-.987.078-1.486.051-.502.076-1.001.076-1.498v-.002c.006-.29.008-.6.008-.93v-.042c0-.317-.029-.63-.086-.942a3.262 3.262 0 0 0-.303-.912l-.002-.002c-.147-.3-.381-.55-.672-.717a.064.064 0 0 0-.033-.01h-.397a1.45 1.45 0 0 0-.963.436 3.687 3.687 0 0 0-.72 1.008c-.215.437-.39.892-.526 1.36-.141.498-.264 1-.367 1.507-.102.496-.19.97-.258 1.42-.062.44-.114.81-.16 1.11a.574.574 0 0 1-.107.181.837.837 0 0 1-.174.158l-.002.002a1.013 1.013 0 0 1-.205.12.605.605 0 0 1-.201.039c-.242 0-.421-.078-.557-.235a.907.907 0 0 1-.207-.605v-.1c.068-.38.13-.716.188-1.006v-.002c.062-.29.114-.57.154-.838h-.002c.046-.269.08-.543.103-.824.023-.287.036-.617.036-.994 0-.09.002-.216.007-.375a5.88 5.88 0 0 0-.007-.541v-.002a5.304 5.304 0 0 0-.053-.594 2.192 2.192 0 0 0-.149-.553v-.002a1.118 1.118 0 0 0-.271-.421.654.654 0 0 0-.463-.172c-.233 0-.46.073-.65.209-.194.135-.373.31-.536.525a4.35 4.35 0 0 0-.425.701 10.876 10.876 0 0 0-.344.774 15.626 15.626 0 0 0-.256.713c-.055.18-.113.359-.172.537-.022.073-.058.186-.11.34-.05.154-.108.331-.171.53a26.276 26.276 0 0 1-.205.624l-.196.623-.002.002c-.056.198-.109.373-.16.525l-.002.002a6.16 6.16 0 0 0-.093.35.43.43 0 0 1-.114.223.762.762 0 0 1-.2.156h-.003l-.002.002a1.35 1.35 0 0 1-.265.088 1.504 1.504 0 0 1-.258.023.632.632 0 0 1-.287-.06.76.76 0 0 1-.217-.162v-.002a.846.846 0 0 1-.184-.53v-.261a7.29 7.29 0 0 0 .365-.993c.115-.377.218-.768.309-1.173l-.002.002c.097-.405.184-.817.258-1.233v-.002c.08-.42.15-.828.213-1.22.068-.393.13-.76.187-1.1v-.002c.062-.345.123-.649.18-.908v-.002c.062-.259.12-.463.176-.612v-.002a.63.63 0 0 1 .088-.158c.027-.033.047-.046.064-.049a.774.774 0 0 1 .203.018 1.034 1.034 0 0 1 .26.08.67.67 0 0 1 .209.14.226.226 0 0 1 .076.169v1.023c-.002.06.074.09.113.043.177-.206.336-.4.479-.582.146-.18.297-.335.453-.469.154-.132.325-.233.518-.305l.002-.002c.189-.075.422-.113.7-.113.563 0 1.024.16 1.393.479.377.316.653.742.827 1.285.013.043.066.06.101.031.196-.161.358-.32.486-.478.126-.155.241-.3.344-.438.1-.132.201-.262.305-.39.092-.115.203-.214.328-.295a1.354 1.354 0 0 1 .451-.198c.18-.049.405-.074.674-.074zm6.4.12a.43.43 0 0 0-.307.148c-.09.094-.172.228-.248.404-.152.352-.282.87-.396 1.559-.03.167-.062.43-.102.789-.029.25-.053.492-.07.726l.002-.002c-.029.274-.05.507-.06.696-.023.3-.18 1.077-.47 2.31l-.127.537-.078.342v.229c0 .256.068.458.211.595.144.137.355.202.621.202.401 0 .688-.196.82-.563a53.54 53.54 0 0 0 .495-1.52.59.59 0 0 0 .02-.08c.067-.444.18-.804.333-1.08a.057.057 0 0 0 .006-.007l.22-.598a.056.056 0 0 0 .003-.006c.257-.92.62-1.612 1.084-2.078a2.445 2.445 0 0 1 1.705-.735h.033c.323 0 .552.154.717.483.164.329.252.836.252 1.52 0 .14-.002.29-.008.449l-.035.734c-.04.717-.184 1.598-.434 2.643a1.485 1.485 0 0 0-.043.34.72.72 0 0 0 .188.513c.18.186.393.283.627.283h.019c.245-.006.44-.084.567-.236.34-.399.57-.817.687-1.254a12.033 12.033 0 0 0 .276-1.318l.043-.912v-.002c.028-.36.043-.694.043-1.002 0-.338-.019-.648-.053-.93l-.12-.938-.001-.011c-.222-.738-.585-1.298-1.088-1.672-.504-.374-1.146-.559-1.918-.559h-.104c-.528.012-1.082.291-1.664.82l-.459.4c-.136.114-.254.207-.37.3l.083-.713v-.058c0-.179-.082-.348-.232-.499-.167-.166-.394-.25-.668-.25zm0 .128c.249 0 .437.07.578.211.134.134.193.268.193.408v.047l-.101.868a.064.064 0 0 0 .103.058c.15-.114.316-.25.498-.404l.461-.4.002-.003c.568-.517 1.093-.774 1.578-.785h.102c.752 0 1.364.179 1.842.533.477.355.825.886 1.04 1.604v.002l.118.93c.033.275.05.579.05.912a12.782 12.782 0 0 1-.042.996l-.043.914c-.063.416-.152.846-.27 1.291-.11.416-.331.818-.662 1.205-.1.12-.252.184-.473.19h-.015c-.199 0-.372-.078-.533-.245a.581.581 0 0 1-.155-.423c0-.09.014-.195.041-.311.251-1.05.398-1.938.438-2.666l.035-.734c.006-.16.008-.312.008-.455 0-.694-.086-1.219-.266-1.579-.18-.36-.466-.55-.832-.55h-.035c-.675.013-1.32.29-1.793.771-.486.487-.856 1.2-1.117 2.135v-.006l-.221.598c-.162.292-.277.662-.346 1.113 0-.002-.004.027-.015.064-.147.51-.311 1.014-.492 1.512-.119.328-.338.477-.7.477-.246 0-.418-.057-.531-.164-.113-.108-.174-.27-.174-.504v-.207l.076-.332v-.002l.127-.537c.29-1.236.45-2.006.473-2.333a15.027 15.027 0 0 1 .059-.691c.017-.232.04-.473.068-.723.04-.357.074-.619.101-.78.114-.684.245-1.196.39-1.53a1.24 1.24 0 0 1 .222-.365c.074-.078.142-.11.213-.11zm9.345.162c-.17 0-.307.008-.414.026-.106.018-.183.043-.236.096a.96.96 0 0 0-.25.47c-.051 3.018-.305 5.333-.758 6.94a.764.764 0 0 0-.035.222c0 .076.04.145.105.223.066.078.161.165.286.264v-.002a.94.94 0 0 0 .302.166c.116.036.243.054.385.054.16 0 .311-.088.45-.244.335-.38.578-1.034.74-1.965.161-.93.242-2.137.242-3.625v-2.134a.613.613 0 0 0-.289-.375 1.06 1.06 0 0 0-.528-.116zm0 .13c.198 0 .351.033.463.097.109.06.19.161.225.281v2.117c0 1.483-.08 2.685-.24 3.604-.16.919-.402 1.552-.71 1.9-.123.14-.24.202-.353.202-.13 0-.245-.018-.346-.05h-.002a.84.84 0 0 1-.26-.142 1.896 1.896 0 0 1-.265-.244c-.057-.067-.078-.12-.078-.14 0-.055.01-.117.031-.186l.002-.002c.457-1.622.708-3.943.76-6.957a.858.858 0 0 1 .213-.399.375.375 0 0 1 .168-.058 2.5 2.5 0 0 1 .392-.024z" style="color:#000;-inkscape-font-specification:Lavi;fill:#000;stroke-linejoin:round;-inkscape-stroke:none"/><g id="text1" transform="matrix(1.02883 0 0 .85814 1.242 -.11)"><path id="path5" d="M9.86 15.064q.725 0 .886.503v2.514q0 5.25-1.137 6.538-.231.262-.473.262-.241 0-.432-.06-.181-.061-.332-.182-.433-.342-.433-.513 0-.11.04-.241.805-2.857.896-8.198.09-.331.271-.502.121-.121.714-.121Zm-1.086-2.656q0-.22.12-.492.112-.252.303-.473.16-.191.432-.352.272-.161.523-.151.252.01.473.14.241.142.432.333.212.211.322.442.131.272.131.463 0 .211-.12.443-.141.271-.292.422-.181.181-.413.302-.231.12-.442.12-.232 0-.493-.1-.262-.1-.473-.282-.231-.18-.362-.382-.14-.221-.14-.433Z" style="color:#000;-inkscape-font-specification:Lavi;fill:#d30000;-inkscape-stroke:none"/><path id="path6" d="M10.154 10.885a1.003 1.003 0 0 0-.552.158c-.186.11-.335.232-.448.365-.13.151-.234.312-.31.485a1.282 1.282 0 0 0-.125.515c0 .153.052.309.15.463.091.14.215.273.373.397.145.123.31.22.488.289.18.069.35.103.512.103.152 0 .309-.043.469-.127a1.75 1.75 0 0 0 .426-.31 1.77 1.77 0 0 0 .3-.438c.084-.16.127-.315.127-.467 0-.14-.045-.3-.134-.486a1.682 1.682 0 0 0-.334-.459 2.167 2.167 0 0 0-.444-.34 1.05 1.05 0 0 0-.498-.148zm-.004.111c.16.006.307.05.448.133.157.092.296.198.42.322.137.137.241.28.312.428.085.176.125.325.125.44a.9.9 0 0 1-.115.415 1.672 1.672 0 0 1-.281.41 1.613 1.613 0 0 1-.399.292.908.908 0 0 1-.418.115 1.32 1.32 0 0 1-.472-.098 1.552 1.552 0 0 1-.457-.271v-.002H9.31a1.547 1.547 0 0 1-.35-.37.745.745 0 0 1-.13-.402c0-.137.036-.295.114-.47a1.675 1.675 0 0 1 .713-.8.891.891 0 0 1 .492-.142zm-.289 4.012c-.2 0-.36.01-.484.031-.123.02-.211.05-.268.106-.13.123-.225.3-.287.529l-.002.006v.006c-.06 3.558-.36 6.287-.894 8.183h.002a.881.881 0 0 0-.043.258c0 .08.045.158.12.248.077.09.187.191.333.307.105.084.22.149.348.191h.002c.133.042.283.063.449.063.18 0 .353-.098.513-.28.392-.443.675-1.212.866-2.306.19-1.095.285-2.516.285-4.268V15.56l-.002-.008a.704.704 0 0 0-.328-.408c-.16-.09-.362-.135-.61-.135zm0 .111c.235 0 .419.042.555.12a.583.583 0 0 1 .273.341v2.502c0 1.748-.094 3.165-.283 4.25-.188 1.085-.471 1.835-.838 2.25-.148.167-.29.244-.431.244a1.38 1.38 0 0 1-.416-.058 1.01 1.01 0 0 1-.315-.172 2.255 2.255 0 0 1-.316-.291c-.068-.081-.096-.144-.096-.178 0-.067.014-.144.04-.227.537-1.909.833-4.644.894-8.199V15.7c.058-.213.145-.37.256-.474h.002v-.002c.024-.025.094-.055.209-.075.114-.019.27-.029.466-.029z" style="color:#000;-inkscape-font-specification:Lavi;fill:#000;-inkscape-stroke:none"/></g></g><g id="text3" transform="scale(.85814 1.1653)"><path id="path1" d="M1.819 20.547q.128-.538.205-.905.077-.367.145-.725.077-.35.136-.683.069-.324.111-.58.052-.257.069-.359.017-.11.034-.384.008-.273.025-.649.017-.375.026-.836.034-.546.034-.896 0-2.194.76-2.236.077-.009.145-.009.384 0 .572.205.085.085.085.205v1.434q.802-.87 1.263-1.178.794-.512 1.741-.512 1.349 0 2.194 1.178.145.204.145.46 0 .086-.017.18-.06.375-.273.554-.18.146-.47.146-.384-.009-.725-.282-.598-.478-.973-.478-.675 0-.94.17-.545.342-.895.854-.265.384-.666 1.246-.188.401-.41 1.485-.085.427-.35 1.468-.128.495-.324 1.093-.188.571-.358.827-.154.257-.453.257-.06 0-.12-.009-.716-.102-.716-.802Z" style="color:#000;-inkscape-font-specification:Lavi;fill:#d30000;stroke-linejoin:round;-inkscape-stroke:none"/><path id="path2" d="M3.508 12.22c-.048 0-.097.005-.15.01a.557.557 0 0 0-.372.174 1.17 1.17 0 0 0-.254.45c-.13.384-.193.94-.193 1.675 0 .232-.01.53-.033.893a.064.064 0 0 0 0 .002 29.94 29.94 0 0 1-.026.836c-.01.25-.02.466-.025.648-.011.18-.023.308-.033.377a13.53 13.53 0 0 1-.068.356.064.064 0 0 0 0 .002 14.5 14.5 0 0 1-.112.578.064.064 0 0 0 0 .002c-.04.22-.085.447-.137.68a.064.064 0 0 0 0 .002c-.045.238-.093.48-.144.724-.051.244-.12.544-.205.902a.064.064 0 0 0-.002.016v.238c0 .245.065.447.197.594.132.148.327.238.576.274a.913.913 0 0 0 .13.007c.217 0 .393-.1.505-.287.12-.18.24-.457.365-.84.132-.399.24-.766.327-1.097a36.26 36.26 0 0 0 .35-1.47c.147-.722.284-1.216.403-1.472.267-.573.49-.986.663-1.236.228-.334.52-.613.876-.836.156-.1.46-.16.905-.16.223 0 .54.148.933.463.237.19.493.29.764.297a.064.064 0 0 0 .002 0 .79.79 0 0 0 .51-.16c.157-.132.253-.334.295-.594.012-.066.017-.128.017-.19a.846.846 0 0 0-.156-.498c-.573-.798-1.328-1.205-2.246-1.205-.643 0-1.237.174-1.775.521a.064.064 0 0 0-.002 0c-.29.193-.691.585-1.163 1.086v-1.287a.348.348 0 0 0-.101-.248c-.14-.152-.354-.226-.621-.226Zm0 .13c.244 0 .415.063.525.183a.064.064 0 0 0 .002.002.211.211 0 0 1 .067.16v1.434a.064.064 0 0 0 .11.043c.534-.579.955-.97 1.253-1.168.52-.335 1.085-.5 1.705-.5.88 0 1.587.378 2.14 1.15.09.127.135.266.135.424a.95.95 0 0 1-.017.168c-.038.24-.123.409-.25.516a.653.653 0 0 1-.428.13 1.115 1.115 0 0 1-.686-.267c-.403-.323-.736-.492-1.013-.492-.455 0-.778.054-.975.181-.37.232-.676.524-.914.872-.18.262-.402.677-.67 1.253-.13.28-.266.776-.414 1.5-.056.282-.173.772-.35 1.465-.084.329-.193.691-.324 1.088-.124.379-.242.651-.35.813a.064.064 0 0 0-.001.002.424.424 0 0 1-.397.226.802.802 0 0 1-.111-.008c-.229-.032-.391-.112-.498-.232-.107-.12-.164-.286-.164-.508v-.23a34.601 34.601 0 0 0 .35-1.625v-.002c.05-.234.096-.46.136-.682.046-.217.083-.41.111-.582l-.001.002c.034-.17.058-.291.07-.361.012-.079.022-.208.033-.39a.064.064 0 0 0 0-.003c.006-.182.016-.396.027-.646.012-.25.02-.53.026-.836v-.002c.022-.364.033-.664.033-.899 0-.727.065-1.274.187-1.635.062-.18.138-.313.223-.4a.42.42 0 0 1 .29-.137.064.064 0 0 0 .003 0c.05-.005.094-.007.137-.007z" style="color:#000;-inkscape-font-specification:Lavi;fill:#000;stroke-linejoin:round;-inkscape-stroke:none"/></g></svg>