<svg xmlns="http://www.w3.org/2000/svg" id="icons" width="32.623" height="32.623" version="1.1" viewBox="0 0 36 36"><defs id="defs6"><linearGradient id="linear-gradient" x1="32" x2="32" y1="62" y2="2" gradientUnits="userSpaceOnUse"><stop id="stop1" offset="0" stop-color="#3871e9"/><stop id="stop2" offset="1" stop-color="#61c5f6"/></linearGradient><linearGradient id="linear-gradient-2" x1="32" x2="32" y1="62" y2="2" gradientUnits="userSpaceOnUse"><stop id="stop3" offset="0"/><stop id="stop4" offset=".36" stop-opacity="0"/></linearGradient><linearGradient id="linear-gradient-3" x1="32" x2="32" y1="48" y2="16" gradientTransform="translate(-13.971 -13.972)" gradientUnits="userSpaceOnUse"><stop id="stop5" offset="0" stop-color="#e2eff6" style="stop-color:#fff;stop-opacity:1"/><stop id="stop6" offset="1" stop-color="#fff"/></linearGradient><style id="style1">.cls-1{opacity:.08}.cls-2{fill:url(#linear-gradient)}.cls-3{opacity:.16}.cls-4{fill:url(#linear-gradient-2)}</style></defs><g id="text2" transform="scale(.85814 1.1653)"><path id="path3" d="M11.32 12.796q.614 0 .75.427v2.134q0 4.455-.964 5.547-.197.222-.401.222-.205 0-.367-.051-.154-.051-.282-.154-.367-.29-.367-.435 0-.094.034-.205.683-2.424.76-6.956.076-.281.23-.426.103-.103.606-.103zm-.923-2.253q0-.188.103-.418.094-.213.256-.401.136-.162.367-.299.23-.136.444-.128.213.009.4.12.206.12.368.281.179.18.273.376.11.23.11.392 0 .18-.102.376-.12.23-.247.358-.154.154-.35.256-.196.103-.376.103-.196 0-.418-.086-.222-.085-.4-.239-.197-.153-.308-.324-.12-.188-.12-.367zm8.074 9.687q.103-.572.188-1.007.094-.435.154-.836.068-.402.102-.82.034-.427.034-.99 0-.136.009-.375.008-.248-.009-.538-.008-.29-.051-.589t-.145-.538q-.094-.247-.256-.4-.162-.154-.418-.154-.333 0-.615.196t-.52.512q-.231.307-.419.691-.188.384-.341.768-.145.376-.256.709-.103.333-.17.538-.035.11-.112.34-.077.231-.17.53-.094.299-.205.623l-.197.623q-.085.299-.162.53-.068.23-.094.34-.025.146-.128.257-.094.102-.222.17-.128.06-.281.094-.145.026-.273.026-.18 0-.316-.068-.137-.069-.24-.18-.093-.12-.144-.264-.051-.145-.051-.307v-.274q.204-.443.367-.998.17-.563.307-1.17.145-.605.256-1.228.12-.632.213-1.22.103-.59.188-1.102.094-.52.18-.913.093-.393.178-.623.094-.23.205-.248.086-.008.222.018.145.025.273.085.137.06.23.153.095.094.095.214v1.024q.264-.307.478-.58.221-.273.46-.478.24-.205.538-.316.299-.12.726-.12.862 0 1.433.495.58.487.845 1.315.29-.24.478-.47.188-.23.342-.435.162-.213.307-.392.145-.18.341-.308.197-.136.47-.205.281-.076.691-.076.717 0 1.22.239.513.23.845.623.342.392.538.913.205.512.299 1.084.102.572.128 1.16.034.59.034 1.119 0 .162.034.512.017.35.034.776.009.162.009.333v.18q0 .187-.009.375-.017.452-.128.828-.11.367-.324.606-.205.239-.555.239-.384 0-.623-.24-.239-.238-.239-.622 0-.743.077-1.494t.077-1.493q.008-.436.008-.93v-.043q0-.47-.085-.93-.085-.479-.299-.897-.205-.427-.648-.691h-.393q-.52.025-.922.418-.4.384-.708.99-.299.597-.52 1.349-.214.75-.368 1.502-.153.742-.256 1.416-.094.666-.162 1.118-.034.103-.12.205-.076.094-.187.171-.103.077-.222.128-.12.043-.222.043-.384 0-.606-.256-.222-.265-.222-.649zm17.402-2.68-.042.913q-.094.632-.273 1.306-.171.64-.675 1.23-.17.204-.52.213h-.017q-.325 0-.58-.265-.171-.18-.171-.47 0-.145.042-.324.376-1.57.436-2.654l.034-.734q.008-.239.008-.452 0-2.066-1.032-2.066h-.035q-2.074.077-2.85 2.86l-.222.597q-.24.427-.341 1.1-.009.06-.248.803-.162.504-.265.785-.187.52-.76.52-.767 0-.767-.733v-.214l.077-.34.128-.539q.435-1.852.469-2.321.017-.282.06-.691.025-.35.068-.726.06-.537.102-.785.342-2.057.888-2.057.393 0 .623.23.213.214.213.453v.051l-.102.87q.222-.17.495-.4l.46-.402q.863-.785 1.622-.802h.103q2.287 0 2.944 2.185l.12.939q.051.418.051.922 0 .46-.043.998zm2.86-4.754q.614 0 .75.427v2.134q0 4.455-.964 5.547-.196.222-.4.222-.206 0-.368-.051-.154-.051-.282-.154-.367-.29-.367-.435 0-.094.035-.205.682-2.424.76-6.956.076-.281.23-.426.102-.103.606-.103zm-.922-2.253q0-.188.102-.418.094-.213.256-.401.137-.162.367-.299.23-.136.444-.128.213.009.401.12.205.12.367.281.18.18.273.376.111.23.111.392 0 .18-.102.376-.12.23-.248.358-.153.154-.35.256-.196.103-.375.103-.196 0-.418-.086-.222-.085-.401-.239-.197-.153-.308-.324-.12-.188-.12-.367z" style="color:#000;-inkscape-font-specification:Lavi;fill:#265ede;stroke-linejoin:round;-inkscape-stroke:none"/><path id="path4" d="M11.568 9.232a.869.869 0 0 0-.478.137 1.479 1.479 0 0 0-.383.313c-.112.13-.2.27-.266.418-.07.16-.107.306-.107.443 0 .134.044.27.129.402.078.121.187.234.322.34a1.405 1.405 0 0 0 .858.338.88.88 0 0 0 .406-.11c.136-.07.258-.16.365-.267.092-.092.178-.217.26-.375a.873.873 0 0 0 .11-.404c0-.122-.042-.262-.118-.42v-.002a1.44 1.44 0 0 0-.285-.393 1.863 1.863 0 0 0-.381-.29.913.913 0 0 0-.432-.13Zm27.414 0a.869.869 0 0 0-.478.137 1.479 1.479 0 0 0-.383.313 1.67 1.67 0 0 0-.267.418h.002c-.071.16-.11.306-.11.443 0 .134.046.27.131.402.079.121.185.234.32.34a1.427 1.427 0 0 0 .86.338.88.88 0 0 0 .406-.11c.136-.07.258-.16.365-.267.092-.092.176-.217.258-.375a.876.876 0 0 0 .111-.404 1 1 0 0 0-.117-.42v-.002a1.45 1.45 0 0 0-.287-.393 1.85 1.85 0 0 0-.379-.29.913.913 0 0 0-.432-.13Zm-27.418.13a.778.778 0 0 1 .372.11c.132.078.249.168.353.272.115.115.203.234.262.358a.886.886 0 0 1 .103.365.75.75 0 0 1-.095.346c-.078.15-.156.263-.235.341-.098.098-.21.18-.336.244a.75.75 0 0 1-.345.096 1.09 1.09 0 0 1-.395-.08 1.303 1.303 0 0 1-.383-.228.064.064 0 0 0-.002-.002 1.296 1.296 0 0 1-.293-.31.616.616 0 0 1-.11-.331c0-.114.033-.245.099-.393a1.53 1.53 0 0 1 .246-.384c.085-.102.202-.197.351-.286a.74.74 0 0 1 .408-.119zm27.413 0a.778.778 0 0 1 .37.11.064.064 0 0 0 .003 0c.132.078.25.168.353.272.115.115.2.234.26.358a.894.894 0 0 1 .105.365.75.75 0 0 1-.095.346c-.078.15-.158.263-.237.341a1.353 1.353 0 0 1-.334.244.75.75 0 0 1-.345.096 1.09 1.09 0 0 1-.395-.08 1.303 1.303 0 0 1-.383-.228.064.064 0 0 0-.002-.002 1.295 1.295 0 0 1-.293-.309.616.616 0 0 1-.109-.332c0-.114.032-.245.098-.393a1.53 1.53 0 0 1 .246-.384c.085-.102.2-.197.35-.286a.74.74 0 0 1 .408-.119zm-15.99 2.833c-.278 0-.514.025-.71.078a1.52 1.52 0 0 0-.488.215 1.537 1.537 0 0 0-.355.319c-.098.12-.2.251-.309.394-.102.136-.215.28-.34.434a3.35 3.35 0 0 1-.418.412c-.18-.517-.44-.952-.814-1.266-.393-.34-.889-.51-1.475-.51-.29 0-.539.04-.748.124a1.828 1.828 0 0 0-.557.328 3.747 3.747 0 0 0-.468.486c-.108.138-.236.29-.364.441v-.845a.362.362 0 0 0-.113-.258.808.808 0 0 0-.248-.168h-.002a1.154 1.154 0 0 0-.287-.09.866.866 0 0 0-.24-.018.064.064 0 0 0-.004 0 .244.244 0 0 0-.147.094.738.738 0 0 0-.107.194.064.064 0 0 0 0 .002 5.711 5.711 0 0 0-.182.63c-.057.263-.117.569-.18.916a.064.064 0 0 0-.001.002c-.057.342-.12.708-.188 1.1a.064.064 0 0 0 0 .002c-.062.392-.133.796-.213 1.217a.064.064 0 0 0 0 .002c-.074.414-.16.822-.256 1.224a.064.064 0 0 0 0 .002c-.09.403-.191.79-.304 1.165-.108.367-.23.697-.366.99a.064.064 0 0 0-.005.027v.274a.979.979 0 0 0 .21.61.064.064 0 0 0 .004.005.774.774 0 0 0 .602.267c.09 0 .183-.01.283-.027a.064.064 0 0 0 .004 0c.107-.024.205-.056.295-.098a.064.064 0 0 0 .002-.002.895.895 0 0 0 .24-.183.566.566 0 0 0 .143-.29c.016-.07.049-.182.094-.333l-.002.002c.051-.155.106-.332.164-.532l-.002.002.197-.623c.074-.216.142-.423.205-.623.062-.198.119-.376.17-.529.051-.154.088-.267.111-.342.046-.137.102-.316.17-.537v-.002a11.235 11.235 0 0 1 .594-1.467c.123-.252.261-.478.412-.68a2.28 2.28 0 0 1 .506-.497.986.986 0 0 1 .578-.186c.158 0 .28.046.375.137.1.095.18.22.24.377a.064.064 0 0 0 0 .002c.066.153.113.327.14.521.029.197.046.391.052.582a.064.064 0 0 0 0 .002c.01.192.013.369.007.532-.005.16-.007.286-.007.378 0 .375-.011.703-.034.985a9.378 9.378 0 0 1-.101.812.064.064 0 0 0-.002.002c-.04.266-.09.543-.153.832a.064.064 0 0 0 0 .002c-.057.291-.119.627-.187 1.008a.064.064 0 0 0-.002.012v.111c0 .269.08.502.238.69a.831.831 0 0 0 .899.232.064.064 0 0 0 .004-.002c.083-.036.16-.08.232-.135a.97.97 0 0 0 .201-.181.698.698 0 0 0 .131-.225.064.064 0 0 0 .002-.012c.046-.301.1-.674.162-1.117v-.002c.068-.448.154-.919.256-1.412a21 21 0 0 1 .365-1.496v-.002c.147-.497.32-.942.518-1.336.202-.399.434-.723.695-.973a.064.064 0 0 0 0-.002 1.31 1.31 0 0 1 .877-.398h.37c.279.17.484.386.613.654a.064.064 0 0 0 .002.002c.139.273.235.564.29.877a.064.064 0 0 0 .003.002c.056.304.084.61.084.918v.043c0 .33-.005.638-.01.928a.064.064 0 0 0 0 .002c0 .493-.025.988-.076 1.486a14.733 14.733 0 0 0-.077 1.5c0 .27.087.499.258.67a.911.911 0 0 0 .668.258c.247 0 .453-.09.602-.262.15-.167.261-.377.338-.629a.064.064 0 0 0 .002 0 3.48 3.48 0 0 0 .129-.843c.005-.127.01-.253.01-.38v-.179a7.23 7.23 0 0 0-.01-.334v-.002a92.028 92.028 0 0 0-.034-.775.064.064 0 0 0 0-.004 6.032 6.032 0 0 1-.035-.506c0-.354-.01-.728-.033-1.121a8.8 8.8 0 0 0-.129-1.168v-.002a5.227 5.227 0 0 0-.303-1.094v-.002a3.047 3.047 0 0 0-.549-.932 2.415 2.415 0 0 0-.865-.638h-.002c-.346-.164-.761-.244-1.246-.244zm0 .127c.47 0 .868.078 1.193.233a.064.064 0 0 0 0 .002c.333.15.607.351.822.605.222.256.399.554.527.895a.064.064 0 0 0 0 .002c.135.337.233.693.295 1.07.068.378.11.763.127 1.152.023.392.035.764.035 1.116 0 .112.01.283.034.517l.035.774a.064.064 0 0 0 0 .002c.005.107.007.215.007.328v.18c0 .124-.002.248-.007.372a3.304 3.304 0 0 1-.127.813h.002c-.072.237-.178.43-.313.582a.622.622 0 0 1-.506.217.775.775 0 0 1-.578-.22.775.775 0 0 1-.22-.58c0-.492.027-.987.078-1.486.051-.502.076-1.001.076-1.498v-.002c.006-.29.008-.6.008-.93v-.042c0-.317-.029-.63-.086-.942a3.262 3.262 0 0 0-.303-.912l-.002-.002a1.678 1.678 0 0 0-.672-.717.064.064 0 0 0-.033-.01h-.393a.064.064 0 0 0-.004 0 1.45 1.45 0 0 0-.963.436 3.687 3.687 0 0 0-.72 1.008 8.297 8.297 0 0 0-.526 1.36 20.687 20.687 0 0 0-.367 1.507c-.102.496-.19.97-.258 1.42-.062.44-.114.81-.16 1.11a.574.574 0 0 1-.107.181.837.837 0 0 1-.174.158.064.064 0 0 0-.002.002 1.013 1.013 0 0 1-.205.12.605.605 0 0 1-.201.039c-.242 0-.421-.078-.557-.235a.907.907 0 0 1-.207-.605v-.1c.068-.38.13-.716.188-1.006v-.002c.062-.29.114-.57.154-.838h-.002c.046-.269.08-.543.103-.824.023-.287.036-.617.036-.994 0-.09.002-.216.007-.375a5.873 5.873 0 0 0-.007-.541v-.002a5.308 5.308 0 0 0-.053-.594 2.192 2.192 0 0 0-.149-.553v-.002a1.118 1.118 0 0 0-.271-.421.654.654 0 0 0-.463-.172 1.12 1.12 0 0 0-.65.209c-.194.135-.373.31-.536.525a4.349 4.349 0 0 0-.425.701c-.126.258-.24.516-.342.774a.064.064 0 0 0-.002 0c-.097.25-.182.488-.256.71a.064.064 0 0 0 0 .003 24.21 24.21 0 0 1-.172.537c-.022.073-.058.186-.11.34-.05.154-.108.331-.171.53-.063.2-.131.406-.205.622a.064.064 0 0 0 0 .002l-.196.623a.064.064 0 0 0-.002.002c-.056.198-.109.373-.16.525a.064.064 0 0 0-.002.002 6.163 6.163 0 0 0-.093.346.064.064 0 0 0 0 .004.43.43 0 0 1-.114.223.762.762 0 0 1-.2.156h-.003l-.002.002a1.35 1.35 0 0 1-.265.088 1.504 1.504 0 0 1-.258.023.632.632 0 0 1-.287-.06.76.76 0 0 1-.217-.162v-.002a.86.86 0 0 1-.137-.245.846.846 0 0 1-.047-.285v-.261a7.29 7.29 0 0 0 .365-.993c.115-.377.218-.768.309-1.173l-.002.002c.097-.405.184-.817.258-1.233v-.002c.08-.42.15-.828.213-1.22.068-.393.13-.76.187-1.1v-.002c.062-.345.123-.649.18-.908v-.002c.062-.259.12-.463.176-.612v-.002a.63.63 0 0 1 .088-.158c.027-.033.047-.046.064-.049a.775.775 0 0 1 .203.018c.092.016.178.043.258.08a.064.064 0 0 0 .002 0 .67.67 0 0 1 .209.14.226.226 0 0 1 .076.169v1.023a.064.064 0 0 0 .113.043c.177-.206.336-.4.479-.582.146-.18.297-.335.453-.469.154-.132.325-.233.518-.305a.064.064 0 0 0 .002-.002c.189-.075.422-.113.7-.113.563 0 1.024.16 1.393.479.377.316.653.742.827 1.285a.064.064 0 0 0 .101.031c.196-.161.358-.32.486-.478.126-.155.241-.3.344-.438a15.3 15.3 0 0 1 .305-.39c.092-.115.203-.214.328-.295.124-.086.273-.152.45-.196a.064.064 0 0 0 .001-.002c.18-.049.405-.074.674-.074zm6.4.12a.43.43 0 0 0-.307.148c-.09.094-.172.228-.248.404-.152.352-.282.87-.396 1.559-.03.167-.062.43-.102.789-.029.25-.053.492-.07.726l.002-.002c-.029.274-.05.507-.06.696-.023.3-.18 1.077-.47 2.31l-.127.537-.078.342a.064.064 0 0 0 0 .014v.215c0 .256.068.458.211.595.144.137.355.202.621.202.401 0 .688-.196.82-.563a53.54 53.54 0 0 0 .445-1.36 3.36 3.36 0 0 0 .05-.16.584.584 0 0 0 .02-.08c.067-.444.18-.804.333-1.08a.064.064 0 0 0 .006-.007l.22-.598a.064.064 0 0 0 .003-.006c.257-.92.62-1.612 1.084-2.078a2.445 2.445 0 0 1 1.705-.735h.033c.323 0 .552.154.717.483.164.329.252.836.252 1.52 0 .14-.002.29-.008.449l-.035.734c-.04.717-.184 1.598-.434 2.643a1.485 1.485 0 0 0-.043.34.72.72 0 0 0 .188.513c.18.186.393.283.627.283h.017a.064.064 0 0 0 .002 0c.245-.006.44-.084.567-.236.34-.399.57-.817.687-1.254.12-.452.213-.889.276-1.312a.064.064 0 0 0 0-.006l.043-.912v-.002c.028-.36.043-.694.043-1.002 0-.338-.019-.648-.053-.93l-.12-.938a.064.064 0 0 0-.001-.011c-.222-.738-.585-1.298-1.088-1.672-.504-.374-1.146-.559-1.918-.559h-.102a.064.064 0 0 0-.002 0c-.528.012-1.082.291-1.664.82l-.459.4c-.136.114-.254.207-.37.3l.083-.713a.064.064 0 0 0 0-.008v-.05c0-.179-.082-.348-.232-.499-.167-.166-.394-.25-.668-.25zm0 .128c.249 0 .437.07.578.211.134.134.193.268.193.408v.047l-.101.868a.064.064 0 0 0 .103.058c.15-.114.316-.25.498-.404l.461-.4a.064.064 0 0 0 .002-.003c.568-.517 1.093-.774 1.578-.785h.102c.752 0 1.364.179 1.842.533.477.355.825.886 1.04 1.604v.002l.118.93c.033.275.05.579.05.912 0 .305-.014.637-.042.994a.064.064 0 0 0 0 .002l-.043.914c-.063.416-.152.846-.27 1.291-.11.416-.331.818-.662 1.205-.1.12-.252.184-.473.19h-.015c-.199 0-.372-.078-.533-.245a.581.581 0 0 1-.155-.423c0-.09.014-.195.041-.311.251-1.05.398-1.938.438-2.666l.035-.734c.006-.16.008-.312.008-.455 0-.694-.086-1.219-.266-1.579-.18-.36-.466-.55-.832-.55h-.033a.064.064 0 0 0-.002 0 2.584 2.584 0 0 0-1.793.771c-.486.487-.856 1.2-1.117 2.135v-.006l-.221.598c-.162.292-.277.662-.346 1.113 0-.002-.004.027-.015.064a23.713 23.713 0 0 1-.492 1.512c-.119.328-.338.477-.7.477-.246 0-.418-.057-.531-.164-.113-.108-.174-.27-.174-.504v-.207l.076-.332v-.002l.127-.537c.29-1.236.45-2.006.473-2.333.011-.186.03-.416.059-.689a.064.064 0 0 0 0-.002c.017-.232.04-.473.068-.723.04-.357.074-.619.101-.78.114-.684.245-1.196.39-1.53a1.24 1.24 0 0 1 .222-.365c.074-.078.142-.11.213-.11zm-18.069.162c-.17 0-.307.008-.414.026-.105.018-.181.042-.234.094a.963.963 0 0 0-.25.457.064.064 0 0 0-.002.015c-.051 3.018-.303 5.333-.756 6.94a.77.77 0 0 0-.037.222c0 .076.042.145.107.223.066.078.16.165.284.264v-.002c.09.073.19.13.3.166a.064.064 0 0 0 .002 0c.116.036.245.054.387.054.16 0 .311-.088.45-.244.335-.38.576-1.034.738-1.965.161-.93.242-2.137.242-3.625v-2.134a.064.064 0 0 0-.004-.02.613.613 0 0 0-.285-.355 1.06 1.06 0 0 0-.528-.116zm27.414 0c-.17 0-.307.008-.414.026-.106.018-.183.043-.236.096a.96.96 0 0 0-.248.455.064.064 0 0 0-.002.015c-.051 3.018-.305 5.333-.758 6.94a.764.764 0 0 0-.035.222c0 .076.04.145.105.223.066.078.161.165.286.264v-.002c.09.073.19.13.3.166a.064.064 0 0 0 .002 0c.116.036.243.054.385.054.16 0 .311-.088.45-.244.335-.38.578-1.034.74-1.965.161-.93.242-2.137.242-3.625v-2.134a.064.064 0 0 0-.004-.02.613.613 0 0 0-.285-.355 1.06 1.06 0 0 0-.528-.116zm-27.414.13c.198 0 .353.033.465.097.11.063.181.153.223.28v2.118c0 1.483-.08 2.685-.24 3.604-.16.919-.402 1.552-.71 1.9-.123.14-.238.202-.35.202-.132 0-.248-.018-.349-.05a.84.84 0 0 1-.261-.142 1.896 1.896 0 0 1-.266-.244c-.057-.067-.076-.12-.076-.14 0-.055.01-.117.031-.186a.064.064 0 0 0 0-.002c.457-1.622.708-3.943.76-6.957a.842.842 0 0 1 .213-.397.064.064 0 0 0 0-.002.375.375 0 0 1 .168-.058 2.5 2.5 0 0 1 .392-.024zm27.414 0c.198 0 .351.033.463.097a.474.474 0 0 1 .225.281v2.117c0 1.483-.08 2.685-.24 3.604-.16.919-.402 1.552-.71 1.9-.123.14-.24.202-.353.202-.13 0-.245-.018-.346-.05h-.002a.84.84 0 0 1-.26-.142 1.896 1.896 0 0 1-.265-.244c-.057-.067-.078-.12-.078-.14 0-.055.01-.117.031-.186a.064.064 0 0 0 .002-.002c.457-1.622.708-3.943.76-6.957.05-.18.12-.31.21-.397a.064.064 0 0 0 .003-.002.375.375 0 0 1 .168-.058 2.5 2.5 0 0 1 .392-.024z" style="color:#000;-inkscape-font-specification:Lavi;fill:#000;stroke-linejoin:round;-inkscape-stroke:none"/></g><g id="text3" transform="scale(.85814 1.1653)"><path id="path1" d="M1.819 20.547q.128-.538.205-.905.077-.367.145-.725.077-.35.136-.683.069-.324.111-.58.052-.257.069-.359.017-.11.034-.384.008-.273.025-.649.017-.375.026-.836.034-.546.034-.896 0-2.194.76-2.236.077-.009.145-.009.384 0 .572.205.085.085.085.205v1.434q.802-.87 1.263-1.178.794-.512 1.741-.512 1.349 0 2.194 1.178.145.204.145.46 0 .086-.017.18-.06.375-.273.554-.18.146-.47.146-.384-.009-.725-.282-.598-.478-.973-.478-.675 0-.94.17-.545.342-.895.854-.265.384-.666 1.246-.188.401-.41 1.485-.085.427-.35 1.468-.128.495-.324 1.093-.188.571-.358.827-.154.257-.453.257-.06 0-.12-.009-.716-.102-.716-.802Z" style="color:#000;-inkscape-font-specification:Lavi;fill:#d30000;stroke-linejoin:round;-inkscape-stroke:none"/><path id="path2" d="M3.508 12.22c-.048 0-.097.005-.15.01a.557.557 0 0 0-.372.174 1.17 1.17 0 0 0-.254.45c-.13.384-.193.94-.193 1.675 0 .232-.01.53-.033.893a.064.064 0 0 0 0 .002 29.94 29.94 0 0 1-.026.836c-.01.25-.02.466-.025.648-.011.18-.023.308-.033.377a13.53 13.53 0 0 1-.068.356.064.064 0 0 0 0 .002 14.5 14.5 0 0 1-.112.578.064.064 0 0 0 0 .002c-.04.22-.085.447-.137.68a.064.064 0 0 0 0 .002c-.045.238-.093.48-.144.724-.051.244-.12.544-.205.902a.064.064 0 0 0-.002.016v.238c0 .245.065.447.197.594.132.148.327.238.576.274a.913.913 0 0 0 .13.007c.217 0 .393-.1.505-.287.12-.18.24-.457.365-.84.132-.399.24-.766.327-1.097a36.26 36.26 0 0 0 .35-1.47c.147-.722.284-1.216.403-1.472.267-.573.49-.986.663-1.236.228-.334.52-.613.876-.836.156-.1.46-.16.905-.16.223 0 .54.148.933.463.237.19.493.29.764.297a.064.064 0 0 0 .002 0 .79.79 0 0 0 .51-.16c.157-.132.253-.334.295-.594.012-.066.017-.128.017-.19a.846.846 0 0 0-.156-.498c-.573-.798-1.328-1.205-2.246-1.205-.643 0-1.237.174-1.775.521a.064.064 0 0 0-.002 0c-.29.193-.691.585-1.163 1.086v-1.287a.348.348 0 0 0-.101-.248c-.14-.152-.354-.226-.621-.226Zm0 .13c.244 0 .415.063.525.183a.064.064 0 0 0 .002.002.211.211 0 0 1 .067.16v1.434a.064.064 0 0 0 .11.043c.534-.579.955-.97 1.253-1.168.52-.335 1.085-.5 1.705-.5.88 0 1.587.378 2.14 1.15.09.127.135.266.135.424a.95.95 0 0 1-.017.168c-.038.24-.123.409-.25.516a.653.653 0 0 1-.428.13 1.115 1.115 0 0 1-.686-.267c-.403-.323-.736-.492-1.013-.492-.455 0-.778.054-.975.181-.37.232-.676.524-.914.872-.18.262-.402.677-.67 1.253-.13.28-.266.776-.414 1.5-.056.282-.173.772-.35 1.465-.084.329-.193.691-.324 1.088-.124.379-.242.651-.35.813a.064.064 0 0 0-.001.002.424.424 0 0 1-.397.226.802.802 0 0 1-.111-.008c-.229-.032-.391-.112-.498-.232-.107-.12-.164-.286-.164-.508v-.23a34.601 34.601 0 0 0 .35-1.625v-.002c.05-.234.096-.46.136-.682.046-.217.083-.41.111-.582l-.001.002c.034-.17.058-.291.07-.361.012-.079.022-.208.033-.39a.064.064 0 0 0 0-.003c.006-.182.016-.396.027-.646.012-.25.02-.53.026-.836v-.002c.022-.364.033-.664.033-.899 0-.727.065-1.274.187-1.635.062-.18.138-.313.223-.4a.42.42 0 0 1 .29-.137.064.064 0 0 0 .003 0c.05-.005.094-.007.137-.007z" style="color:#000;-inkscape-font-specification:Lavi;fill:#000;stroke-linejoin:round;-inkscape-stroke:none"/></g></svg>