<svg xmlns="http://www.w3.org/2000/svg" version="1.0" width="191.428" height="191.135" viewBox="0 0 143.571 143.351"><path style="fill:#fff;fill-opacity:1;stroke:none" d="M-90.207-36.401h324v216h-324z"/><g style="fill:#ff2d3d;stroke:none;fill-opacity:1"><path d="M1476 1784c-194-43-358-157-462-319-229-359-94-841 290-1029 329-161 724-50 922 259 162 255 147 579-39 828-82 109-242 214-382 252-88 24-245 28-329 9zm327-153c125-44 234-127 272-208 63-131-6-301-140-346-98-34-186-15-275 58-135 111-288 133-436 64-47-23-132-97-168-149-16-24-17-23-12 65 8 148 63 272 167 376 79 79 197 141 309 163 57 11 226-3 283-23zm394-588c-16-244-170-439-407-519-77-26-263-26-340 0-129 43-246 131-285 213-63 131 6 301 140 346 98 34 186 15 275-58 134-110 288-133 432-65 57 27 129 88 158 135 12 19 24 35 27 35s3-39 0-87z" style="fill:#ff2d3d;fill-opacity:1" transform="matrix(.1 0 0 -.1 -90.207 179.6)"/></g></svg>