<svg width="64" height="64" version="1.0" viewBox="0 0 256 256" xml:space="preserve" xmlns="http://www.w3.org/2000/svg"><defs><linearGradient id="b" x1="87.397" x2="269.33" y1="141.97" y2="141.97" gradientTransform="translate(-129.37 -94.57) scale(1.5677)" gradientUnits="userSpaceOnUse"><stop stop-color="#fff" stop-opacity=".667" offset="0"/><stop stop-color="#d7d7d7" stop-opacity=".219" offset=".241"/><stop stop-color="#4d4d4d" stop-opacity="0" offset=".459"/><stop stop-color="#fff" stop-opacity=".51" offset=".719"/><stop stop-color="#f2f2f2" stop-opacity=".4" offset=".874"/><stop stop-color="#fff" stop-opacity=".624" offset="1"/></linearGradient><linearGradient id="a" x1="128.21" x2="129.28" y1="213.73" y2="41.485" gradientUnits="userSpaceOnUse"><stop stop-color="#fef200" offset="0"/><stop stop-color="#fef200" offset=".16"/><stop stop-color="#00a4e8" offset=".304"/><stop stop-color="#00a4e8" offset=".335"/><stop stop-color="#fff" offset=".467"/><stop stop-color="#fff" offset=".547"/><stop stop-color="#ed1b24" offset=".634"/><stop stop-color="#ed1b24" offset=".735"/><stop stop-color="#99b433" offset=".816"/><stop stop-color="#99b433" offset="1"/></linearGradient></defs><path d="M248.36 32.472C167.272-10.43 86.18 85.849 5.09 40.005c-2.814-1.588-5.095-.792-5.095 2.025v171.94c0 2.81 2.281 6.578 5.095 8.164 81.936 46.325 163.87-52.464 245.81-6.14 2.814 1.587 5.095.793 5.095-2.024V42.03c0-2.811-2.281-6.578-5.095-8.166-.848-.479-1.696-.943-2.544-1.392z" fill="#4d4d4d"/><path d="M248.36 37.567c0 1.854-14.892-10.205-37.309-11.054-22.416-2.352-52.355 6.506-82.452 15.427-30.097 8.9-60.348 17.891-83.389 15.56-23.04-.853-38.868-13.027-40.115-12.399v171.94c1.235-.802 16.907 11.481 39.798 12.395 22.89 2.399 52.999-6.57 83.108-15.508 30.109-8.93 60.218-17.856 83.108-15.437 22.891.932 38.563 13.211 39.797 12.409V38.96c-1.274-.723-2.544-1.392-2.544-1.392z" fill="url(#a)"/><path d="M248.36 89.403C168.12 46.951 87.88 140.779 7.64 98.33V49.041C87.879 91.49 168.12-2.338 248.36 40.114v49.289z" fill="#99b433"/><path d="M248.36 206.96c-80.24-42.452-160.48 51.376-240.72 8.927v-49.291c80.239 42.449 160.48-51.379 240.72-8.927v49.291z" fill="#fef200"/><path d="M248.36 157.67c-80.24-42.452-160.48 51.376-240.72 8.927V98.33c80.239 42.449 160.48-51.379 240.72-8.927v68.267z" fill="#fff"/><path d="M203.2 128.64c-65.195-.74-130.41 53.696-195.6 19.867v34.769c80.239 42.855 160.56-52.51 240.8-9.651v-33.918c-15.045-7.808-30.155-10.896-45.2-11.067z" fill="#0080e8"/><path d="M203.2 62.08c-65.195-.74-130.41 53.696-195.6 19.867v34.769c80.239 42.855 160.56-52.51 240.8-9.651V73.147c-15.045-7.808-30.155-10.896-45.2-11.067z" fill="#ed1b24"/><path d="M248.36 206.96c-80.24-42.452-160.48 51.377-240.72 8.925V49.035c80.239 42.451 160.48-51.377 240.72-8.924v166.85z" fill="url(#b)"/></svg>