<svg xmlns="http://www.w3.org/2000/svg" width="280" height="280" version="1.0" viewBox="-1 -1 206.969 206.975"><path d="M36.472 16.06c-6.238 3.11-2.632 8.221-15.156 14.657-1.526.784 5.238 2.856 5.062 4.094C23.31 56.37 5.678 47.819 8.16 51.717c4.667 7.332 17.076 2.628 17.437 3.187.78 1.21-9.19 2.857-8.156 4.188 1.818 2.339 9.684.785 10.125 1.937.62 1.622-13.32 1.135-12 2.844 5.24 6.789 14.29 1.754 13.656 4.063-5.244 19.104-14.631 42.815-16.031 43.093-2.744.547-5.21.861-7.219 1.813C2.344 114.56.198 117.18.535 118.56c.162.666 6.124-.597 6.343-.094.388.888.632 1.763 1.22 2.062.535.274 1.052-1.802 2.343-1.78 1.994.031 5.107 1.261 6.375-.75C30.147 96.84 38.579 71.87 39.847 71.903c2.906.075 5.35 11.833 4.469 14.375-3.866 11.153-4.74 18.372-3.531 22.375 2.029 3.03 5.916 11.799 15.343 10.47 8-1.13 33.123-10.845 35.563-9.813 12.22 5.166 26.745 3.678 36.413 3.396 2.38-.069 4.465 1.283 6.15 1.26 1.675-.023 1.476-1.779 2.562-2.75 8.052-7.203 9.338-6.254 8.125-10.688-.39-1.422-7.2 4.437-14.719 5.97-7.462 1.52-15.69-.739-16.375-1.907C103.343 86.686 97.632 74.74 92.722 72.81c-2.233-.878-23.968 8.494-33.906 15.5-1.664 1.173-5.176-6.195-3.281-11.532 1.098-3.092 7.415-8.149 8-11.125.062-.56.113-.95.09-1.454-.002-.034.223-.11.222-.25 0-.129-.27-.265-.272-.304-.565-8.554-12.622-9.276-14.603-17.773.125-.691 5.32 1.492 5.344-.031.021-1.257 3.322-6.147 3.094-7.438-.18-1.017-.015-1.872-.188-2.906-.087-.52-.511-1.292-.594-1.812-.108-.682 1.047-1.198.938-1.875-.263-1.629.14-3.225-.156-4.782-.102-.53-.615-.826-.72-1.343-.135-.676.617-1.164.782-1.813.36-1.421.405-2.942-.031-4.187-5.824-9.028-13.159-7.385-20.969-3.625zm53.281 68.313c.093.021.152.086.188.188 2.746 7.904 11.293 16.131 10.125 16.78C87.009 94.506 76.69 98.8 76.69 96.874c4.124-4.496 11.67-12.818 13.062-12.5Z" style="fill:#1a1a1a;fill-rule:evenodd;stroke:#000;stroke-width:1px;stroke-linecap:butt" transform="translate(29.57)"/><path d="M82.566 131.975c33.13-5.956 56.233-36.22 53.244-69.748C132.82 28.7 104.728 3 71.066 3 37.406 3 9.313 28.699 6.323 62.227c-2.99 33.529 20.113 63.792 53.243 69.748v22h-26v21h26v27h23v-27h25v-21h-25v-22zm37-64c0 26.51-21.49 48-48 48s-48-21.49-48-48 21.49-48 48-48 48 21.49 48 48z" style="fill:#fff;stroke:#000;stroke-width:6;stroke-linejoin:round" transform="translate(29.57)"/></svg>