<svg xmlns="http://www.w3.org/2000/svg" xmlns:xlink="http://www.w3.org/1999/xlink" version="1.0" width="64" height="64" viewBox="0 0 256 256" xml:space="preserve"><defs><linearGradient x1="87.397" y1="141.973" x2="240.947" y2="141.973" id="a" gradientUnits="userSpaceOnUse" gradientTransform="translate(-129.37 -94.568) scale(1.56769)"><stop style="stop-color:#fff;stop-opacity:.66666675" offset="0"/><stop style="stop-color:#d7d7d7;stop-opacity:.21875" offset=".241"/><stop style="stop-color:#4d4d4d;stop-opacity:0" offset=".459"/><stop style="stop-color:#fff;stop-opacity:.51041669" offset=".719"/><stop style="stop-color:#f2f2f2;stop-opacity:.40000001" offset=".874"/><stop style="stop-color:#fff;stop-opacity:.62352943" offset="1"/></linearGradient><linearGradient x1="87.397" y1="141.973" x2="269.333" y2="141.973" id="e" xlink:href="#a" gradientUnits="userSpaceOnUse" gradientTransform="translate(-129.371 -94.57) scale(1.56769)"/><linearGradient xlink:href="#a" id="f" gradientUnits="userSpaceOnUse" gradientTransform="translate(-129.371 -94.57) scale(1.56769)" x1="87.397" y1="141.973" x2="269.333" y2="141.973"/><linearGradient gradientTransform="translate(-69.826 15.227) scale(1.56769)" x1="124.664" y1="19.659" x2="126.189" y2="122.018" id="d" gradientUnits="userSpaceOnUse"><stop style="stop-color:#034da2;stop-opacity:1" offset="0"/><stop style="stop-color:#034da2;stop-opacity:1" offset=".155"/><stop style="stop-color:#ed1d25;stop-opacity:1" offset=".255"/><stop style="stop-color:#ed1d25;stop-opacity:1" offset=".75"/><stop style="stop-color:#034da2;stop-opacity:1" offset=".85"/><stop style="stop-color:#034da2;stop-opacity:1" offset="1"/></linearGradient><linearGradient xlink:href="#a" id="g" gradientUnits="userSpaceOnUse" gradientTransform="translate(-129.371 -94.57) scale(1.56769)" x1="87.397" y1="141.973" x2="269.333" y2="141.973"/><g id="c"><path id="b" transform="rotate(18 3.157 -.5)" d="M0 0v1h.5z"/><use xlink:href="#b" transform="scale(-1 1)"/></g></defs><g style="display:inline"><path style="fill:url(#e)" d="M248.36 206.96c-80.24-42.452-160.48 51.377-240.72 8.925V48.631C87.982 90.163 169.345-2.03 248.36 40.115V206.96z"/></g><g style="display:inline"><path style="opacity:1;fill:url(#f);display:inline" d="M248.36 206.96c-80.24-42.452-160.48 51.377-240.72 8.925V48.631C87.982 90.163 169.345-2.03 248.36 40.115V206.96z"/></g><path style="fill:#4d4d4d" d="M248.36 32.472C167.273-10.43 86.184 85.849 5.096 40.005 2.281 38.417 0 39.213 0 42.03v171.94c0 2.811 2.281 6.58 5.095 8.165 81.936 46.325 163.874-52.464 245.81-6.14 2.814 1.587 5.095.793 5.095-2.024V42.03c0-2.811-2.281-6.578-5.095-8.166-.848-.479-1.696-.943-2.544-1.392z"/><path style="fill:#090;fill-opacity:1" d="M248.36 37.567c0 1.854-14.891-10.205-37.309-11.054-22.416-2.352-52.355 6.506-82.452 15.426C98.502 50.84 68.251 59.83 45.21 57.5 22.17 56.646 6.343 44.472 5.095 45.1v171.941c1.235-.802 16.907 11.481 39.798 12.395 22.89 2.4 52.999-6.569 83.107-15.507 30.11-8.93 60.219-17.857 83.108-15.438 22.89.933 38.563 13.21 39.797 12.41V38.958c-1.274-.722-2.544-1.392-2.544-1.392z"/><path style="fill:none" d="M0 256V0h256v256"/><path style="fill:#fff;fill-opacity:1" d="M1.781 11.406v19.657c5.471 2.803 10.764 3.43 18.813 1.656V13.156c-6.302 1.42-12.375 1.587-18.813-1.75z" transform="scale(4.26667)"/><path d="M27.628 123.535 45.12 71.572l17.493 55.558-45.653-37.97 56.747 5.83" style="fill:#090;fill-opacity:1"/><g style="display:inline"><path d="M248.36 206.96c-80.24-42.452-160.48 51.377-240.72 8.925V49.04c80.24 42.45 160.48-51.378 240.72-8.925V206.96z" style="fill:url(#g)"/></g></svg>