<svg xmlns="http://www.w3.org/2000/svg" xmlns:xlink="http://www.w3.org/1999/xlink" version="1.0" width="64" height="64" viewBox="0 0 256 256" xml:space="preserve"><defs><linearGradient x1="87.397" y1="141.973" x2="240.947" y2="141.973" id="a" gradientUnits="userSpaceOnUse" gradientTransform="translate(-129.37 -94.568) scale(1.56769)"><stop style="stop-color:#fff;stop-opacity:.66666675" offset="0"/><stop style="stop-color:#d7d7d7;stop-opacity:.21875" offset=".241"/><stop style="stop-color:#4d4d4d;stop-opacity:0" offset=".459"/><stop style="stop-color:#fff;stop-opacity:.51041669" offset=".719"/><stop style="stop-color:#f2f2f2;stop-opacity:.40000001" offset=".874"/><stop style="stop-color:#fff;stop-opacity:.62352943" offset="1"/></linearGradient><linearGradient xlink:href="#a" id="b" gradientUnits="userSpaceOnUse" gradientTransform="translate(-129.371 -94.57) scale(1.56769)" x1="87.397" y1="141.973" x2="269.333" y2="141.973"/></defs><path style="fill:none" d="M0 256V0h256v256"/><path d="M248.36 32.472C167.273-10.43 86.184 85.849 5.096 40.005 2.281 38.417 0 39.213 0 42.03v171.94c0 2.811 2.281 6.58 5.095 8.165 81.936 46.325 163.874-52.464 245.81-6.14 2.814 1.587 5.095.793 5.095-2.024V42.03c0-2.811-2.281-6.578-5.095-8.166-.848-.479-1.696-.943-2.544-1.392z" style="fill:#4d4d4d;fill-opacity:1"/><path d="M248.36 37.567c0 1.854-14.891-10.205-37.309-11.054-22.416-2.352-52.355 6.506-82.452 15.426C98.502 50.84 68.251 59.83 45.21 57.5 22.17 56.646 6.343 44.472 5.095 45.1v171.941c1.235-.802 16.907 11.481 39.798 12.395 22.89 2.4 52.999-6.569 83.107-15.507 30.11-8.93 60.219-17.857 83.108-15.438 22.89.933 38.563 13.21 39.797 12.41V38.958c-1.274-.722-2.544-1.392-2.544-1.392z" style="fill:#fff;fill-opacity:1"/><path style="fill:none;stroke:#00f;stroke-width:1.59999998" d="M20.858 24.754a8.16 10.892 40.877 1 1 0 .314m6.284-1.822a8.16 10.892 40.877 1 1 0-.314" transform="matrix(5.33333 0 0 5.33333 0 0)"/><g style="fill:red"><path style="fill:red;fill-opacity:1" d="M21.643 13.685 24 12.059l2.357.26L24 9.23zm0 21.996 2.357.26 2.357-1.626L24 38.77" transform="matrix(5.33333 0 0 5.33333 0 0)"/><path d="M24 11.43v25.14" style="fill:red;stroke:red;stroke-width:1.59999998;stroke-opacity:1" transform="matrix(5.33333 0 0 5.33333 0 0)"/><path style="fill:red;fill-opacity:1" d="m7.134 24.493-.92 2.128.92 2.586-3.68-3.271zM40.866 18.95l.92 2.583-.92 2.13 3.68-1.453z" transform="matrix(5.33333 0 0 5.33333 0 0)"/><path d="M38.094 20.2C27.429 20.13 16.684 27.892 6 25.573v1.84c11.967 2.623 23.972-7.683 36-5.03v-1.778a18.597 18.597 0 0 0-3.906-.407z" style="fill:red" transform="matrix(5.33333 0 0 5.33333 0 0)"/></g><path d="M248.36 206.96c-80.24-42.452-160.48 51.377-240.72 8.925V49.04c80.24 42.45 160.48-51.378 240.72-8.925V206.96z" style="fill:url(#b)"/></svg>