<svg xmlns="http://www.w3.org/2000/svg" width="242.598" height="242.598" viewBox="0 0 227.435 227.435"><path d="M102.25 48.254c-17.2 0-31.143 13.943-31.143 31.143 0 17.2 13.943 31.142 31.143 31.142 17.2 0 31.143-13.942 31.143-31.142S119.45 48.254 102.25 48.254z" style="fill:#8f5444;fill-rule:evenodd" transform="translate(-29.813 -37.183)"/><path d="M72.027 78.477c-17.2 0-31.142 13.943-31.142 31.143 0 17.2 13.942 31.142 31.142 31.142s31.143-13.942 31.143-31.142-13.943-31.143-31.143-31.143Z" style="fill:#901d77;fill-rule:evenodd" transform="translate(-29.813 -37.183)"/><path d="M60.956 119.758c-17.2 0-31.143 13.943-31.143 31.143 0 17.2 13.943 31.143 31.143 31.143 17.2 0 31.143-13.943 31.143-31.143 0-17.2-13.943-31.143-31.143-31.143z" style="fill:#6c609e;fill-rule:evenodd" transform="translate(-29.813 -37.183)"/><path d="M72.027 161.04c-17.2 0-31.143 13.942-31.143 31.142s13.943 31.143 31.143 31.143c17.2 0 31.143-13.943 31.143-31.143 0-17.2-13.943-31.142-31.143-31.142z" style="fill:#29166e;fill-rule:evenodd" transform="translate(-29.813 -37.183)"/><path d="M102.25 191.262c-17.2 0-31.143 13.943-31.143 31.143 0 17.2 13.943 31.142 31.143 31.142 17.2 0 31.143-13.942 31.143-31.142s-13.943-31.143-31.143-31.143z" style="fill:#007cc2;fill-rule:evenodd" transform="translate(-29.813 -37.183)"/><path d="M143.531 202.333a31.143 31.143 0 0 1 31.143 31.143 31.143 31.143 0 1 1-31.143-31.143z" style="fill:#76c5ef;fill-rule:evenodd" transform="translate(-29.813 -37.183)"/><path d="M184.812 191.262c17.2 0 31.143 13.943 31.143 31.143 0 17.2-13.943 31.142-31.143 31.142-17.2 0-31.143-13.942-31.143-31.142s13.943-31.143 31.143-31.143z" style="fill:#00923f;fill-rule:evenodd" transform="translate(-29.813 -37.183)"/><path d="M215.035 161.04c17.2 0 31.143 13.942 31.143 31.142s-13.943 31.143-31.143 31.143c-17.2 0-31.143-13.943-31.143-31.143 0-17.2 13.943-31.142 31.143-31.142z" style="fill:#85c226;fill-rule:evenodd" transform="translate(-29.813 -37.183)"/><path d="M226.106 119.758c17.2 0 31.143 13.943 31.143 31.143 0 17.2-13.943 31.143-31.143 31.143-17.2 0-31.143-13.943-31.143-31.143 0-17.2 13.943-31.143 31.143-31.143z" style="fill:#b6dc7b;fill-rule:evenodd" transform="translate(-29.813 -37.183)"/><path d="M215.035 78.477c17.2 0 31.142 13.943 31.142 31.143 0 17.2-13.943 31.142-31.142 31.142-17.2 0-31.143-13.942-31.143-31.142s13.943-31.143 31.143-31.143z" style="fill:#fef400;fill-rule:evenodd" transform="translate(-29.813 -37.183)"/><path d="M184.812 48.254c17.2 0 31.143 13.943 31.143 31.143 0 17.2-13.943 31.142-31.143 31.142-17.2 0-31.143-13.942-31.143-31.142s13.943-31.143 31.143-31.143z" style="fill:#e67717;fill-rule:evenodd" transform="translate(-29.813 -37.183)"/><path d="M143.53 37.183c17.2 0 31.144 13.943 31.144 31.143 0 17.2-13.943 31.143-31.143 31.143a31.003 31.003 0 0 1-14.773-3.721 30.995 30.995 0 0 0 4.635-16.351c0-11.854-6.623-22.16-16.37-27.422 5.487-8.876 15.306-14.792 26.508-14.792z" style="fill:#da251b;fill-rule:evenodd" transform="translate(-29.813 -37.183)"/><path style="fill:#fff;fill-rule:evenodd" d="M143.531 70.012a80.486 80.889 0 0 1 80.486 80.889 80.486 80.889 0 1 1-80.486-80.889Z" transform="translate(-29.813 -37.183)"/><path style="fill:#39acda;fill-rule:evenodd" d="M110.693 80.392c-2.062 1.488-6.103 3.29-8.576 4.828-6.636 4.13-12.878 9.838-17.864 15.864l-2.37 2.705c-.472.394-.052.217-.746.46-.631 2.025-2.58 4.286-3.817 6.324-10.873 17.903-11.847 33.85-10.007 54.172l4.626 16.854c5.608 7.983 5.04 12.086 16.605 24.124 3.767 3.92 6.645 6.098 10.594 9.106l13.035 7.565c3.22 1.305 6.583 2.309 10.133 3.44 2.11.519 9.818 2.678 11.778 2.6 7.82-.036 22.046.11 29.3-1.876 2.424-.664 5.89-2.158 8.017-2.312.281-.241 11.654-5.371 16.656-9.057 4.076-3.003 11.493-8.986 13.812-12.612l2.143-2.336c1.03-1.142 1.542-1.824 2.306-2.88 4.198-5.811 8.315-13.165 10.718-20.176 5.036-14.691 2.986-21.944 3.294-37.84.365-3.831-2.32-11.282-3.486-14.565-1.288-6.425-7.287-15.494-10.57-19.879-2.188-2.922-4.32-5.477-6.785-8.25-2.033-2.29-6.557-5.174-7.786-7.364-1.424-.358-2.618-1.882-3.706-2.684l-12.172-6.592c-4.145-1.988-14.256-5.585-19.088-5.763-4.647-.28-7.414-.885-12.622-.883-5.258.002-7.949.19-12.645.754-7.744.93-14.47 3.847-20.777 6.273z" transform="translate(-29.813 -37.183)"/><path style="fill:#fdfdff;fill-rule:evenodd" d="m145.865 175.47.216 11.137c6.566.688 26.892.289 34.582.206 2.813-3.988 8.187-27.467 5.782-33.046l-36.753-.036c-3.874.046-3.2.365-3.372 4.472-.237 5.652-.434 11.617-.455 17.267zM106.266 186.81l28.01.579c5.512.003 5.244 2.14 5.241-12.388l-.11-21.074c-4.203-.083-38.636-.916-39.601.662-.687 1.123.454 10.34.69 12.01.526 3.724 1.185 7.141 1.951 10.65.436 1.995.807 3.4 1.4 5.2 1.056 3.216.844 3.391 2.419 4.361zM146.625 146.242c6.462.94 34.06 1.398 39.88-.054 1.39-8.255-2.825-23.04-5.022-30.08l-34.893-.112c-.232 5.62-.977 26.049.035 30.246zM99.72 146.34c13.138.635 26.318.451 39.474.322l.565-26.01c-.001-6.12-.567-4.895-14.854-4.86l-19.287.22c-3.212 4.455-6.448 23.088-5.898 30.327zM194.502 153.693c-1.458 3.426-1.711 12.327-2.417 16.827-.776 4.942-3.179 12.28-3.21 16.31 3.33.105 6.724.052 10.06.026 4.478-.036 5.673.56 7.884-2.56 2.507-3.54 4.425-9.666 5.685-14.438l2.373-12.665c.184-2.429.482-3.321-1.338-3.916-2.159-.705-16.75-.238-19.037.416zM108.75 109.135c6.137.08 25.88.685 30.641-.666 1.285-2.391 1.298-24.153.66-27.855-11.378-3.256-32.78 22.17-31.3 28.521zM90.702 187.413l6.902-.341c.455-1.943-2.49-13.132-2.996-15.96-3.324-18.571 1.678-17.557-11.403-17.542-10.074.012-10.697-.471-10.225 5.014.646 7.5 3.58 17.524 6.839 24.018 2.713 5.408 3.868 4.806 10.883 4.811zM146.165 221.68c12.267 1.585 29.25-17.75 31.516-27.346-3.85-1.058-24.84-1.164-29.354-.562-2.336.31-2.114-.254-2.341 5.11-.21 4.975-.52 19.195.179 22.799zM146.745 108.186c3.72 1.663 26.026 1.047 31.276.487-.628-8.153-19.93-30.086-30.157-28.215-1.558 2.428-1.692 23.635-1.119 27.728zM188.75 116.091c-.147 1.447 2.58 11.956 3.152 14.406 1.952 8.362-.707 15.196 4.075 16.08.594.11 1.36.127 2.038.17 18.101 1.135 17.314.171 16.151-7.064-1.018-6.334-4.508-17.933-7.58-22.465-1.78-2.63-4.485-1.957-8.12-1.898-3.357.055-6.56.169-9.716.771zM73.725 146.961c3.193.784 15.668.921 18.383-.389 1.306-1.78 2.53-16.147 3.277-19.835.466-2.298 2.157-7.795 2.299-9.092.307-2.811-4.027-1.866-9.794-1.879-6.67-.013-7.666.441-11.337 11.808-1.777 5.502-4.845 13.318-2.828 19.387zM108.825 194.68c.145 1.954 3.843 7.66 4.945 9.268 2.244 3.276 3.841 5.127 6.378 7.668 2.22 2.224 12.7 11.962 18.297 9.302 1.255-1.159.801-17.422.742-21.084-.086-5.282.476-5.826-1.596-6.228-1.519-.296-28.121.777-28.766 1.074zM200.568 108.694c-.37-2.901-9.763-11.542-12.236-13.516-3.174-2.534-11.72-8.544-16.59-9.888.514 1.697 7.442 10.792 10.383 16.083 1.565 2.817 3.249 7.16 5.574 7.536 1.904.307 10.863.11 12.87-.215zM171.374 217.042c7.637-1.176 27.796-18.904 28.58-22.134l-.024-.786c-2.473-1.053-9.615-.89-12.665-.32-2.58.481-6.41 9.886-10.574 15.644-1.437 1.988-4.767 5.73-5.317 7.596zM86.981 108.938c2.008.91 9.347.914 11.645.427 2.689-.57 6.515-9.738 10.16-15.129 1.331-1.967 4.497-5.538 4.973-7.746-4.566 1.313-12.284 6.818-15.112 9.315-2.45 2.162-11.23 9.815-11.666 13.133zM114.046 215.357c-.855-2.096-6.46-8.351-9.375-14.027-3.549-6.91-2.987-8.56-16.78-6.991.218 2.9 8.676 10.182 11.01 12.282 2.148 1.936 11.143 8.608 15.145 8.736z" transform="translate(-29.813 -37.183)"/><path style="fill:none" d="M143.531 73.23a77.67 77.67 0 0 1 77.67 77.67 77.67 77.67 0 1 1-77.67-77.67Z" transform="translate(-29.813 -37.183)"/><path style="fill:none" d="M143.531 73.23a77.67 77.67 0 0 0-77.67 77.67 77.67 77.67 0 1 0 77.67-77.67Z" transform="translate(-29.813 -37.183)"/></svg>