<svg xmlns="http://www.w3.org/2000/svg" xmlns:xlink="http://www.w3.org/1999/xlink" version="1.0" width="64" height="64" viewBox="0 0 256 256" xml:space="preserve"><defs><linearGradient x1="87.397" y1="141.973" x2="240.947" y2="141.973" id="a" gradientUnits="userSpaceOnUse" gradientTransform="translate(-129.37 -94.568) scale(1.56769)"><stop style="stop-color:#fff;stop-opacity:.66666675" offset="0"/><stop style="stop-color:#d7d7d7;stop-opacity:.21875" offset=".241"/><stop style="stop-color:#4d4d4d;stop-opacity:0" offset=".459"/><stop style="stop-color:#fff;stop-opacity:.51041669" offset=".719"/><stop style="stop-color:#f2f2f2;stop-opacity:.40000001" offset=".874"/><stop style="stop-color:#fff;stop-opacity:.62352943" offset="1"/></linearGradient><linearGradient x1="87.397" y1="141.973" x2="269.333" y2="141.973" id="g" xlink:href="#a" gradientUnits="userSpaceOnUse" gradientTransform="translate(-129.371 -94.57) scale(1.56769)"/><linearGradient xlink:href="#a" id="h" gradientUnits="userSpaceOnUse" gradientTransform="translate(-129.371 -94.57) scale(1.56769)" x1="87.397" y1="141.973" x2="269.333" y2="141.973"/><linearGradient gradientTransform="translate(-69.826 15.227) scale(1.56769)" x1="124.664" y1="19.659" x2="126.189" y2="122.018" id="d" gradientUnits="userSpaceOnUse"><stop style="stop-color:#034da2;stop-opacity:1" offset="0"/><stop style="stop-color:#034da2;stop-opacity:1" offset=".155"/><stop style="stop-color:#ed1d25;stop-opacity:1" offset=".255"/><stop style="stop-color:#ed1d25;stop-opacity:1" offset=".75"/><stop style="stop-color:#034da2;stop-opacity:1" offset=".85"/><stop style="stop-color:#034da2;stop-opacity:1" offset="1"/></linearGradient><linearGradient x1="1.791" y1="30" x2="58.209" y2="30" id="i" xlink:href="#e" gradientUnits="userSpaceOnUse" gradientTransform="translate(0 .252)"/><linearGradient id="e"><stop style="stop-color:#fff;stop-opacity:.88235295" offset="0"/><stop style="stop-color:#fff;stop-opacity:0" offset=".191"/><stop style="stop-color:#fff;stop-opacity:1" offset=".653"/><stop style="stop-color:#fff;stop-opacity:0" offset=".821"/><stop style="stop-color:#fff;stop-opacity:.60714287" offset="1"/></linearGradient><linearGradient x1="1.791" y1="30" x2="58.209" y2="30" id="j" xlink:href="#f" gradientUnits="userSpaceOnUse" gradientTransform="translate(0 .252)"/><linearGradient id="f"><stop style="stop-color:#000;stop-opacity:0" offset="0"/><stop style="stop-color:#000;stop-opacity:.84523809" offset=".191"/><stop style="stop-color:#000;stop-opacity:0" offset=".653"/><stop style="stop-color:#000;stop-opacity:.61057693" offset=".821"/><stop style="stop-color:#000;stop-opacity:0" offset="1"/></linearGradient><g id="c"><path id="b" transform="rotate(18 3.157 -.5)" d="M0 0v1h.5z"/><use xlink:href="#b" transform="scale(-1 1)"/></g></defs><g style="display:inline"><path style="fill:url(#g)" d="M248.36 206.96c-80.24-42.452-160.48 51.377-240.72 8.925V48.631C87.982 90.163 169.345-2.03 248.36 40.115V206.96z"/></g><g style="display:inline"><path style="opacity:1;fill:url(#h);display:inline" d="M248.36 206.96c-80.24-42.452-160.48 51.377-240.72 8.925V48.631C87.982 90.163 169.345-2.03 248.36 40.115V206.96z"/></g><path d="M203.2 27.276c-5.144-.06-10.225.25-15.333.8C157.215 31.382 127.03 44.243 97.2 52.21c-29.83 7.966-59.1 11.1-88.4-4.4a2.692 2.692 0 0 0-3.867 2.4v166.8a2.692 2.692 0 0 0 1.467 2.4c41.172 21.78 82.26 8.579 122.4-4.267s79.333-25.336 118.4-4.667a2.692 2.692 0 0 0 3.867-2.4v-166.8a2.692 2.692 0 0 0-1.467-2.4c-15.442-8.17-30.967-11.417-46.4-11.6z" style="fill:#ff3018;fill-opacity:1;stroke:#4d4d4d;stroke-width:4.26666689;stroke-miterlimit:4;stroke-opacity:1;stroke-dasharray:none"/><path d="M47.625 7.688a29.591 29.591 0 0 0-3.469.187c-6.91.745-13.914 3.724-21.031 5.625-6.789 1.813-13.737 2.572-20.656-.688v37.594c9.013 4.562 18.032 1.72 27.312-1.25 9.083-2.906 18.415-5.837 27.75-1.437V10.094c-3.3-1.671-6.59-2.37-9.906-2.406z" style="opacity:.71052635;fill:url(#i);fill-opacity:1" transform="matrix(4.26667 0 0 4.26667 0 .113)"/><path d="M47.625 7.688a29.585 29.585 0 0 0-3.469.187c-6.91.745-13.914 3.724-21.031 5.625-6.79 1.813-13.735 2.544-20.656-.719v37.625c9.014 4.563 18.032 1.72 27.312-1.25 9.083-2.906 18.417-5.836 27.75-1.437V10.094c-3.302-1.672-6.59-2.37-9.906-2.406z" style="opacity:.2842105;fill:url(#j);fill-opacity:1" transform="matrix(4.26667 0 0 4.26667 0 .113)"/><g style="font-size:40px;font-style:normal;font-weight:400;line-height:125%;letter-spacing:0;word-spacing:0;fill:#000;fill-opacity:1;stroke:none;font-family:Sans"><path d="m3.766 21.894 1.986 1.18h7.424V19.81c0-.937-.036-1.743-.107-2.419 1.272.114 2.259.31 2.96.587.376.162.564.379.564.652 0 .306-.189.5-.565.58a2.626 2.626 0 0 1-.963.289v3.576h7.58l.928-1.18c.859.424 1.434.826 1.725 1.209.202.176.303.356.303.54 0 .279-.358.624-1.073 1.034v7.003c.169.145.361.298.578.46.169.135.254.278.254.43 0 .451-.172.676-.516.676h-9.78v7.152c0 .377.016.627.047.75.04.363.06.641.06.833 0 .772-.377 1.158-1.13 1.158-.649 0-.972-.234-.972-.703 0-.401.018-.897.053-1.487a28.95 28.95 0 0 0 .054-1.623v-6.08H5.734v.585c0 .396-.27.595-.81.595-.205 0-.47-.058-.795-.174-.242-.242-.363-.517-.363-.824 0-.333.018-.766.055-1.298.089-.407.133-1.27.133-2.589v-5.576c0-.648-.063-1.339-.188-2.07zm1.968 10.08h7.442v-7.602H5.734zm9.33-7.602v7.603h7.683v-7.603zM39.736 17.578a12.38 12.38 0 0 1 1.71 1.286c.504.378.901.748 1.191 1.111.366.385.607.721.722 1.01.144.267.216.554.216.862 0 .381-.067.694-.201.939-.098.17-.174.123-.228-.14h8.125l1.47-1.636c.871.594 1.627 1.14 2.27 1.64.222.166.334.363.334.59 0 .45-.235.676-.704.676h-5.504a26.178 26.178 0 0 1-1.264 4.862 11.691 11.691 0 0 1-2.44 4.368c-.609.93-1.246 1.712-1.912 2.347.58.406 1.205.851 1.873 1.335 1.246.83 2.665 1.61 4.259 2.337 1.69.65 3.694 1.232 6.013 1.746v.915c-.82.078-1.398.408-1.731.99-2.354-.731-4.366-1.505-6.035-2.321-1.485-.699-2.808-1.53-3.968-2.493-.652-.485-1.17-.962-1.554-1.432-.072.151-.218.328-.439.53-1.31 1.094-2.877 2.08-4.702 2.96-2.11 1.073-4.64 2.028-7.594 2.864l-.61-.967c3.23-1.144 5.687-2.152 7.372-3.022 1.88-1.186 3.433-2.312 4.661-3.379.104-.089.176-.127.218-.114-.266-.254-.5-.511-.702-.772-1.22-1.46-2.187-3.002-2.9-4.625-.741-1.5-1.193-3.036-1.358-4.606l1.027-.327c.44 1.841 1.069 3.485 1.887 4.93.8 1.546 1.723 2.886 2.769 4.02.2.2.3.336.3.406a40.108 40.108 0 0 0 1.679-2.06c.858-1.18 1.562-2.55 2.112-4.107.438-1.26.8-2.722 1.084-4.385h-14.31c-1.241.017-2.173.053-2.796.108l-.615-1.727c.998.232 2.135.349 3.411.349h9.029c.02.277.025.41.013.398-.15-.101-.278-.361-.383-.78-.12-.482-.3-.925-.535-1.33a7.625 7.625 0 0 0-.781-1.256c-.267-.408-.679-.918-1.236-1.53z" style="font-size:28px;font-variant:normal;font-weight:700;font-stretch:normal;font-family:Sans;-inkscape-font-specification:Sans Bold" transform="translate(20.756 19.924) scale(3.60898)"/></g></svg>