<svg xmlns="http://www.w3.org/2000/svg" xmlns:xlink="http://www.w3.org/1999/xlink" version="1.0" width="64" height="64" viewBox="0 0 256 256" xml:space="preserve"><defs><linearGradient x1="87.397" y1="141.973" x2="240.947" y2="141.973" id="a" gradientUnits="userSpaceOnUse" gradientTransform="translate(-129.37 -94.568) scale(1.56769)"><stop style="stop-color:#fff;stop-opacity:.66666675" offset="0"/><stop style="stop-color:#d7d7d7;stop-opacity:.21875" offset=".241"/><stop style="stop-color:#4d4d4d;stop-opacity:0" offset=".459"/><stop style="stop-color:#fff;stop-opacity:.51041669" offset=".719"/><stop style="stop-color:#f2f2f2;stop-opacity:.40000001" offset=".874"/><stop style="stop-color:#fff;stop-opacity:.62352943" offset="1"/></linearGradient><linearGradient gradientTransform="translate(-69.826 15.227) scale(1.56769)" x1="124.664" y1="19.659" x2="126.189" y2="122.018" id="d" gradientUnits="userSpaceOnUse"><stop style="stop-color:#034da2;stop-opacity:1" offset="0"/><stop style="stop-color:#034da2;stop-opacity:1" offset=".155"/><stop style="stop-color:#ed1d25;stop-opacity:1" offset=".255"/><stop style="stop-color:#ed1d25;stop-opacity:1" offset=".75"/><stop style="stop-color:#034da2;stop-opacity:1" offset=".85"/><stop style="stop-color:#034da2;stop-opacity:1" offset="1"/></linearGradient><linearGradient id="e"><stop style="stop-color:#fff;stop-opacity:.88235295" offset="0"/><stop style="stop-color:#fff;stop-opacity:0" offset=".191"/><stop style="stop-color:#fff;stop-opacity:1" offset=".653"/><stop style="stop-color:#fff;stop-opacity:0" offset=".821"/><stop style="stop-color:#fff;stop-opacity:.60714287" offset="1"/></linearGradient><linearGradient id="f"><stop style="stop-color:#000;stop-opacity:0" offset="0"/><stop style="stop-color:#000;stop-opacity:.84523809" offset=".191"/><stop style="stop-color:#000;stop-opacity:0" offset=".653"/><stop style="stop-color:#000;stop-opacity:.61057693" offset=".821"/><stop style="stop-color:#000;stop-opacity:0" offset="1"/></linearGradient><linearGradient x1="1.791" y1="30" x2="58.209" y2="30" id="i" xlink:href="#g" gradientUnits="userSpaceOnUse" gradientTransform="translate(0 .252)"/><linearGradient id="g"><stop style="stop-color:#fff;stop-opacity:.88235295" offset="0"/><stop style="stop-color:#fff;stop-opacity:0" offset=".191"/><stop style="stop-color:#fff;stop-opacity:1" offset=".653"/><stop style="stop-color:#fff;stop-opacity:0" offset=".821"/><stop style="stop-color:#fff;stop-opacity:.60714287" offset="1"/></linearGradient><linearGradient x1="1.791" y1="30" x2="58.209" y2="30" id="j" xlink:href="#h" gradientUnits="userSpaceOnUse" gradientTransform="translate(0 .252)"/><linearGradient id="h"><stop style="stop-color:#000;stop-opacity:0" offset="0"/><stop style="stop-color:#000;stop-opacity:.84523809" offset=".191"/><stop style="stop-color:#000;stop-opacity:0" offset=".653"/><stop style="stop-color:#000;stop-opacity:.61057693" offset=".821"/><stop style="stop-color:#000;stop-opacity:0" offset="1"/></linearGradient><g id="c"><path id="b" transform="rotate(18 3.157 -.5)" d="M0 0v1h.5z"/><use xlink:href="#b" transform="scale(-1 1)"/></g></defs><path d="M203.2 26.128c-5.144-.06-10.225.25-15.333.8-30.652 3.306-60.836 16.167-90.667 24.133-29.83 7.967-59.1 11.101-88.4-4.4a2.692 2.692 0 0 0-3.867 2.4v166.8a2.692 2.692 0 0 0 1.467 2.4c41.172 21.782 82.26 8.58 122.4-4.266s79.333-25.336 118.4-4.667a2.692 2.692 0 0 0 3.867-2.4v-166.8a2.692 2.692 0 0 0-1.467-2.4c-15.442-8.17-30.967-11.417-46.4-11.6z" style="fill:#feffd1;fill-opacity:1;stroke:#4d4d4d;stroke-width:4.26666689;stroke-miterlimit:4;stroke-opacity:1;stroke-dasharray:none"/><path d="M47.625 7.688a29.591 29.591 0 0 0-3.469.187c-6.91.745-13.914 3.724-21.031 5.625-6.789 1.813-13.737 2.572-20.656-.688v37.594c9.013 4.562 18.032 1.72 27.312-1.25 9.083-2.906 18.415-5.837 27.75-1.437V10.094c-3.3-1.671-6.59-2.37-9.906-2.406z" style="opacity:.71052635;fill:url(#i);fill-opacity:1" transform="matrix(4.26667 0 0 4.26667 0 -1.035)"/><path d="M47.625 7.688a29.585 29.585 0 0 0-3.469.187c-6.91.745-13.914 3.724-21.031 5.625-6.79 1.813-13.735 2.544-20.656-.719v37.625c9.014 4.563 18.032 1.72 27.312-1.25 9.083-2.906 18.417-5.836 27.75-1.437V10.094c-3.302-1.672-6.59-2.37-9.906-2.406z" style="opacity:.2842105;fill:url(#j);fill-opacity:1" transform="matrix(4.26667 0 0 4.26667 0 -1.035)"/><g style="font-size:40px;font-style:normal;font-weight:400;line-height:125%;letter-spacing:0;word-spacing:0;fill:#000;fill-opacity:1;stroke:none;font-family:Sans"><path d="M5.946 28.911h1.611c.607 0 1.068-.164 1.386-.491.317-.328.476-.8.476-1.42 0-.622-.159-1.096-.476-1.421-.318-.326-.78-.489-1.386-.489H5.946zM3.547 33.55v-.647h1.16V25.09h-1.16v-.653h4.31c.91 0 1.633.231 2.166.693.533.462.8 1.085.8 1.87 0 .782-.267 1.404-.8 1.868-.533.464-1.255.696-2.167.696h-1.91v3.339h1.41v.647zM14.174 34.74l.427-1.08-2.423-5.945h-.739v-.653h2.985v.653h-1.038l1.825 4.461 1.825-4.461h-.97v-.653H18.5v.653h-.726l-2.973 7.3c-.203.504-.429.849-.677 1.034-.248.185-.598.278-1.05.278a3.69 3.69 0 0 1-.589-.049 4.752 4.752 0 0 1-.607-.14v-1.24h.573c.025.277.095.476.211.596.116.12.296.18.54.18.224 0 .404-.062.54-.186.137-.125.28-.374.43-.748zM25.056 31.603c-.159.691-.464 1.218-.915 1.58-.452.363-1.036.544-1.752.544-.944 0-1.703-.313-2.277-.937-.573-.625-.86-1.454-.86-2.487 0-1.038.287-1.867.86-2.488.574-.62 1.333-.93 2.277-.93.41 0 .82.048 1.227.143.407.096.816.241 1.227.437v1.66h-.654c-.085-.57-.271-.985-.558-1.245-.287-.26-.697-.391-1.23-.391-.606 0-1.064.235-1.373.705-.31.47-.464 1.173-.464 2.109 0 .936.154 1.64.46 2.111.308.472.767.708 1.377.708.484 0 .87-.126 1.16-.378.289-.252.486-.633.592-1.141zM32.063 31.603c-.159.691-.464 1.218-.916 1.58-.451.363-1.035.544-1.751.544-.944 0-1.703-.313-2.277-.937-.574-.625-.86-1.454-.86-2.487 0-1.038.286-1.867.86-2.488.574-.62 1.333-.93 2.277-.93.41 0 .82.048 1.227.143.406.096.815.241 1.226.437v1.66h-.653c-.085-.57-.271-.985-.558-1.245-.287-.26-.697-.391-1.23-.391-.606 0-1.064.235-1.373.705-.31.47-.464 1.173-.464 2.109 0 .936.153 1.64.46 2.111.308.472.767.708 1.377.708.484 0 .87-.126 1.16-.378.289-.252.486-.633.592-1.141zM36.22 27.062v.647h-1.014v2.527l2.735-2.527h-.934v-.647h2.936v.647h-1.111l-1.929 1.788 2.466 3.406h.934v.647h-3.199v-.647h.928l-1.94-2.667-.886.823v1.844h1.013v.647H33.07v-.647h1.013v-5.194H33.07v-.647zM40.883 33.55v-.647h1.013v-5.194h-1.013v-.647h3.149v.647h-1.013v3.723l2.972-3.143v-.58h-1.013v-.647h3.15v.647h-1.014v5.194h1.013v.647h-3.149v-.647h1.013v-3.626l-2.972 3.144v.482h1.013v.647zM50.947 24.67c0-.11.05-.214.147-.312a.482.482 0 0 1 .354-.147c.138 0 .256.05.354.147.097.097.146.22.146.366 0 .147-.05.267-.152.36.203.143.557.214 1.062.214.504 0 .858-.071 1.062-.214a.467.467 0 0 1-.153-.36.497.497 0 0 1 .5-.513c.139 0 .257.05.355.147a.438.438 0 0 1 .146.311c0 .11-.053.33-.159.662-.105.332-.69.498-1.751.498-1.062 0-1.646-.166-1.752-.498-.106-.331-.159-.552-.159-.662zm-1.74 8.88v-.647h1.014v-5.194h-1.013v-.647h3.15v.647h-1.014v3.723l2.972-3.143v-.58h-1.013v-.647h3.15v.647h-1.014v5.194h1.014v.647h-3.15v-.647h1.013v-3.626l-2.972 3.144v.482h1.013v.647z" style="font-size:12.5px;font-variant:normal;font-stretch:normal;font-family:DejaVu Serif;-inkscape-font-specification:DejaVu Serif" transform="matrix(4.26667 0 0 4.26667 0 -1.148)"/></g></svg>