<svg xmlns="http://www.w3.org/2000/svg" xmlns:xlink="http://www.w3.org/1999/xlink" version="1.0" width="64" height="64" viewBox="0 0 256 256" xml:space="preserve"><defs><linearGradient x1="87.397" y1="141.973" x2="240.947" y2="141.973" id="a" gradientUnits="userSpaceOnUse" gradientTransform="translate(-129.37 -94.568) scale(1.56769)"><stop style="stop-color:#fff;stop-opacity:.66666675" offset="0"/><stop style="stop-color:#d7d7d7;stop-opacity:.21875" offset=".241"/><stop style="stop-color:#4d4d4d;stop-opacity:0" offset=".459"/><stop style="stop-color:#fff;stop-opacity:.51041669" offset=".719"/><stop style="stop-color:#f2f2f2;stop-opacity:.40000001" offset=".874"/><stop style="stop-color:#fff;stop-opacity:.62352943" offset="1"/></linearGradient><linearGradient gradientTransform="translate(-69.826 15.227) scale(1.56769)" x1="124.664" y1="19.659" x2="126.189" y2="122.018" id="d" gradientUnits="userSpaceOnUse"><stop style="stop-color:#034da2;stop-opacity:1" offset="0"/><stop style="stop-color:#034da2;stop-opacity:1" offset=".155"/><stop style="stop-color:#ed1d25;stop-opacity:1" offset=".255"/><stop style="stop-color:#ed1d25;stop-opacity:1" offset=".75"/><stop style="stop-color:#034da2;stop-opacity:1" offset=".85"/><stop style="stop-color:#034da2;stop-opacity:1" offset="1"/></linearGradient><linearGradient x1="1.791" y1="30" x2="58.209" y2="30" id="g" xlink:href="#e" gradientUnits="userSpaceOnUse" gradientTransform="translate(0 .252)"/><linearGradient id="e"><stop style="stop-color:#fff;stop-opacity:.88235295" offset="0"/><stop style="stop-color:#fff;stop-opacity:0" offset=".191"/><stop style="stop-color:#fff;stop-opacity:1" offset=".653"/><stop style="stop-color:#fff;stop-opacity:0" offset=".821"/><stop style="stop-color:#fff;stop-opacity:.60714287" offset="1"/></linearGradient><linearGradient x1="1.791" y1="30" x2="58.209" y2="30" id="h" xlink:href="#f" gradientUnits="userSpaceOnUse" gradientTransform="translate(0 .252)"/><linearGradient id="f"><stop style="stop-color:#000;stop-opacity:0" offset="0"/><stop style="stop-color:#000;stop-opacity:.84523809" offset=".191"/><stop style="stop-color:#000;stop-opacity:0" offset=".653"/><stop style="stop-color:#000;stop-opacity:.61057693" offset=".821"/><stop style="stop-color:#000;stop-opacity:0" offset="1"/></linearGradient><g id="c"><path id="b" transform="rotate(18 3.157 -.5)" d="M0 0v1h.5z"/><use xlink:href="#b" transform="scale(-1 1)"/></g></defs><path d="M203.2 26.128c-5.144-.06-10.225.25-15.333.8-30.652 3.306-60.836 16.167-90.667 24.133-29.83 7.967-59.1 11.101-88.4-4.4a2.692 2.692 0 0 0-3.867 2.4v166.8a2.692 2.692 0 0 0 1.467 2.4c41.172 21.782 82.26 8.58 122.4-4.266s79.333-25.336 118.4-4.667a2.692 2.692 0 0 0 3.867-2.4v-166.8a2.692 2.692 0 0 0-1.467-2.4c-15.442-8.17-30.967-11.417-46.4-11.6z" style="fill:#fff;fill-opacity:1;stroke:#4d4d4d;stroke-width:4.26666689;stroke-miterlimit:4;stroke-opacity:1;stroke-dasharray:none"/><path d="M47.625 7.688a29.591 29.591 0 0 0-3.469.187c-6.91.745-13.914 3.724-21.031 5.625-6.789 1.813-13.737 2.572-20.656-.688v37.594c9.013 4.562 18.032 1.72 27.312-1.25 9.083-2.906 18.415-5.837 27.75-1.437V10.094c-3.3-1.671-6.59-2.37-9.906-2.406z" style="opacity:.71052635;fill:url(#g);fill-opacity:1" transform="matrix(4.26667 0 0 4.26667 0 -1.035)"/><path d="M47.625 7.688a29.585 29.585 0 0 0-3.469.187c-6.91.745-13.914 3.724-21.031 5.625-6.79 1.813-13.735 2.544-20.656-.719v37.625c9.014 4.563 18.032 1.72 27.312-1.25 9.083-2.906 18.417-5.836 27.75-1.437V10.094c-3.302-1.672-6.59-2.37-9.906-2.406z" style="opacity:.2842105;fill:url(#h);fill-opacity:1" transform="matrix(4.26667 0 0 4.26667 0 -1.035)"/><g style="font-size:40px;font-style:normal;font-weight:400;line-height:125%;letter-spacing:0;word-spacing:0;fill:#ec0000;fill-opacity:1;stroke:none;font-family:Sans"><path d="M15.546 22.484H3.956v16.194h1.637v-1.609h8.255v1.569h1.698zm-1.698 1.415v4.999H5.593v-4.999zm0 6.455v5.22H5.593v-5.22zM37.223 25.46H29.24v-3.056c.242-.127.375-.263.399-.409.016-.246-.244-.424-.78-.533l-1.337-.125v4.122H19.58v1.436h7.238a25.028 25.028 0 0 1-3.495 4.44c-1.407 1.433-2.89 2.556-4.447 3.369.217.238.405.438.566.598.15.151.319.345.504.581 1.476-.739 2.937-1.83 4.382-3.275 1.34-1.353 2.405-2.788 3.194-4.305v5.46h-3.8V35.2h3.8v4.002h1.718v-4.002h3.82v-1.435h-3.82v-5.622c.626 1.326 1.695 2.706 3.207 4.142 1.474 1.459 2.994 2.571 4.559 3.338.165-.229.332-.447.502-.656l.437-.492.142-.288c-1.735-.79-3.333-1.884-4.795-3.28a30.712 30.712 0 0 1-3.509-4.011h7.44zM54.536 31.874h-7.89v7.146h1.617v-1.146h4.636v.945h1.637zM52.9 33.309v3.089h-4.636v-3.089zM39.065 22.061v1.436h5.599v-1.436zm-.765 2.634v1.436h6.866v-1.436zm.805 2.735v1.416h5.437V27.43zm-.04 2.634v1.416h5.458v-1.416zm5.739 2.554h-6.021v6.321h1.577v-1.246h2.827v.784h1.617zm-1.617 1.416v2.284H40.36v-2.284zM55.14 22.042H45.66v1.415h3.6l-.407 1.882h-2.63v1.375h2.372l-.582 2.385h-2.936v1.456h10.967v-1.456h-2.091v-3.76h-3.519l.442-1.882h4.263zm-2.804 4.672V29.1H49.63l.543-2.385z" style="font-size:21px;font-variant:normal;font-weight:700;font-stretch:normal;letter-spacing:-2.27999997px;fill:#ec0000;stroke:none;font-family:GulimChe;-inkscape-font-specification:GulimChe Bold" transform="matrix(4.26667 0 0 4.26667 0 -1.148)"/></g></svg>