<svg xmlns="http://www.w3.org/2000/svg" xmlns:xlink="http://www.w3.org/1999/xlink" version="1.0" width="64" height="64" viewBox="0 0 256 256" xml:space="preserve"><defs><linearGradient x1="87.397" y1="141.973" x2="240.947" y2="141.973" id="a" gradientUnits="userSpaceOnUse" gradientTransform="translate(-129.37 -94.568) scale(1.56769)"><stop style="stop-color:#fff;stop-opacity:.66666675" offset="0"/><stop style="stop-color:#d7d7d7;stop-opacity:.21875" offset=".241"/><stop style="stop-color:#4d4d4d;stop-opacity:0" offset=".459"/><stop style="stop-color:#fff;stop-opacity:.51041669" offset=".719"/><stop style="stop-color:#f2f2f2;stop-opacity:.40000001" offset=".874"/><stop style="stop-color:#fff;stop-opacity:.62352943" offset="1"/></linearGradient><linearGradient x1="87.397" y1="141.973" x2="269.333" y2="141.973" id="g" xlink:href="#a" gradientUnits="userSpaceOnUse" gradientTransform="translate(-129.371 -94.57) scale(1.56769)"/><linearGradient xlink:href="#a" id="h" gradientUnits="userSpaceOnUse" gradientTransform="translate(-129.371 -94.57) scale(1.56769)" x1="87.397" y1="141.973" x2="269.333" y2="141.973"/><linearGradient gradientTransform="translate(-69.826 15.227) scale(1.56769)" x1="124.664" y1="19.659" x2="126.189" y2="122.018" id="d" gradientUnits="userSpaceOnUse"><stop style="stop-color:#034da2;stop-opacity:1" offset="0"/><stop style="stop-color:#034da2;stop-opacity:1" offset=".155"/><stop style="stop-color:#ed1d25;stop-opacity:1" offset=".255"/><stop style="stop-color:#ed1d25;stop-opacity:1" offset=".75"/><stop style="stop-color:#034da2;stop-opacity:1" offset=".85"/><stop style="stop-color:#034da2;stop-opacity:1" offset="1"/></linearGradient><linearGradient id="e"><stop style="stop-color:#fff;stop-opacity:.88235295" offset="0"/><stop style="stop-color:#fff;stop-opacity:0" offset=".191"/><stop style="stop-color:#fff;stop-opacity:1" offset=".653"/><stop style="stop-color:#fff;stop-opacity:0" offset=".821"/><stop style="stop-color:#fff;stop-opacity:.60714287" offset="1"/></linearGradient><linearGradient id="f"><stop style="stop-color:#000;stop-opacity:0" offset="0"/><stop style="stop-color:#000;stop-opacity:.84523809" offset=".191"/><stop style="stop-color:#000;stop-opacity:0" offset=".653"/><stop style="stop-color:#000;stop-opacity:.61057693" offset=".821"/><stop style="stop-color:#000;stop-opacity:0" offset="1"/></linearGradient><linearGradient xlink:href="#e" id="i" gradientUnits="userSpaceOnUse" gradientTransform="translate(0 .252)" x1="1.791" y1="30" x2="58.209" y2="30"/><linearGradient xlink:href="#f" id="j" gradientUnits="userSpaceOnUse" gradientTransform="translate(0 .252)" x1="1.791" y1="30" x2="58.209" y2="30"/><g id="c"><path id="b" transform="rotate(18 3.157 -.5)" d="M0 0v1h.5z"/><use xlink:href="#b" transform="scale(-1 1)"/></g></defs><g style="display:inline"><path style="fill:url(#g)" d="M248.36 206.96c-80.24-42.452-160.48 51.377-240.72 8.925V48.631C87.982 90.163 169.345-2.03 248.36 40.115V206.96z"/></g><g style="display:inline"><path style="opacity:1;fill:url(#h);display:inline" d="M248.36 206.96c-80.24-42.452-160.48 51.377-240.72 8.925V48.631C87.982 90.163 169.345-2.03 248.36 40.115V206.96z"/></g><path d="M203.2 27.276c-5.144-.06-10.225.25-15.333.8C157.215 31.382 127.03 44.243 97.2 52.21c-29.83 7.966-59.1 11.1-88.4-4.4a2.692 2.692 0 0 0-3.867 2.4v166.8a2.692 2.692 0 0 0 1.467 2.4c41.172 21.78 82.26 8.579 122.4-4.267s79.333-25.336 118.4-4.667a2.692 2.692 0 0 0 3.867-2.4v-166.8a2.692 2.692 0 0 0-1.467-2.4c-15.442-8.17-30.967-11.417-46.4-11.6z" style="fill:#2d68ff;fill-opacity:1;stroke:#4d4d4d;stroke-width:4.26666689;stroke-miterlimit:4;stroke-opacity:1;stroke-dasharray:none"/><path d="M47.625 7.688a29.591 29.591 0 0 0-3.469.187c-6.91.745-13.914 3.724-21.031 5.625-6.789 1.813-13.737 2.572-20.656-.688v37.594c9.013 4.562 18.032 1.72 27.312-1.25 9.083-2.906 18.415-5.837 27.75-1.437V10.094c-3.3-1.671-6.59-2.37-9.906-2.406z" style="opacity:.71052635;fill:url(#i);fill-opacity:1" transform="scale(4.26667)"/><path d="M47.625 7.688a29.585 29.585 0 0 0-3.469.187c-6.91.745-13.914 3.724-21.031 5.625-6.79 1.813-13.735 2.544-20.656-.719v37.625c9.014 4.563 18.032 1.72 27.312-1.25 9.083-2.906 18.417-5.836 27.75-1.437V10.094c-3.302-1.672-6.59-2.37-9.906-2.406z" style="opacity:.2842105;fill:url(#j);fill-opacity:1" transform="scale(4.26667)"/><text xml:space="preserve" style="font-size:170.66667175px;font-style:normal;font-weight:400;line-height:125%;letter-spacing:0;word-spacing:0;fill:#000;fill-opacity:1;stroke:none;font-family:Sans" x="571.661" y="50.983"/><g style="font-size:40px;font-style:normal;font-weight:400;line-height:125%;letter-spacing:0;word-spacing:0;fill:#000;fill-opacity:1;stroke:none;font-family:Sans"><path d="M3.8 34.032v-.724h1.298v-8.75H3.799v-.732h8.217v2.27h-.84v-1.429h-4.69v3.418h3.342v-1.278h.841v3.39h-.84V28.92H6.485v4.272h4.798v-1.428h.841v2.27zM13.827 34.032v-.724h1.135v-5.81H13.76v-.732h2.461v1.292c.232-.493.534-.864.906-1.115a2.26 2.26 0 0 1 1.295-.376c.802 0 1.392.23 1.77.69.379.461.568 1.179.568 2.154v3.897h1.121v.724h-3.473v-.724h1.087v-3.5c0-.889-.109-1.499-.328-1.829-.218-.33-.604-.496-1.155-.496-.583 0-1.028.214-1.333.64-.305.426-.458 1.047-.458 1.862v3.323h1.094v.724zM29.625 27.497v6.378c0 1.044-.287 1.85-.861 2.417-.574.567-1.392.85-2.454.85-.479 0-.937-.043-1.374-.13a6.2 6.2 0 0 1-1.258-.389V35.1h.656c.082.474.276.82.581 1.039.306.218.743.328 1.313.328.738 0 1.28-.209 1.623-.626.344-.417.516-1.072.516-1.965v-.977c-.246.455-.559.791-.94 1.008-.38.216-.85.325-1.411.325-.893 0-1.624-.355-2.191-1.063-.567-.71-.851-1.633-.851-2.772 0-1.14.282-2.063.848-2.769.565-.706 1.296-1.06 2.194-1.06.56 0 1.031.109 1.412.325.38.217.693.553.94 1.008v-1.134h2.46v.731zm-1.258 2.543c0-.87-.167-1.536-.502-1.996-.335-.46-.821-.69-1.46-.69-.647 0-1.135.255-1.466.765-.33.51-.495 1.27-.495 2.277 0 1.002.165 1.761.495 2.276.33.515.82.772 1.467.772.638 0 1.124-.229 1.459-.687.335-.458.502-1.124.502-2zM34.116 33.308h1.19v.724h-3.657v-.724h1.21V24.12h-1.21v-.724h2.467zM37.09 24.51c0-.21.076-.392.23-.547a.745.745 0 0 1 .55-.232c.209 0 .39.077.543.232a.754.754 0 0 1 .229.547.745.745 0 0 1-.226.547.745.745 0 0 1-.547.225.756.756 0 0 1-.55-.225.74.74 0 0 1-.229-.547zm1.607 8.798h1.189v.724h-3.65v-.724h1.203v-5.81h-1.203v-.732h2.46zM41 33.629v-1.695h.725c.018.542.188.948.51 1.216.32.27.796.404 1.424.404.566 0 .996-.106 1.292-.318.297-.212.445-.52.445-.926 0-.32-.108-.577-.325-.773-.216-.196-.673-.405-1.37-.629l-.91-.307c-.624-.2-1.076-.452-1.357-.752-.28-.301-.42-.684-.42-1.149 0-.665.244-1.187.731-1.565.488-.378 1.162-.568 2.024-.568.383 0 .786.05 1.21.15.424.101.861.247 1.312.438v1.586h-.724c-.019-.47-.183-.836-.493-1.1-.31-.265-.731-.397-1.264-.397-.529 0-.929.094-1.2.28-.271.187-.407.468-.407.841 0 .306.103.55.308.735.205.185.615.373 1.23.564l.999.308c.688.214 1.183.482 1.486.803.303.321.455.735.455 1.24 0 .689-.263 1.23-.79 1.624-.526.394-1.252.592-2.177.592-.47 0-.927-.05-1.374-.15-.446-.101-.893-.252-1.34-.452zM47.98 34.032v-.724h1.135V24.12H47.91v-.724h2.461v4.662c.233-.493.535-.864.906-1.115a2.26 2.26 0 0 1 1.296-.376c.802 0 1.392.23 1.77.69.378.461.567 1.179.567 2.154v3.897h1.121v.724H52.56v-.724h1.087v-3.5c0-.889-.108-1.496-.325-1.822-.216-.326-.603-.489-1.159-.489-.583 0-1.027.212-1.333.636-.305.424-.458 1.041-.458 1.852v3.323h1.094v.724z" style="font-size:14px;font-variant:normal;font-stretch:normal;font-family:DejaVu Serif;-inkscape-font-specification:DejaVu Serif" transform="scale(4.26667)"/></g></svg>