<svg xmlns="http://www.w3.org/2000/svg" xmlns:xlink="http://www.w3.org/1999/xlink" version="1.0" width="64" height="64" viewBox="0 0 256 256" xml:space="preserve"><defs><linearGradient x1="87.397" y1="141.973" x2="240.947" y2="141.973" id="a" gradientUnits="userSpaceOnUse" gradientTransform="translate(-129.37 -94.568) scale(1.56769)"><stop style="stop-color:#fff;stop-opacity:.66666675" offset="0"/><stop style="stop-color:#d7d7d7;stop-opacity:.21875" offset=".241"/><stop style="stop-color:#4d4d4d;stop-opacity:0" offset=".459"/><stop style="stop-color:#fff;stop-opacity:.51041669" offset=".719"/><stop style="stop-color:#f2f2f2;stop-opacity:.40000001" offset=".874"/><stop style="stop-color:#fff;stop-opacity:.62352943" offset="1"/></linearGradient><linearGradient gradientTransform="translate(-69.826 15.227) scale(1.56769)" x1="124.664" y1="19.659" x2="126.189" y2="122.018" id="d" gradientUnits="userSpaceOnUse"><stop style="stop-color:#034da2;stop-opacity:1" offset="0"/><stop style="stop-color:#034da2;stop-opacity:1" offset=".155"/><stop style="stop-color:#ed1d25;stop-opacity:1" offset=".255"/><stop style="stop-color:#ed1d25;stop-opacity:1" offset=".75"/><stop style="stop-color:#034da2;stop-opacity:1" offset=".85"/><stop style="stop-color:#034da2;stop-opacity:1" offset="1"/></linearGradient><linearGradient id="e"><stop style="stop-color:#fff;stop-opacity:.88235295" offset="0"/><stop style="stop-color:#fff;stop-opacity:0" offset=".191"/><stop style="stop-color:#fff;stop-opacity:1" offset=".653"/><stop style="stop-color:#fff;stop-opacity:0" offset=".821"/><stop style="stop-color:#fff;stop-opacity:.60714287" offset="1"/></linearGradient><linearGradient id="f"><stop style="stop-color:#000;stop-opacity:0" offset="0"/><stop style="stop-color:#000;stop-opacity:.84523809" offset=".191"/><stop style="stop-color:#000;stop-opacity:0" offset=".653"/><stop style="stop-color:#000;stop-opacity:.61057693" offset=".821"/><stop style="stop-color:#000;stop-opacity:0" offset="1"/></linearGradient><linearGradient id="g"><stop style="stop-color:#fff;stop-opacity:.88235295" offset="0"/><stop style="stop-color:#fff;stop-opacity:0" offset=".191"/><stop style="stop-color:#fff;stop-opacity:1" offset=".653"/><stop style="stop-color:#fff;stop-opacity:0" offset=".821"/><stop style="stop-color:#fff;stop-opacity:.60714287" offset="1"/></linearGradient><linearGradient id="h"><stop style="stop-color:#000;stop-opacity:0" offset="0"/><stop style="stop-color:#000;stop-opacity:.84523809" offset=".191"/><stop style="stop-color:#000;stop-opacity:0" offset=".653"/><stop style="stop-color:#000;stop-opacity:.61057693" offset=".821"/><stop style="stop-color:#000;stop-opacity:0" offset="1"/></linearGradient><linearGradient id="i"><stop style="stop-color:#fff;stop-opacity:.88235295" offset="0"/><stop style="stop-color:#fff;stop-opacity:0" offset=".191"/><stop style="stop-color:#fff;stop-opacity:1" offset=".653"/><stop style="stop-color:#fff;stop-opacity:0" offset=".821"/><stop style="stop-color:#fff;stop-opacity:.60714287" offset="1"/></linearGradient><linearGradient id="j"><stop style="stop-color:#000;stop-opacity:0" offset="0"/><stop style="stop-color:#000;stop-opacity:.84523809" offset=".191"/><stop style="stop-color:#000;stop-opacity:0" offset=".653"/><stop style="stop-color:#000;stop-opacity:.61057693" offset=".821"/><stop style="stop-color:#000;stop-opacity:0" offset="1"/></linearGradient><linearGradient id="k"><stop style="stop-color:#fff;stop-opacity:.88235295" offset="0"/><stop style="stop-color:#fff;stop-opacity:0" offset=".191"/><stop style="stop-color:#fff;stop-opacity:1" offset=".653"/><stop style="stop-color:#fff;stop-opacity:0" offset=".821"/><stop style="stop-color:#fff;stop-opacity:.60714287" offset="1"/></linearGradient><linearGradient id="l"><stop style="stop-color:#000;stop-opacity:0" offset="0"/><stop style="stop-color:#000;stop-opacity:.84523809" offset=".191"/><stop style="stop-color:#000;stop-opacity:0" offset=".653"/><stop style="stop-color:#000;stop-opacity:.61057693" offset=".821"/><stop style="stop-color:#000;stop-opacity:0" offset="1"/></linearGradient><linearGradient id="m"><stop style="stop-color:#fff;stop-opacity:.88235295" offset="0"/><stop style="stop-color:#fff;stop-opacity:0" offset=".191"/><stop style="stop-color:#fff;stop-opacity:1" offset=".653"/><stop style="stop-color:#fff;stop-opacity:0" offset=".821"/><stop style="stop-color:#fff;stop-opacity:.60714287" offset="1"/></linearGradient><linearGradient id="n"><stop style="stop-color:#000;stop-opacity:0" offset="0"/><stop style="stop-color:#000;stop-opacity:.84523809" offset=".191"/><stop style="stop-color:#000;stop-opacity:0" offset=".653"/><stop style="stop-color:#000;stop-opacity:.61057693" offset=".821"/><stop style="stop-color:#000;stop-opacity:0" offset="1"/></linearGradient><linearGradient id="o"><stop style="stop-color:#fff;stop-opacity:.88235295" offset="0"/><stop style="stop-color:#fff;stop-opacity:0" offset=".191"/><stop style="stop-color:#fff;stop-opacity:1" offset=".653"/><stop style="stop-color:#fff;stop-opacity:0" offset=".821"/><stop style="stop-color:#fff;stop-opacity:.60714287" offset="1"/></linearGradient><linearGradient id="p"><stop style="stop-color:#000;stop-opacity:0" offset="0"/><stop style="stop-color:#000;stop-opacity:.84523809" offset=".191"/><stop style="stop-color:#000;stop-opacity:0" offset=".653"/><stop style="stop-color:#000;stop-opacity:.61057693" offset=".821"/><stop style="stop-color:#000;stop-opacity:0" offset="1"/></linearGradient><linearGradient id="q"><stop style="stop-color:#fff;stop-opacity:.88235295" offset="0"/><stop style="stop-color:#fff;stop-opacity:0" offset=".191"/><stop style="stop-color:#fff;stop-opacity:1" offset=".653"/><stop style="stop-color:#fff;stop-opacity:0" offset=".821"/><stop style="stop-color:#fff;stop-opacity:.60714287" offset="1"/></linearGradient><linearGradient id="r"><stop style="stop-color:#000;stop-opacity:0" offset="0"/><stop style="stop-color:#000;stop-opacity:.84523809" offset=".191"/><stop style="stop-color:#000;stop-opacity:0" offset=".653"/><stop style="stop-color:#000;stop-opacity:.61057693" offset=".821"/><stop style="stop-color:#000;stop-opacity:0" offset="1"/></linearGradient><linearGradient x1="1.791" y1="30" x2="58.209" y2="30" id="u" xlink:href="#s" gradientUnits="userSpaceOnUse" gradientTransform="translate(0 .252)"/><linearGradient id="s"><stop style="stop-color:#fff;stop-opacity:.88235295" offset="0"/><stop style="stop-color:#fff;stop-opacity:0" offset=".191"/><stop style="stop-color:#fff;stop-opacity:1" offset=".653"/><stop style="stop-color:#fff;stop-opacity:0" offset=".821"/><stop style="stop-color:#fff;stop-opacity:.60714287" offset="1"/></linearGradient><linearGradient x1="1.791" y1="30" x2="58.209" y2="30" id="v" xlink:href="#t" gradientUnits="userSpaceOnUse" gradientTransform="translate(0 .252)"/><linearGradient id="t"><stop style="stop-color:#000;stop-opacity:0" offset="0"/><stop style="stop-color:#000;stop-opacity:.84523809" offset=".191"/><stop style="stop-color:#000;stop-opacity:0" offset=".653"/><stop style="stop-color:#000;stop-opacity:.61057693" offset=".821"/><stop style="stop-color:#000;stop-opacity:0" offset="1"/></linearGradient><g id="c"><path id="b" transform="rotate(18 3.157 -.5)" d="M0 0v1h.5z"/><use xlink:href="#b" transform="scale(-1 1)"/></g></defs><path d="M203.2 27.276c-5.144-.06-10.225.25-15.333.8C157.215 31.382 127.03 44.243 97.2 52.21c-29.83 7.966-59.1 11.1-88.4-4.4a2.692 2.692 0 0 0-3.867 2.4v166.8a2.692 2.692 0 0 0 1.467 2.4c41.172 21.78 82.26 8.579 122.4-4.267s79.333-25.336 118.4-4.667a2.692 2.692 0 0 0 3.867-2.4v-166.8a2.692 2.692 0 0 0-1.467-2.4c-15.442-8.17-30.967-11.417-46.4-11.6z" style="fill:#fe7342;fill-opacity:1;stroke:#4d4d4d;stroke-width:4.26666689;stroke-miterlimit:4;stroke-opacity:1;stroke-dasharray:none"/><path d="M47.625 7.688a29.591 29.591 0 0 0-3.469.187c-6.91.745-13.914 3.724-21.031 5.625-6.789 1.813-13.737 2.572-20.656-.688v37.594c9.013 4.562 18.032 1.72 27.312-1.25 9.083-2.906 18.415-5.837 27.75-1.437V10.094c-3.3-1.671-6.59-2.37-9.906-2.406z" style="opacity:.71052635;fill:url(#u);fill-opacity:1" transform="scale(4.26667)"/><path d="M47.625 7.688a29.585 29.585 0 0 0-3.469.187c-6.91.745-13.914 3.724-21.031 5.625-6.79 1.813-13.735 2.544-20.656-.719v37.625c9.014 4.563 18.032 1.72 27.312-1.25 9.083-2.906 18.417-5.836 27.75-1.437V10.094c-3.302-1.672-6.59-2.37-9.906-2.406z" style="opacity:.2842105;fill:url(#v);fill-opacity:1" transform="scale(4.26667)"/><g style="font-size:40px;font-style:normal;font-weight:400;line-height:125%;letter-spacing:0;word-spacing:0;fill:#000;fill-opacity:1;stroke:none;font-family:Sans"><path d="M6.111 34.443h1.181c1.232 0 2.176-.352 2.834-1.054.658-.703.987-1.71.987-3.022 0-1.311-.328-2.314-.983-3.008-.656-.694-1.602-1.041-2.838-1.041h-1.18zm-2.494.673v-.673h1.206v-8.125H3.617v-.68h3.77c1.634 0 2.906.417 3.818 1.251.912.834 1.368 1.993 1.368 3.478 0 1.49-.457 2.654-1.37 3.492-.915.838-2.186 1.257-3.816 1.257zM20.381 31.866h-5.034v.05c0 .91.172 1.597.514 2.06.343.464.849.695 1.518.695.512 0 .932-.134 1.26-.403.327-.269.557-.667.688-1.196h.94c-.186.74-.53 1.297-1.032 1.669-.501.372-1.16.559-1.977.559-.986 0-1.778-.325-2.377-.975-.6-.65-.898-1.512-.898-2.586 0-1.067.294-1.926.882-2.578.588-.651 1.36-.977 2.317-.977 1.02 0 1.802.314 2.348.943.546.628.83 1.54.851 2.739zm-1.377-.673c-.026-.787-.192-1.38-.499-1.78-.307-.4-.748-.6-1.323-.6-.538 0-.96.2-1.27.602-.309.402-.497.995-.565 1.778zM25.63 28.368h2.184v6.075h1.105v.673h-2.273v-1.194c-.216.449-.495.79-.838 1.025a2.06 2.06 0 0 1-1.193.353c-.75 0-1.3-.213-1.654-.638-.353-.426-.53-1.093-.53-2.003v-3.612h-1.053v-.679h2.228v3.93c0 .82.1 1.383.301 1.688.201.304.56.457 1.076.457.542 0 .954-.2 1.238-.597.283-.398.425-.975.425-1.733v-3.066H25.63zM30.81 29.047h-1.028v-.679h1.028v-2.095h1.174v2.095h2.197v.68h-2.197v4.284c0 .571.055.937.166 1.098.11.16.313.241.609.241.305 0 .527-.09.666-.27.14-.18.214-.47.223-.872h.882c-.034.613-.201 1.062-.502 1.345-.3.284-.757.426-1.37.426-.674 0-1.15-.15-1.429-.448-.28-.298-.419-.805-.419-1.52zM35.368 34.741v-1.574h.673c.017.503.174.88.473 1.13.298.25.739.374 1.323.374.525 0 .925-.098 1.2-.295.275-.197.412-.483.412-.86 0-.296-.1-.535-.301-.717-.201-.182-.625-.377-1.273-.584l-.844-.286c-.58-.186-1-.419-1.26-.698-.26-.28-.39-.635-.39-1.067 0-.617.226-1.102.679-1.453.452-.351 1.079-.527 1.879-.527.355 0 .73.046 1.123.14.394.093.8.228 1.219.406v1.472h-.673c-.017-.435-.17-.776-.457-1.022-.288-.245-.68-.368-1.174-.368-.491 0-.863.087-1.114.26-.252.174-.378.434-.378.781 0 .284.095.511.286.683.19.171.57.346 1.142.523l.927.286c.639.199 1.1.448 1.38.746.282.298.423.682.423 1.152 0 .639-.245 1.141-.733 1.508-.49.366-1.163.549-2.022.549-.436 0-.861-.047-1.276-.14a6.526 6.526 0 0 1-1.244-.419zM48 33.09c-.165.72-.483 1.268-.953 1.645-.47.376-1.077.565-1.821.565-.982 0-1.771-.325-2.368-.975-.597-.65-.895-1.512-.895-2.586 0-1.08.298-1.942.895-2.587.597-.645 1.386-.968 2.368-.968.427 0 .852.05 1.276.15.423.099.848.25 1.275.453v1.726h-.679c-.089-.592-.282-1.024-.58-1.294-.299-.271-.725-.407-1.28-.407-.63 0-1.106.245-1.428.733-.321.49-.482 1.22-.482 2.194 0 .973.16 1.705.479 2.196.32.49.797.736 1.431.736.504 0 .906-.131 1.206-.393.3-.263.506-.658.616-1.187zM49.136 35.116v-.673h1.054V25.91h-1.118v-.672h2.286v4.329c.215-.457.496-.802.84-1.035a2.1 2.1 0 0 1 1.203-.35c.745 0 1.293.215 1.645.642.35.427.526 1.094.526 2v3.618h1.041v.673H53.39v-.673h1.01v-3.25c0-.826-.101-1.39-.302-1.692-.201-.303-.56-.454-1.076-.454-.542 0-.955.197-1.238.59-.284.394-.425.967-.425 1.72v3.086h1.015v.673z" style="font-size:13px;font-variant:normal;font-stretch:normal;font-family:DejaVu Serif;-inkscape-font-specification:DejaVu Serif" transform="scale(4.26667)"/></g></svg>