<svg xmlns="http://www.w3.org/2000/svg" xmlns:xlink="http://www.w3.org/1999/xlink" version="1.0" width="64" height="64" viewBox="0 0 256 256" xml:space="preserve"><defs><linearGradient x1="87.397" y1="141.973" x2="240.947" y2="141.973" id="a" gradientUnits="userSpaceOnUse" gradientTransform="translate(-129.37 -94.568) scale(1.56769)"><stop style="stop-color:#fff;stop-opacity:.66666675" offset="0"/><stop style="stop-color:#d7d7d7;stop-opacity:.21875" offset=".241"/><stop style="stop-color:#4d4d4d;stop-opacity:0" offset=".459"/><stop style="stop-color:#fff;stop-opacity:.51041669" offset=".719"/><stop style="stop-color:#f2f2f2;stop-opacity:.40000001" offset=".874"/><stop style="stop-color:#fff;stop-opacity:.62352943" offset="1"/></linearGradient><linearGradient gradientTransform="translate(-69.826 15.227) scale(1.56769)" x1="124.664" y1="19.659" x2="126.189" y2="122.018" id="d" gradientUnits="userSpaceOnUse"><stop style="stop-color:#034da2;stop-opacity:1" offset="0"/><stop style="stop-color:#034da2;stop-opacity:1" offset=".155"/><stop style="stop-color:#ed1d25;stop-opacity:1" offset=".255"/><stop style="stop-color:#ed1d25;stop-opacity:1" offset=".75"/><stop style="stop-color:#034da2;stop-opacity:1" offset=".85"/><stop style="stop-color:#034da2;stop-opacity:1" offset="1"/></linearGradient><linearGradient id="e"><stop style="stop-color:#fff;stop-opacity:.88235295" offset="0"/><stop style="stop-color:#fff;stop-opacity:0" offset=".191"/><stop style="stop-color:#fff;stop-opacity:1" offset=".653"/><stop style="stop-color:#fff;stop-opacity:0" offset=".821"/><stop style="stop-color:#fff;stop-opacity:.60714287" offset="1"/></linearGradient><linearGradient id="f"><stop style="stop-color:#000;stop-opacity:0" offset="0"/><stop style="stop-color:#000;stop-opacity:.84523809" offset=".191"/><stop style="stop-color:#000;stop-opacity:0" offset=".653"/><stop style="stop-color:#000;stop-opacity:.61057693" offset=".821"/><stop style="stop-color:#000;stop-opacity:0" offset="1"/></linearGradient><linearGradient id="g"><stop style="stop-color:#fff;stop-opacity:.88235295" offset="0"/><stop style="stop-color:#fff;stop-opacity:0" offset=".191"/><stop style="stop-color:#fff;stop-opacity:1" offset=".653"/><stop style="stop-color:#fff;stop-opacity:0" offset=".821"/><stop style="stop-color:#fff;stop-opacity:.60714287" offset="1"/></linearGradient><linearGradient id="h"><stop style="stop-color:#000;stop-opacity:0" offset="0"/><stop style="stop-color:#000;stop-opacity:.84523809" offset=".191"/><stop style="stop-color:#000;stop-opacity:0" offset=".653"/><stop style="stop-color:#000;stop-opacity:.61057693" offset=".821"/><stop style="stop-color:#000;stop-opacity:0" offset="1"/></linearGradient><linearGradient x1="1.791" y1="30" x2="58.209" y2="30" id="k" xlink:href="#i" gradientUnits="userSpaceOnUse" gradientTransform="translate(0 .252)"/><linearGradient id="i"><stop style="stop-color:#fff;stop-opacity:.88235295" offset="0"/><stop style="stop-color:#fff;stop-opacity:0" offset=".191"/><stop style="stop-color:#fff;stop-opacity:1" offset=".653"/><stop style="stop-color:#fff;stop-opacity:0" offset=".821"/><stop style="stop-color:#fff;stop-opacity:.60714287" offset="1"/></linearGradient><linearGradient x1="1.791" y1="30" x2="58.209" y2="30" id="l" xlink:href="#j" gradientUnits="userSpaceOnUse" gradientTransform="translate(0 .252)"/><linearGradient id="j"><stop style="stop-color:#000;stop-opacity:0" offset="0"/><stop style="stop-color:#000;stop-opacity:.84523809" offset=".191"/><stop style="stop-color:#000;stop-opacity:0" offset=".653"/><stop style="stop-color:#000;stop-opacity:.61057693" offset=".821"/><stop style="stop-color:#000;stop-opacity:0" offset="1"/></linearGradient><g id="c"><path id="b" transform="rotate(18 3.157 -.5)" d="M0 0v1h.5z"/><use xlink:href="#b" transform="scale(-1 1)"/></g></defs><path d="M203.2 26.128c-5.144-.06-10.225.25-15.333.8-30.652 3.306-60.836 16.167-90.667 24.133-29.83 7.967-59.1 11.101-88.4-4.4a2.692 2.692 0 0 0-3.867 2.4v166.8a2.692 2.692 0 0 0 1.467 2.4c41.172 21.782 82.26 8.58 122.4-4.266s79.333-25.336 118.4-4.667a2.692 2.692 0 0 0 3.867-2.4v-166.8a2.692 2.692 0 0 0-1.467-2.4c-15.442-8.17-30.967-11.417-46.4-11.6z" style="fill:#ffe92d;fill-opacity:1;stroke:#4d4d4d;stroke-width:4.26666689;stroke-miterlimit:4;stroke-opacity:1;stroke-dasharray:none"/><path d="M47.625 7.688a29.591 29.591 0 0 0-3.469.187c-6.91.745-13.914 3.724-21.031 5.625-6.789 1.813-13.737 2.572-20.656-.688v37.594c9.013 4.562 18.032 1.72 27.312-1.25 9.083-2.906 18.415-5.837 27.75-1.437V10.094c-3.3-1.671-6.59-2.37-9.906-2.406z" style="opacity:.71052635;fill:url(#k);fill-opacity:1" transform="matrix(4.26667 0 0 4.26667 0 -1.035)"/><path d="M47.625 7.688a29.585 29.585 0 0 0-3.469.187c-6.91.745-13.914 3.724-21.031 5.625-6.79 1.813-13.735 2.544-20.656-.719v37.625c9.014 4.563 18.032 1.72 27.312-1.25 9.083-2.906 18.417-5.836 27.75-1.437V10.094c-3.302-1.672-6.59-2.37-9.906-2.406z" style="opacity:.2842105;fill:url(#l);fill-opacity:1" transform="matrix(4.26667 0 0 4.26667 0 -1.035)"/><g style="font-size:40px;font-style:normal;font-weight:400;line-height:125%;letter-spacing:0;word-spacing:0;fill:#000;fill-opacity:1;stroke:none;font-family:Sans"><path d="M4.25 33.967v-.673h1.207v-8.125H4.25v-.68h7.63v2.108H11.1V25.27H6.745v3.174H9.85v-1.187h.781v3.149h-.78v-1.187H6.744v3.967h4.456v-1.327h.781v2.108zM13.76 33.592v-1.574h.672c.017.503.175.88.473 1.13.299.25.74.374 1.324.374.524 0 .924-.098 1.2-.295.275-.197.412-.483.412-.86 0-.296-.1-.535-.301-.717-.201-.182-.626-.377-1.273-.584l-.844-.286c-.58-.186-1-.419-1.26-.698-.26-.28-.39-.635-.39-1.067 0-.617.226-1.102.678-1.453.453-.351 1.08-.527 1.88-.527.355 0 .73.047 1.123.14.393.093.8.228 1.219.406v1.473H18c-.017-.436-.17-.777-.457-1.022-.288-.246-.68-.369-1.175-.369-.49 0-.862.087-1.114.26-.251.174-.377.434-.377.781 0 .284.095.511.285.683.19.171.572.346 1.143.523l.927.286c.639.199 1.099.448 1.38.746.282.298.422.682.422 1.152 0 .639-.244 1.142-.733 1.508-.489.366-1.162.549-2.021.549-.436 0-.862-.047-1.276-.14a6.526 6.526 0 0 1-1.244-.419zM22.373 30.26v.666c0 .813.156 1.431.467 1.857.31.425.763.638 1.355.638.597 0 1.048-.24 1.355-.718.307-.478.46-1.182.46-2.113 0-.936-.153-1.64-.46-2.114-.307-.474-.758-.711-1.355-.711-.592 0-1.044.214-1.355.641-.311.427-.467 1.045-.467 1.854zm-1.168-2.362h-1.123v-.679h2.291v1.054c.229-.423.52-.736.873-.937.353-.2.79-.301 1.31-.301.83 0 1.507.328 2.032.984.525.656.787 1.513.787 2.57 0 1.059-.262 1.917-.787 2.575-.525.658-1.202.987-2.031.987-.52 0-.958-.1-1.31-.302-.354-.2-.645-.513-.874-.936v3.079h1.105v.679h-3.396v-.68h1.123zM33.209 31.846v-1.428h-1.505c-.58 0-1.011.125-1.295.375-.283.25-.425.632-.425 1.149 0 .47.144.842.432 1.117.288.275.677.412 1.168.412.486 0 .879-.15 1.177-.45.299-.3.448-.692.448-1.175zm1.168-2.094v3.542h1.04v.673H33.21v-.73a2.406 2.406 0 0 1-.895.692c-.339.148-.734.222-1.187.222-.75 0-1.344-.2-1.784-.597-.44-.398-.66-.935-.66-1.612 0-.699.252-1.24.755-1.625.504-.385 1.215-.578 2.133-.578h1.638v-.463c0-.512-.156-.91-.467-1.19-.31-.282-.748-.423-1.31-.423-.466 0-.836.106-1.111.318-.276.211-.447.525-.515.94h-.603v-1.366c.407-.173.801-.303 1.184-.39.383-.087.757-.13 1.12-.13.936 0 1.648.232 2.137.695.488.463.733 1.137.733 2.022zM36.313 33.967v-.673h1.053v-5.396H36.25v-.679h2.285v1.2c.216-.457.497-.802.841-1.035a2.1 2.1 0 0 1 1.203-.349c.745 0 1.293.214 1.644.641.352.427.527 1.094.527 2v3.618h1.041v.673h-3.224v-.673h1.009v-3.25c0-.825-.102-1.391-.305-1.698-.203-.307-.56-.46-1.072-.46-.542 0-.955.197-1.238.593-.284.396-.426.972-.426 1.73v3.085h1.016v.673zm3.63-8.697-.361-.349c-.11-.101-.2-.168-.27-.2a.538.538 0 0 0-.225-.047c-.178 0-.318.083-.42.25-.1.168-.162.412-.183.734h-.61c.009-.572.12-1.013.337-1.324.216-.311.516-.467.901-.467.16 0 .309.03.444.09.136.059.282.158.438.298l.362.349a.981.981 0 0 0 .254.197.56.56 0 0 0 .241.05.473.473 0 0 0 .426-.254c.101-.169.16-.412.177-.73h.61c-.009.572-.12 1.013-.337 1.324a1.036 1.036 0 0 1-.901.467c-.16 0-.309-.03-.444-.09a1.713 1.713 0 0 1-.438-.298zM48.069 33.522c.626 0 1.099-.247 1.418-.742.32-.496.48-1.226.48-2.19 0-.965-.16-1.694-.48-2.187-.32-.493-.792-.74-1.418-.74-.627 0-1.1.247-1.42.74-.319.493-.478 1.222-.478 2.187 0 .964.16 1.694.482 2.19.322.495.794.742 1.416.742zm0 .629c-.982 0-1.771-.325-2.368-.975-.597-.65-.895-1.511-.895-2.586s.297-1.936.892-2.584c.594-.647 1.385-.971 2.37-.971.987 0 1.777.324 2.371.971.595.648.892 1.509.892 2.584 0 1.075-.297 1.937-.892 2.586-.594.65-1.384.975-2.37.975zM54.645 33.294h1.104v.673h-3.396v-.673h1.124v-8.531h-1.124v-.673h2.292z" style="font-size:13px;font-variant:normal;font-stretch:normal;font-family:DejaVu Serif;-inkscape-font-specification:DejaVu Serif" transform="matrix(4.26667 0 0 4.26667 0 -1.148)"/></g></svg>