<svg xmlns="http://www.w3.org/2000/svg" xmlns:xlink="http://www.w3.org/1999/xlink" version="1.0" width="64" height="64" viewBox="0 0 256 256" xml:space="preserve"><defs><linearGradient x1="87.397" y1="141.973" x2="240.947" y2="141.973" id="a" gradientUnits="userSpaceOnUse" gradientTransform="translate(-129.37 -94.568) scale(1.56769)"><stop style="stop-color:#fff;stop-opacity:.66666675" offset="0"/><stop style="stop-color:#d7d7d7;stop-opacity:.21875" offset=".241"/><stop style="stop-color:#4d4d4d;stop-opacity:0" offset=".459"/><stop style="stop-color:#fff;stop-opacity:.51041669" offset=".719"/><stop style="stop-color:#f2f2f2;stop-opacity:.40000001" offset=".874"/><stop style="stop-color:#fff;stop-opacity:.62352943" offset="1"/></linearGradient><linearGradient gradientTransform="translate(-69.826 15.227) scale(1.56769)" x1="124.664" y1="19.659" x2="126.189" y2="122.018" id="d" gradientUnits="userSpaceOnUse"><stop style="stop-color:#034da2;stop-opacity:1" offset="0"/><stop style="stop-color:#034da2;stop-opacity:1" offset=".155"/><stop style="stop-color:#ed1d25;stop-opacity:1" offset=".255"/><stop style="stop-color:#ed1d25;stop-opacity:1" offset=".75"/><stop style="stop-color:#034da2;stop-opacity:1" offset=".85"/><stop style="stop-color:#034da2;stop-opacity:1" offset="1"/></linearGradient><linearGradient id="e"><stop style="stop-color:#fff;stop-opacity:.88235295" offset="0"/><stop style="stop-color:#fff;stop-opacity:0" offset=".191"/><stop style="stop-color:#fff;stop-opacity:1" offset=".653"/><stop style="stop-color:#fff;stop-opacity:0" offset=".821"/><stop style="stop-color:#fff;stop-opacity:.60714287" offset="1"/></linearGradient><linearGradient id="f"><stop style="stop-color:#000;stop-opacity:0" offset="0"/><stop style="stop-color:#000;stop-opacity:.84523809" offset=".191"/><stop style="stop-color:#000;stop-opacity:0" offset=".653"/><stop style="stop-color:#000;stop-opacity:.61057693" offset=".821"/><stop style="stop-color:#000;stop-opacity:0" offset="1"/></linearGradient><linearGradient id="g"><stop style="stop-color:#fff;stop-opacity:.88235295" offset="0"/><stop style="stop-color:#fff;stop-opacity:0" offset=".191"/><stop style="stop-color:#fff;stop-opacity:1" offset=".653"/><stop style="stop-color:#fff;stop-opacity:0" offset=".821"/><stop style="stop-color:#fff;stop-opacity:.60714287" offset="1"/></linearGradient><linearGradient id="h"><stop style="stop-color:#000;stop-opacity:0" offset="0"/><stop style="stop-color:#000;stop-opacity:.84523809" offset=".191"/><stop style="stop-color:#000;stop-opacity:0" offset=".653"/><stop style="stop-color:#000;stop-opacity:.61057693" offset=".821"/><stop style="stop-color:#000;stop-opacity:0" offset="1"/></linearGradient><linearGradient id="i"><stop style="stop-color:#fff;stop-opacity:.88235295" offset="0"/><stop style="stop-color:#fff;stop-opacity:0" offset=".191"/><stop style="stop-color:#fff;stop-opacity:1" offset=".653"/><stop style="stop-color:#fff;stop-opacity:0" offset=".821"/><stop style="stop-color:#fff;stop-opacity:.60714287" offset="1"/></linearGradient><linearGradient id="j"><stop style="stop-color:#000;stop-opacity:0" offset="0"/><stop style="stop-color:#000;stop-opacity:.84523809" offset=".191"/><stop style="stop-color:#000;stop-opacity:0" offset=".653"/><stop style="stop-color:#000;stop-opacity:.61057693" offset=".821"/><stop style="stop-color:#000;stop-opacity:0" offset="1"/></linearGradient><linearGradient x1="1.791" y1="30" x2="58.209" y2="30" id="m" xlink:href="#k" gradientUnits="userSpaceOnUse" gradientTransform="translate(0 .252)"/><linearGradient id="k"><stop style="stop-color:#fff;stop-opacity:.88235295" offset="0"/><stop style="stop-color:#fff;stop-opacity:0" offset=".191"/><stop style="stop-color:#fff;stop-opacity:1" offset=".653"/><stop style="stop-color:#fff;stop-opacity:0" offset=".821"/><stop style="stop-color:#fff;stop-opacity:.60714287" offset="1"/></linearGradient><linearGradient x1="1.791" y1="30" x2="58.209" y2="30" id="n" xlink:href="#l" gradientUnits="userSpaceOnUse" gradientTransform="translate(0 .252)"/><linearGradient id="l"><stop style="stop-color:#000;stop-opacity:0" offset="0"/><stop style="stop-color:#000;stop-opacity:.84523809" offset=".191"/><stop style="stop-color:#000;stop-opacity:0" offset=".653"/><stop style="stop-color:#000;stop-opacity:.61057693" offset=".821"/><stop style="stop-color:#000;stop-opacity:0" offset="1"/></linearGradient><g id="c"><path id="b" transform="rotate(18 3.157 -.5)" d="M0 0v1h.5z"/><use xlink:href="#b" transform="scale(-1 1)"/></g></defs><path d="M203.2 26.128c-5.144-.06-10.225.25-15.333.8-30.652 3.306-60.836 16.167-90.667 24.133-29.83 7.967-59.1 11.101-88.4-4.4a2.692 2.692 0 0 0-3.867 2.4v166.8a2.692 2.692 0 0 0 1.467 2.4c41.172 21.782 82.26 8.58 122.4-4.266s79.333-25.336 118.4-4.667a2.692 2.692 0 0 0 3.867-2.4v-166.8a2.692 2.692 0 0 0-1.467-2.4c-15.442-8.17-30.967-11.417-46.4-11.6z" style="fill:#ff2d92;fill-opacity:1;stroke:#4d4d4d;stroke-width:4.26666689;stroke-miterlimit:4;stroke-opacity:1;stroke-dasharray:none"/><path d="M47.625 7.688a29.591 29.591 0 0 0-3.469.187c-6.91.745-13.914 3.724-21.031 5.625-6.789 1.813-13.737 2.572-20.656-.688v37.594c9.013 4.562 18.032 1.72 27.312-1.25 9.083-2.906 18.415-5.837 27.75-1.437V10.094c-3.3-1.671-6.59-2.37-9.906-2.406z" style="opacity:.71052635;fill:url(#m);fill-opacity:1" transform="matrix(4.26667 0 0 4.26667 0 -1.035)"/><path d="M47.625 7.688a29.585 29.585 0 0 0-3.469.187c-6.91.745-13.914 3.724-21.031 5.625-6.79 1.813-13.735 2.544-20.656-.719v37.625c9.014 4.563 18.032 1.72 27.312-1.25 9.083-2.906 18.417-5.836 27.75-1.437V10.094c-3.302-1.672-6.59-2.37-9.906-2.406z" style="opacity:.2842105;fill:url(#n);fill-opacity:1" transform="matrix(4.26667 0 0 4.26667 0 -1.035)"/><g style="font-size:40px;font-style:normal;font-weight:400;line-height:125%;letter-spacing:0;word-spacing:0;fill:#000;fill-opacity:1;stroke:none;font-family:Sans"><path d="M4.064 33.527v-.621h1.113v-7.5H4.064v-.627h7.16v1.945h-.72V25.5H6.366v2.93h2.988v-1.096h.72v2.906h-.72v-1.096H6.367v3.762h1.4v.62zM17.458 27.287v1.558h-.62c-.02-.308-.106-.539-.259-.691-.152-.152-.375-.229-.668-.229-.53 0-.938.184-1.221.551-.283.367-.425.895-.425 1.582v2.848h1.248v.62h-3.299v-.62h.973v-4.992h-1.031v-.616h2.109v1.108c.21-.434.482-.755.814-.964.332-.209.737-.314 1.213-.314.176 0 .36.014.554.041.193.028.397.067.612.118zM22.24 31.57v-1.318h-1.39c-.534 0-.933.115-1.194.345-.262.23-.393.584-.393 1.06 0 .434.133.778.398 1.032.266.254.625.38 1.079.38.449 0 .811-.138 1.086-.415.276-.277.414-.639.414-1.084zm1.078-1.934v3.27h.96v.62H22.24v-.673a2.22 2.22 0 0 1-.827.639 2.715 2.715 0 0 1-1.095.205c-.692 0-1.24-.184-1.647-.551-.406-.367-.61-.863-.61-1.488 0-.645.233-1.145.698-1.5.465-.356 1.121-.533 1.969-.533h1.512v-.428c0-.473-.144-.839-.431-1.099-.287-.26-.69-.39-1.21-.39-.43 0-.772.098-1.025.294-.254.195-.413.484-.475.867h-.557v-1.26c.375-.16.74-.28 1.093-.36.354-.08.698-.12 1.034-.12.864 0 1.52.213 1.972.641.451.428.677 1.05.677 1.866zM25.105 33.527v-.621h.972v-4.98h-1.03v-.628h2.109v1.108c.199-.422.458-.74.776-.955a1.938 1.938 0 0 1 1.11-.323c.688 0 1.194.198 1.518.592.324.395.486 1.01.486 1.846v3.34h.961v.62h-2.976v-.62h.931v-3c0-.762-.094-1.284-.281-1.568-.188-.283-.518-.424-.99-.424-.5 0-.881.182-1.143.547-.262.366-.392.898-.392 1.597v2.848h.937v.62zM38.517 31.658c-.152.664-.445 1.17-.879 1.517-.434.348-.994.522-1.682.522-.906 0-1.634-.3-2.185-.9-.551-.6-.826-1.395-.826-2.387 0-.996.275-1.792.826-2.388.55-.596 1.28-.894 2.185-.894.395 0 .787.046 1.178.138.39.092.783.232 1.178.42v1.593h-.627c-.082-.547-.26-.945-.536-1.195-.276-.25-.67-.375-1.18-.375-.583 0-1.022.225-1.32.676-.296.451-.445 1.126-.445 2.025 0 .898.148 1.574.443 2.027.295.453.735.68 1.321.68.465 0 .836-.121 1.113-.364.278-.242.467-.607.569-1.095zm-2.197 1.869c.25.25.436.484.56.703.122.219.184.424.184.615a.848.848 0 0 1-.37.736c-.245.173-.587.26-1.025.26-.164 0-.332-.011-.504-.035a4.499 4.499 0 0 1-.527-.105v-.768c.16.067.317.116.472.15.154.033.3.05.436.05.223 0 .399-.052.528-.156a.51.51 0 0 0 .193-.419c0-.11-.043-.25-.129-.422a4.405 4.405 0 0 0-.387-.61zM43.849 31.57v-1.318H42.46c-.535 0-.933.115-1.195.345-.262.23-.393.584-.393 1.06 0 .434.133.778.399 1.032.265.254.625.38 1.078.38.45 0 .811-.138 1.087-.415.275-.277.413-.639.413-1.084zm1.078-1.934v3.27h.961v.62h-2.039v-.673a2.22 2.22 0 0 1-.826.639 2.715 2.715 0 0 1-1.096.205c-.691 0-1.24-.184-1.646-.551-.407-.367-.61-.863-.61-1.488 0-.645.233-1.145.697-1.5.465-.356 1.122-.533 1.97-.533h1.511v-.428c0-.473-.144-.839-.43-1.099-.288-.26-.691-.39-1.21-.39-.43 0-.772.098-1.026.294-.254.195-.412.484-.475.867h-.556v-1.26c.375-.16.739-.28 1.092-.36.354-.08.699-.12 1.035-.12.863 0 1.52.213 1.971.641.451.428.677 1.05.677 1.866zM47.388 25.365c0-.18.065-.336.196-.469.131-.133.288-.2.472-.2.18 0 .335.067.466.2.13.133.196.29.196.469 0 .183-.064.34-.193.469a.638.638 0 0 1-.469.193.648.648 0 0 1-.472-.193.634.634 0 0 1-.196-.47zm1.377 7.54h1.02v.622h-3.13v-.621h1.032v-4.98h-1.031v-.628h2.109zM50.74 33.181v-1.453h.62c.016.465.162.813.437 1.043.276.23.683.346 1.222.346.484 0 .853-.091 1.107-.273.254-.181.381-.446.381-.794a.85.85 0 0 0-.278-.662c-.186-.168-.577-.347-1.175-.539l-.78-.264c-.534-.171-.922-.386-1.162-.644-.24-.258-.36-.586-.36-.984 0-.57.208-1.018.626-1.342.418-.324.996-.487 1.735-.487.328 0 .673.043 1.037.13.363.085.738.21 1.125.374v1.36h-.621c-.016-.403-.157-.717-.422-.944-.266-.226-.627-.34-1.084-.34-.453 0-.796.08-1.029.24-.232.16-.348.401-.348.721 0 .262.088.472.263.63.176.159.528.32 1.055.484l.856.263c.59.184 1.014.414 1.274.689.26.275.39.63.39 1.063 0 .59-.226 1.054-.677 1.392-.451.338-1.073.507-1.866.507a5.36 5.36 0 0 1-1.178-.13 6.024 6.024 0 0 1-1.148-.386z" style="font-size:12px;font-variant:normal;font-stretch:normal;font-family:DejaVu Serif;-inkscape-font-specification:DejaVu Serif" transform="matrix(4.26667 0 0 4.26667 .699 -1.148)"/></g></svg>