<svg xmlns="http://www.w3.org/2000/svg" width="40mm" height="40mm" viewBox="0 0 40 40"><defs><clipPath id="a" clipPathUnits="userSpaceOnUse"><path d="M160.463 232.429h58.019v38.932h-58.019z" style="fill:#301b0b;stroke-width:.26458332"/></clipPath><clipPath id="b" clipPathUnits="userSpaceOnUse"><path d="M134.52 284.363c-.092-.243-.127-12.744-.077-27.781l.091-27.34 55.122-.09 55.121-.09v55.742h-55.044c-43.71 0-55.079-.09-55.213-.441zm109.552-27.428v-26.812l-.882-.025c-.485-.014-24.774-.025-53.975-.025s-53.252.011-53.446.025c-.232.017-.353 9.215-.353 26.837v26.81h108.656zm-69.41 20.803c-.902-.363-1.079-1.4-.239-1.4.504 0 .504-.051 0-.555-.696-.696-.696-1.017 0-1.714.694-.693 1.362-.705 2.032-.034.446.446.548.448.713.02.169-.44 1.171-.512 3.115-.223.133.02.349.374.48.787.232.73.26.724 1.04-.254.693-.868.88-.94 1.373-.532.376.312.57.339.57.078 0-.477 1.383-.515 2.106-.058.327.207.682.19.965-.045.904-.75 1.467-.077 1.256 1.5-.197 1.464-.186 1.482.736 1.25.78-.195.935-.116.935.478 0 .61-.23.712-1.587.712-1.442 0-1.588-.078-1.588-.848 0-.676-.144-.812-.706-.665-.39.102-.705.481-.705.849 0 .423-.25.664-.686.664-.565 0-.71-.296-.819-1.675l-.132-1.676-.063 1.676-.064 1.675h-1.382c-.775 0-1.46-.193-1.56-.44-.142-.353-.183-.353-.205 0-.015.242-.266.44-.557.44-.393 0-.53-.413-.53-1.608 0-1.087-.126-1.53-.39-1.367-.243.15-.308.763-.17 1.62.22 1.374.217 1.378-.933 1.321-.634-.032-1.39.033-1.681.143-.291.11-.887.056-1.323-.12zm21.605-.125c-.496-.363-.824-.39-1.277-.107-.49.306-.753.21-1.329-.482l-.718-.863-.012.794c-.022 1.5-1.02.896-1.165-.706l-.135-1.5-.061 1.5c-.051 1.244-.182 1.5-.768 1.5-.593 0-.714-.253-.758-1.588a73.42 73.42 0 0 0-.088-2.029c-.06-.754 2.34-.655 3.182.132.746.697.748.697.937-.025.22-.84.893-.958 1.18-.208.171.444.322.435 1.084-.064.702-.46 1.09-.502 1.878-.205.673.254 1.11.26 1.352.017.78-.779 1.41-.01 1.21 1.477-.156 1.17-.086 1.434.384 1.434.448 0 .576-.356.576-1.613 0-1.347.102-1.594.617-1.495.34.066.601.315.582.555-.02.24-.06 1.075-.088 1.855-.043 1.138-.225 1.497-.92 1.814-.685.312-1.042.282-1.692-.144-.707-.464-.918-.47-1.493-.05-.849.62-1.63.621-2.478 0zm-3.82-1.717c-.098-.242-.178-.044-.178.441s.08.684.178.441a1.36 1.36 0 0 0 0-.882zm5.496-.08c.195-1.02.035-1.267-.649-1.004-.774.297-.582 1.878.229 1.878.139 0 .328-.393.42-.874zm5.207 1.495c0-.99 1.268-3.44 1.782-3.442.557 0 2.197 3.31 1.824 3.683-.413.413-1.49.172-1.49-.333 0-.29-.158-.529-.353-.529-.194 0-.352.238-.352.53 0 .293-.314.528-.706.528-.388 0-.705-.196-.705-.437zm-14.01-14.732c-.01-4.754.103-8.167.251-7.585l.27 1.059.041-.991c.024-.563.194-.897.395-.773.402.249.413 8.406.017 13.582-.237 3.11-.264 3.198-.372 1.234l-.117-2.116-.234 2.116c-.13 1.185-.242-1.687-.251-6.526zm-7.863-5.743c0-.286 1.48-1.88 3.29-3.54 2.964-2.72 4.075-3.344 4.638-2.604.102.135.084.17-.042.076-.125-.093-1.481 1.054-3.013 2.549-3.214 3.136-4.873 4.335-4.873 3.52zm4.057-3.43c.758-.775 1.299-1.41 1.202-1.41-.097 0-.797.635-1.554 1.41-.758.777-1.299 1.412-1.202 1.412.097 0 .796-.635 1.554-1.411zm2.47-2.116c.351-.388.559-.705.462-.705-.097 0-.464.317-.815.705-.351.388-.56.706-.462.706.097 0 .464-.318.815-.706zm9.776 5.382c-.25-.34-.342-.394-.206-.117.377.762-.659-.044-4.032-3.14-3.274-3.005-3.46-4.314-.22-1.552 3.899 3.324 5.186 4.602 5.05 5.013-.09.27-.298.198-.592-.204zm-.78-.929c0-.073-.278-.351-.618-.617-.56-.44-.572-.427-.133.133.46.587.75.774.75.484zm-3.528-3.218c-.857-.873-1.638-1.588-1.735-1.588-.097 0 .525.715 1.382 1.588.857.873 1.637 1.587 1.734 1.587.097 0-.524-.714-1.381-1.587zm-17.463-2.646c-4.895-.205-4.876-.207 2.117-.24 4.542-.02 6.553.072 5.644.26-.776.16-1.728.268-2.116.24-.388-.03-2.928-.146-5.645-.26zm19.403-.032c-.582-.13 2.117-.244 5.997-.251 3.88-.008 6.897.041 6.703.11-.713.248-11.675.37-12.7.14zm-9.767-.209c.254-.102.559-.09.676.028.117.117-.091.2-.463.185-.411-.017-.495-.1-.213-.213zm-8.817-.808c3.167-.125 6.42-.118 7.232.014.81.133-1.78.234-5.758.226l-7.232-.014zm18.584.008c1.026-.245 12.551-.062 12.847.203.08.073-3.015.113-6.88.09-3.863-.023-6.549-.155-5.967-.293zm-8.999-1.858c-3.946-3.564-5.282-4.94-5.091-5.249.286-.463 1.91.763 5.168 3.901 1.985 1.912 2.601 2.696 2.146 2.73-.351.027-1.352-.595-2.223-1.382zm1.414.68c0-.055-.833-.889-1.852-1.852l-1.852-1.75 1.75 1.852c1.628 1.72 1.954 2.014 1.954 1.75zm2.887.47c.194-.53 7.422-7.07 7.812-7.07.205 0 .064.238-.312.53-.571.441-.582.493-.068.314.34-.118.618-.138.618-.044 0 .444-6.756 6.305-7.414 6.432-.412.08-.698.007-.636-.162zm2.229-1.426c.758-.777 1.298-1.412 1.201-1.412-.097 0-.796.635-1.554 1.412-.758.776-1.299 1.41-1.202 1.41.097 0 .797-.634 1.555-1.41zm3.704-3.352c.456-.485.749-.882.652-.882-.097 0-.55.397-1.005.882-.456.485-.75.882-.652.882.097 0 .55-.397 1.005-.882zm-6.706 1.058c-.072-1.57-.11-1.647-.35-.705-.157.617-.266-1.223-.26-4.41.004-3.305.108-4.91.26-4.057l.253 1.411.05-1.381c.096-2.662.392-1.002.595 3.345.113 2.412.054 5.1-.131 5.974l-.337 1.587z" clip-path="url(#a)" style="fill:#000;stroke-width:.35277778"/></clipPath></defs><path d="M167.834 234.951h40v40h-40z" style="fill:#31289f;fill-opacity:1;stroke:none;stroke-width:3.53665948;stroke-linecap:round;stroke-linejoin:round;stroke-miterlimit:4;stroke-dasharray:none;stroke-opacity:1;paint-order:stroke fill markers" transform="translate(-167.834 -234.951)"/><path d="M167.834 229.594H209.6v45.357h-41.766z" clip-path="url(#b)" style="fill:#e6e6e6;fill-opacity:1;stroke-width:.26458332" transform="translate(-169.95 -232.306)"/></svg>