<svg xmlns="http://www.w3.org/2000/svg" width="900" height="900" version="1.0" viewBox="0 0 675 675"><g style="fill:#009;stroke:none"><path d="M302 838c-14-14-16-126-3-147 5-8 16-11 25-8 12 5 16 21 16 71 0 89-10 112-38 84zm219-63c-27-57-32-108-10-113 18-3 84 122 75 144-11 30-44 15-65-31zM34 797c-8-22 59-158 76-154 38 7-11 167-51 167-11 0-22-6-25-13Zm220-207c-50-7-128-52-175-100-98-100-65-346 57-423 63-40 107-50 200-44 125 7 212 62 275 172 53 92 32 220-51 317-62 71-170 99-306 78z" style="fill:#2950ff;stroke:none;fill-opacity:1" transform="matrix(.7091 0 0 -.7091 102.916 646.182)"/><path d="M443 539c47-13 112-70 138-120 24-48 26-147 3-190-22-43-82-108-117-125-137-71-277-55-351 41-39 52-51 92-51 175 1 77 19 113 82 161 80 63 198 86 296 58z" style="fill:#ffec81;stroke:none;fill-opacity:1" transform="matrix(.7091 0 0 -.7091 102.916 646.182)"/><path d="M467.027 364.196c-5-7-14.603-29.83-20.603-49.83C425.424 247.366 341 199 297 221c-30 15-65 56-88 102-21 40-39.654 31.783-41.465 5.771C162.535 302.771 205 226 248 196c89-62 204-7 252 119 15 40-9.973 78.196-32.973 49.196z" style="fill:#2950ff;fill-opacity:1;stroke:none" transform="matrix(.7091 0 0 -.7091 102.916 646.182)"/></g></svg>