<svg xmlns="http://www.w3.org/2000/svg" width="44" height="44" version="1.2"><path d="M7.049.654c-.06-.003-.09.025-.094.084l-.16 2.944c-.002.064-.039.096-.104.1a22.26 22.26 0 0 1-4.36-.268l-.339-.063c-.07-.013-.106.016-.11.088l-.025.557.004 1.812a.17.17 0 0 0 .166.17l4.53.092c.064 0 .094.034.093.098L6.566 8.89a.129.129 0 0 1-.074.117l-1.668.875-.56.39C1.89 12.205.553 14.82 1.227 17.923l.308.694c1.804 3.2 5.64 1.71 7.787-.086a19.105 19.105 0 0 0 4.272-5.011l.367-.637.959-1.908a.151.151 0 0 1 .19-.073c1.767.71 2.775 2.065 2.359 4.053-.454 2.208-3.448 3.37-5.442 3.625l-1.588.104c-.079.006-.093.04-.048.105a8.207 8.207 0 0 1 1.072 2.133l.101.408c2.561-.109 4.845-.947 6.85-2.514l1.184-1.414c.68-1.23.95-2.526.804-3.886a5.222 5.222 0 0 0-1.064-2.668L18.234 9.77a8.91 8.91 0 0 0-2.347-1.14c-.076-.023-.1-.072-.07-.147l.581-1.425-2.49-.711a.172.172 0 0 0-.215.123l-.398 1.5c-.02.073-.067.106-.143.1a14.35 14.35 0 0 0-3.896.228c-.094.019-.14-.022-.135-.12l.106-1.98c.004-.064.037-.097.101-.101a87.65 87.65 0 0 0 9.156-.971L18.38 3.58l-.068-1.133-3.24.676-4.405.479-1.16.09c-.091.006-.13-.036-.117-.126L9.75.91c.009-.068-.02-.105-.088-.115L9.38.76 7.049.654zm33.873 3.93c-.02-.01-.053.007-.094.047l-.683.642-3.108 9.118c-.394-.233-4.029-4.49-8.135-7.075-3.492-1.366-5.738-3.21-9.336-2.324-.098.408-.043.67.164.785 9.226 3.088 13.684 9.122 14.772 10.647-1.279 1.097-6.842 2.97-9.527 4.027a.08.08 0 0 0 .056.139l1.323.002h11.66l2.162-.006.65-.01c.077 0 .117-.042.12-.119l.017-3.018-.006-2.834-.004-9.921c0-.057-.01-.09-.031-.1zm-28.57 5.613c.084.003.109.044.076.121a17.948 17.948 0 0 1-2.989 4.745c-.115.13-.174.108-.181-.065l-.18-4.236c-.004-.1.043-.163.139-.19a10.164 10.164 0 0 1 3.135-.375zM6.598 11.78c.017.01.025.033.025.073l.043 1.914.348 3.072a.164.164 0 0 1-.051.144c-.99.95-2.606 1.437-3.252-.2-.093-2.188.842-3.848 2.809-4.987.034-.02.06-.025.078-.016zm.478 12.764-2.162.006-.652.01c-.078.002-.116.04-.117.117l-.018 3.017.006 2.834.004 9.922c0 .114.04.134.123.055l.683-.645 3.108-9.115c.395.233 4.029 4.487 8.135 7.072 3.492 1.366 5.736 3.214 9.335 2.327.097-.408.042-.672-.164-.788-9.359-3.132-13.809-9.292-14.816-10.707l-.018-.025c1.59-1.096 6.87-2.828 9.59-3.941a.08.08 0 0 0-.054-.137l-1.323-.002H7.076zM31.75 25l-6.691 18.346h3.84l1.628-4.688h6.993l1.626 4.688h3.803L36.281 25H31.75zm2.266 2.826.273.899.56 1.77 1.811 5.273h-5.273c1.371-3.993 2.117-6.189 2.238-6.588.122-.4.226-.756.313-1.069l.078-.285z" style="fill:#fff;fill-opacity:1;stroke:#000;stroke-opacity:1;stroke-width:.4;stroke-dasharray:none"/></svg>