<svg xmlns="http://www.w3.org/2000/svg" height="24" width="24"><path style="fill:#000;fill-opacity:1;stroke-width:1px;stroke-linecap:butt;stroke-linejoin:miter;stroke-opacity:1" d="M10.73 7.703h1.81S11.566.36 10.313.36c-1.252 0-1.19.881-1.19.881s2.72 4.47 1.608 6.462z"/><path style="fill:#006dff;fill-opacity:1;stroke:#000;stroke-width:.84286922;stroke-linecap:round;stroke-linejoin:round;stroke-miterlimit:4;stroke-dasharray:none;stroke-opacity:1" d="M11.895 7.697S8.694 5.92 4.889 6.844C-2.593 8.662.374 22.763 6.12 23.163c3.318.23 2.804-.966 5.021-.792 2.207.172 1.246.907 4.319 1.022 5.17-.019 8.59-9.317 5.299-14.345-.858-1.31-1.89-2.08-3.904-2.511-3.196-.808-4.713 1.275-4.96 1.16Z"/><path style="fill:#fff;fill-opacity:1;stroke:#000;stroke-width:.67429537;stroke-linecap:butt;stroke-linejoin:miter;stroke-miterlimit:4;stroke-dasharray:none;stroke-opacity:1" d="M11.775 7.298s.599-2.341 3.93-3.641c3.332-1.3 5.708-.66 5.708-.66 1.48.21-1 4.9-5.443 5.1-4.442.2-4.195-.7-4.195-.8z"/></svg>