<svg xmlns="http://www.w3.org/2000/svg" width="668" height="674"><defs><filter id="a" x="-.285" width="1.57" y="-.123" height="1.246"><feGaussianBlur stdDeviation="9.871"/></filter><filter id="b" x="-.123" width="1.245" y="-.284" height="1.567"><feGaussianBlur stdDeviation="9.871"/></filter><filter id="c" x="-.161" width="1.322" y="-.16" height="1.32"><feGaussianBlur stdDeviation="9.871"/></filter><filter id="d" x="-.285" width="1.57" y="-.123" height="1.246"><feGaussianBlur stdDeviation="9.871"/></filter><filter id="e" x="-.123" width="1.245" y="-.284" height="1.567"><feGaussianBlur stdDeviation="9.871"/></filter><filter id="f" x="-.161" width="1.322" y="-.16" height="1.32"><feGaussianBlur stdDeviation="9.871"/></filter><filter id="g" x="-.284" width="1.567" y="-.123" height="1.245"><feGaussianBlur stdDeviation="9.871"/></filter><filter id="h" x="-.16" width="1.32" y="-.161" height="1.322"><feGaussianBlur stdDeviation="9.871"/></filter><filter id="i" x="-.123" width="1.246" y="-.285" height="1.57"><feGaussianBlur stdDeviation="9.871"/></filter><filter id="j" x="-.284" width="1.567" y="-.123" height="1.245"><feGaussianBlur stdDeviation="9.871"/></filter><filter id="k" x="-.16" width="1.32" y="-.161" height="1.322"><feGaussianBlur stdDeviation="9.871"/></filter><filter id="l" x="-.123" width="1.246" y="-.285" height="1.57"><feGaussianBlur stdDeviation="9.871"/></filter><filter id="m" x="-.2" width="1.399" y="-.2" height="1.399"><feGaussianBlur stdDeviation="9.871"/></filter><filter id="n"><feGaussianBlur stdDeviation="9.871"/></filter></defs><g style="opacity:.2"><path style="fill:#000;stroke:#000;stroke-width:6;stroke-linecap:butt;stroke-linejoin:miter;stroke-opacity:1;filter:url(#a)" d="M207.438 206.781a420.998 420.998 0 0 1-37.191-45.81c-4.776-6.808-9.353-13.762-13.457-20.995-9.628-16.972-16.605-35.453-20.51-54.57-3.042-14.898-4.204-30.44-.799-45.258 1.218-5.297 3.04-10.522 6.068-15.036 3.027-4.514 7.345-8.29 12.506-9.993 5.37-1.771 11.343-1.186 16.596.907 5.252 2.093 9.84 5.609 13.83 9.617 10.457 10.506 16.972 24.314 21.708 38.361 6.156 18.26 9.64 37.427 10.192 56.689.265 9.245-.141 18.498-.826 27.722a459.882 459.882 0 0 1-8.117 58.366"/><path d="M207.438 206.781a421 421 0 0 1-58.269 9.303c-8.283.732-16.595 1.219-24.91 1.156-19.513-.147-39.006-3.345-57.515-9.523-14.423-4.814-28.463-11.578-39.594-21.937-3.978-3.702-7.591-7.894-9.987-12.772-2.395-4.879-3.508-10.506-2.401-15.827 1.15-5.536 4.644-10.417 9.083-13.92 4.439-3.502 9.778-5.717 15.243-7.167 14.328-3.804 29.543-2.542 44.077.38 18.891 3.798 37.232 10.365 54.19 19.518 8.138 4.393 15.95 9.371 23.595 14.576a459.883 459.883 0 0 1 46.488 36.213" style="fill:#000;stroke:#000;stroke-width:6;stroke-linecap:butt;stroke-linejoin:miter;stroke-opacity:1;filter:url(#b)"/><path style="fill:#000;stroke:#000;stroke-width:6;stroke-linecap:butt;stroke-linejoin:miter;stroke-opacity:1;filter:url(#c)" d="M207.438 206.781a420.998 420.998 0 0 1-21.078 55.114c-3.508 7.54-7.242 14.98-11.454 22.15-9.884 16.825-22.4 32.108-37.005 45.048-11.38 10.084-24.258 18.861-38.794 23.321-5.196 1.594-10.633 2.628-16.055 2.263-5.423-.365-10.853-2.215-14.908-5.834-4.219-3.765-6.698-9.23-7.512-14.826-.814-5.595-.063-11.326 1.413-16.785 3.87-14.31 12.571-26.856 22.369-37.981 12.735-14.462 27.592-27.062 43.997-37.17 7.874-4.853 16.09-9.128 24.42-13.147a459.881 459.881 0 0 1 54.606-22.153"/><path d="M207.438 206.781a420.998 420.998 0 0 1 37.19 45.81c4.776 6.808 9.353 13.763 13.457 20.996 9.628 16.971 16.605 35.452 20.51 54.57 3.042 14.898 4.204 30.44.799 45.258-1.218 5.297-3.04 10.521-6.068 15.035-3.027 4.514-7.345 8.291-12.506 9.994-5.37 1.77-11.343 1.186-16.596-.907-5.252-2.093-9.84-5.61-13.83-9.617-10.457-10.507-16.972-24.315-21.708-38.362-6.156-18.26-9.64-37.427-10.192-56.688-.265-9.245.141-18.499.826-27.722a459.882 459.882 0 0 1 8.117-58.367" style="fill:#000;stroke:#000;stroke-width:6;stroke-linecap:butt;stroke-linejoin:miter;stroke-opacity:1;filter:url(#d)"/><path style="fill:#000;stroke:#000;stroke-width:6;stroke-linecap:butt;stroke-linejoin:miter;stroke-opacity:1;filter:url(#e)" d="M207.438 206.781a421 421 0 0 1 58.268-9.303c8.283-.732 16.595-1.219 24.91-1.156 19.513.148 39.006 3.346 57.515 9.523 14.423 4.814 28.463 11.578 39.594 21.937 3.978 3.703 7.591 7.894 9.987 12.773 2.395 4.878 3.508 10.506 2.401 15.827-1.15 5.536-4.644 10.416-9.083 13.919-4.439 3.502-9.778 5.717-15.243 7.168-14.328 3.803-29.543 2.541-44.077-.38-18.891-3.799-37.232-10.366-54.19-19.519-8.138-4.393-15.95-9.37-23.595-14.575a459.883 459.883 0 0 1-46.487-36.214"/><path d="M207.438 206.781a421 421 0 0 1 21.077-55.113c3.508-7.54 7.242-14.981 11.454-22.151 9.884-16.825 22.4-32.107 37.005-45.048 11.38-10.083 24.258-18.86 38.794-23.32 5.196-1.595 10.633-2.628 16.055-2.263 5.423.365 10.853 2.215 14.908 5.833 4.219 3.765 6.698 9.23 7.512 14.826.814 5.596.063 11.327-1.413 16.785-3.87 14.31-12.571 26.856-22.369 37.981-12.735 14.462-27.592 27.062-43.997 37.171-7.874 4.852-16.09 9.127-24.42 13.146a459.883 459.883 0 0 1-54.606 22.153" style="fill:#000;stroke:#000;stroke-width:6;stroke-linecap:butt;stroke-linejoin:miter;stroke-opacity:1;filter:url(#f)"/><path d="M207.438 206.781a421 421 0 0 1-9.303-58.268c-.733-8.284-1.22-16.595-1.156-24.91.147-19.513 3.345-39.006 9.523-57.515 4.814-14.423 11.578-28.463 21.936-39.594 3.703-3.978 7.894-7.592 12.773-9.987 4.879-2.395 10.506-3.508 15.827-2.402 5.536 1.151 10.416 4.645 13.919 9.084 3.502 4.439 5.717 9.778 7.168 15.243 3.803 14.328 2.541 29.543-.38 44.077-3.799 18.891-10.366 37.232-19.518 54.19-4.393 8.138-9.372 15.949-14.576 23.594a459.883 459.883 0 0 1-36.214 46.488" style="fill:#000;stroke:#000;stroke-width:6;stroke-linecap:butt;stroke-linejoin:miter;stroke-opacity:1;filter:url(#g)"/><path style="fill:#000;stroke:#000;stroke-width:6;stroke-linecap:butt;stroke-linejoin:miter;stroke-opacity:1;filter:url(#h)" d="M207.438 206.781a420.998 420.998 0 0 1-55.114-21.077c-7.54-3.508-14.981-7.242-22.15-11.454-16.825-9.884-32.108-22.4-45.048-37.005-10.084-11.38-18.861-24.258-23.321-38.795-1.594-5.195-2.628-10.632-2.263-16.054.365-5.423 2.215-10.853 5.834-14.908 3.765-4.219 9.23-6.699 14.825-7.513 5.596-.813 11.327-.062 16.785 1.414 14.31 3.87 26.856 12.571 37.982 22.368 14.461 12.735 27.061 27.593 37.17 43.998 4.852 7.874 9.128 16.09 13.147 24.42a459.881 459.881 0 0 1 22.152 54.606"/><path d="M207.438 206.781a420.998 420.998 0 0 1-45.811 37.191c-6.807 4.776-13.762 9.353-20.995 13.456-16.972 9.629-35.452 16.606-54.57 20.51-14.898 3.043-30.44 4.205-45.258.8-5.297-1.218-10.522-3.04-15.035-6.068-4.514-3.028-8.292-7.345-9.994-12.506-1.771-5.37-1.186-11.343.907-16.596s5.61-9.84 9.617-13.83c10.507-10.457 24.314-16.972 38.362-21.708 18.26-6.157 37.426-9.64 56.688-10.192 9.245-.265 18.499.141 27.722.825a459.882 459.882 0 0 1 58.366 8.118" style="fill:#000;stroke:#000;stroke-width:6;stroke-linecap:butt;stroke-linejoin:miter;stroke-opacity:1;filter:url(#i)"/><path style="fill:#000;stroke:#000;stroke-width:6;stroke-linecap:butt;stroke-linejoin:miter;stroke-opacity:1;filter:url(#j)" d="M207.438 206.781a421 421 0 0 1 9.302 58.269c.733 8.283 1.22 16.595 1.156 24.91-.147 19.512-3.345 39.005-9.523 57.515-4.814 14.422-11.578 28.463-21.936 39.593-3.703 3.979-7.894 7.592-12.773 9.987-4.879 2.396-10.506 3.509-15.827 2.402-5.536-1.151-10.416-4.644-13.919-9.083-3.502-4.44-5.717-9.778-7.168-15.243-3.803-14.328-2.541-29.544.38-44.077 3.799-18.892 10.366-37.232 19.518-54.19 4.393-8.139 9.372-15.95 14.576-23.595a459.883 459.883 0 0 1 36.214-46.488"/><path d="M207.438 206.781a420.998 420.998 0 0 1 55.113 21.078c7.54 3.507 14.981 7.242 22.15 11.454 16.825 9.884 32.108 22.4 45.048 37.005 10.084 11.38 18.861 24.258 23.321 38.794 1.594 5.196 2.628 10.632 2.263 16.055-.365 5.423-2.215 10.853-5.834 14.908-3.765 4.218-9.23 6.698-14.825 7.512-5.596.814-11.327.063-16.785-1.414-14.31-3.87-26.856-12.57-37.982-22.368-14.461-12.735-27.061-27.592-37.17-43.997-4.852-7.874-9.128-16.091-13.147-24.421a459.881 459.881 0 0 1-22.152-54.606" style="fill:#000;stroke:#000;stroke-width:6;stroke-linecap:butt;stroke-linejoin:miter;stroke-opacity:1;filter:url(#k)"/><path style="fill:#000;stroke:#000;stroke-width:6;stroke-linecap:butt;stroke-linejoin:miter;stroke-opacity:1;filter:url(#l)" d="M207.438 206.781a421 421 0 0 1 45.81-37.19c6.807-4.776 13.762-9.354 20.995-13.457 16.972-9.628 35.452-16.605 54.57-20.51 14.898-3.042 30.44-4.205 45.258-.799 5.297 1.217 10.522 3.04 15.035 6.068 4.514 3.027 8.292 7.344 9.994 12.506 1.771 5.37 1.186 11.343-.907 16.595-2.093 5.253-5.61 9.84-9.617 13.83-10.507 10.458-24.315 16.972-38.362 21.709-18.26 6.156-37.426 9.64-56.688 10.191-9.245.266-18.499-.14-27.722-.825a459.882 459.882 0 0 1-58.366-8.118"/><path d="M207.438 147.438c-32.764 0-59.313 26.58-59.313 59.343 0 32.764 26.55 59.313 59.313 59.313 32.763 0 59.343-26.55 59.343-59.313 0-32.763-26.58-59.344-59.344-59.344z" style="fill:#000;stroke:#000;stroke-width:6;filter:url(#m)"/><path d="M473.031 280.563c-5.022 0-10.01.192-14.937.562l-8.625 46.156a150.922 150.922 0 0 0-26.25 6.563l-29.344-36.719a196.603 196.603 0 0 0-31.938 17.781l15.625 44.313A152.768 152.768 0 0 0 358.156 378l-43.781-17.125a196.833 196.833 0 0 0-18.844 31.344l35.688 30.562a150.782 150.782 0 0 0-7.406 26l-46.47 7.031a198.95 198.95 0 0 0-1.156 21.625c0 5.023.193 10.01.563 14.938L322.906 501a150.926 150.926 0 0 0 6.531 26.219l-36.687 29.343a196.658 196.658 0 0 0 17.75 31.97l44.313-15.626a152.678 152.678 0 0 0 18.78 19.407l-17.124 43.78a196.816 196.816 0 0 0 31.344 18.845l30.562-35.688a150.77 150.77 0 0 0 26 7.406l7.031 46.469a198.945 198.945 0 0 0 21.625 1.156c5.023 0 10.01-.193 14.938-.562l8.625-46.157a151.167 151.167 0 0 0 26.219-6.53l29.343 36.687a196.675 196.675 0 0 0 31.969-17.75L568.5 595.656a152.933 152.933 0 0 0 19.438-18.781L631.688 594a196.879 196.879 0 0 0 18.843-31.313l-35.656-30.562c3.221-8.345 5.692-17.05 7.406-26.031l46.469-7.031a198.86 198.86 0 0 0 1.156-21.625c0-5.023-.193-10.01-.562-14.938l-46.157-8.625a151.161 151.161 0 0 0-6.562-26.25l36.719-29.344a196.62 196.62 0 0 0-17.782-31.937l-44.312 15.625a153.024 153.024 0 0 0-18.781-19.438l17.125-43.75a196.895 196.895 0 0 0-31.313-18.844l-30.562 35.657c-8.346-3.221-17.05-5.692-26.032-7.406l-7.03-46.47a198.864 198.864 0 0 0-21.626-1.156zm113.57 196.862c0 62.715-50.84 113.556-113.556 113.556-62.715 0-113.556-50.841-113.556-113.556 0-62.716 50.841-113.556 113.556-113.556 62.716 0 113.556 50.84 113.556 113.556z" style="fill:#000;fill-opacity:1;stroke:#000;stroke-width:3;display:inline;filter:url(#n)"/></g><g style="display:inline"><g style="fill:#fff;stroke:#000"><path style="fill:#fff;stroke:#000;stroke-width:6;stroke-linecap:butt;stroke-linejoin:miter;stroke-opacity:1" d="M197.438 196.781a421 421 0 0 1-9.303-58.268c-.733-8.284-1.22-16.595-1.156-24.91.147-19.513 3.345-39.006 9.523-57.515 4.814-14.423 11.578-28.463 21.936-39.594 3.703-3.978 7.894-7.592 12.773-9.987C236.09 4.112 241.717 3 247.038 4.105c5.536 1.151 10.416 4.645 13.919 9.084 3.502 4.439 5.717 9.778 7.168 15.243 3.803 14.328 2.541 29.543-.38 44.077-3.799 18.891-10.366 37.232-19.518 54.19-4.393 8.138-9.372 15.949-14.576 23.594a459.883 459.883 0 0 1-36.214 46.488" transform="rotate(-30 197.438 196.781)"/><path d="M197.438 196.781a420.998 420.998 0 0 1-55.114-21.077c-7.54-3.508-14.981-7.242-22.15-11.454-16.825-9.884-32.108-22.4-45.048-37.005-10.084-11.38-18.861-24.258-23.321-38.795-1.594-5.195-2.628-10.632-2.263-16.054.365-5.423 2.215-10.853 5.834-14.908 3.765-4.219 9.23-6.699 14.825-7.513 5.596-.813 11.327-.062 16.785 1.414 14.31 3.87 26.856 12.571 37.982 22.368 14.461 12.735 27.061 27.593 37.17 43.998 4.852 7.874 9.128 16.09 13.147 24.42a459.881 459.881 0 0 1 22.152 54.606" style="fill:#fff;stroke:#000;stroke-width:6;stroke-linecap:butt;stroke-linejoin:miter;stroke-opacity:1" transform="rotate(-30 197.438 196.781)"/><path style="fill:#fff;stroke:#000;stroke-width:6;stroke-linecap:butt;stroke-linejoin:miter;stroke-opacity:1" d="M197.438 196.781a420.998 420.998 0 0 1-45.811 37.191c-6.807 4.776-13.762 9.353-20.995 13.456-16.972 9.629-35.452 16.606-54.57 20.51-14.898 3.043-30.44 4.205-45.258.8-5.297-1.218-10.522-3.04-15.035-6.068-4.514-3.028-8.292-7.345-9.994-12.506-1.771-5.37-1.186-11.343.907-16.596s5.61-9.84 9.617-13.83c10.507-10.457 24.314-16.972 38.362-21.708 18.26-6.157 37.426-9.64 56.688-10.192 9.245-.265 18.499.141 27.722.825a459.882 459.882 0 0 1 58.366 8.118M197.438 196.781a421 421 0 0 1 9.302 58.269c.733 8.283 1.22 16.595 1.156 24.91-.147 19.512-3.345 39.005-9.523 57.515-4.814 14.422-11.578 28.463-21.936 39.593-3.703 3.979-7.894 7.592-12.773 9.987-4.879 2.396-10.506 3.509-15.827 2.402-5.536-1.151-10.416-4.644-13.919-9.083-3.502-4.44-5.717-9.778-7.168-15.243-3.803-14.328-2.541-29.544.38-44.077 3.799-18.892 10.366-37.232 19.518-54.19 4.393-8.139 9.372-15.95 14.576-23.595a459.883 459.883 0 0 1 36.214-46.488" transform="rotate(-30 197.438 196.781)"/><path style="fill:#fff;stroke:#000;stroke-width:6;stroke-linecap:butt;stroke-linejoin:miter;stroke-opacity:1" d="M197.438 196.781a420.998 420.998 0 0 1 55.113 21.078c7.54 3.507 14.981 7.242 22.15 11.454 16.825 9.884 32.108 22.4 45.048 37.005 10.084 11.38 18.861 24.258 23.321 38.794 1.594 5.196 2.628 10.632 2.263 16.055-.365 5.423-2.215 10.853-5.834 14.908-3.765 4.218-9.23 6.698-14.825 7.512-5.596.814-11.327.063-16.785-1.414-14.31-3.87-26.856-12.57-37.982-22.368-14.461-12.735-27.061-27.592-37.17-43.997-4.852-7.874-9.128-16.091-13.147-24.421a459.881 459.881 0 0 1-22.152-54.606" transform="rotate(-30 197.438 196.781)"/><path d="M197.438 196.781a421 421 0 0 1 45.81-37.19c6.807-4.776 13.762-9.354 20.995-13.457 16.972-9.628 35.452-16.605 54.57-20.51 14.898-3.042 30.44-4.205 45.258-.799 5.297 1.217 10.522 3.04 15.035 6.068 4.514 3.027 8.292 7.344 9.994 12.506 1.771 5.37 1.186 11.343-.907 16.595-2.093 5.253-5.61 9.84-9.617 13.83-10.507 10.458-24.315 16.972-38.362 21.709-18.26 6.156-37.426 9.64-56.688 10.191-9.245.266-18.499-.14-27.722-.825a459.882 459.882 0 0 1-58.366-8.118" style="fill:#fff;stroke:#000;stroke-width:6;stroke-linecap:butt;stroke-linejoin:miter;stroke-opacity:1" transform="rotate(-30 197.438 196.781)"/></g><g style="fill:#fff;stroke:#000"><path d="M197.438 196.781a421 421 0 0 1-9.303-58.268c-.733-8.284-1.22-16.595-1.156-24.91.147-19.513 3.345-39.006 9.523-57.515 4.814-14.423 11.578-28.463 21.936-39.594 3.703-3.978 7.894-7.592 12.773-9.987C236.09 4.112 241.717 3 247.038 4.105c5.536 1.151 10.416 4.645 13.919 9.084 3.502 4.439 5.717 9.778 7.168 15.243 3.803 14.328 2.541 29.543-.38 44.077-3.799 18.891-10.366 37.232-19.518 54.19-4.393 8.138-9.372 15.949-14.576 23.594a459.883 459.883 0 0 1-36.214 46.488" style="fill:#fff;stroke:#000;stroke-width:6;stroke-linecap:butt;stroke-linejoin:miter;stroke-opacity:1"/><path style="fill:#fff;stroke:#000;stroke-width:6;stroke-linecap:butt;stroke-linejoin:miter;stroke-opacity:1" d="M197.438 196.781a420.998 420.998 0 0 1-55.114-21.077c-7.54-3.508-14.981-7.242-22.15-11.454-16.825-9.884-32.108-22.4-45.048-37.005-10.084-11.38-18.861-24.258-23.321-38.795-1.594-5.195-2.628-10.632-2.263-16.054.365-5.423 2.215-10.853 5.834-14.908 3.765-4.219 9.23-6.699 14.825-7.513 5.596-.813 11.327-.062 16.785 1.414 14.31 3.87 26.856 12.571 37.982 22.368 14.461 12.735 27.061 27.593 37.17 43.998 4.852 7.874 9.128 16.09 13.147 24.42a459.881 459.881 0 0 1 22.152 54.606"/><path d="M197.438 196.781a420.998 420.998 0 0 1-45.811 37.191c-6.807 4.776-13.762 9.353-20.995 13.456-16.972 9.629-35.452 16.606-54.57 20.51-14.898 3.043-30.44 4.205-45.258.8-5.297-1.218-10.522-3.04-15.035-6.068-4.514-3.028-8.292-7.345-9.994-12.506-1.771-5.37-1.186-11.343.907-16.596s5.61-9.84 9.617-13.83c10.507-10.457 24.314-16.972 38.362-21.708 18.26-6.157 37.426-9.64 56.688-10.192 9.245-.265 18.499.141 27.722.825a459.882 459.882 0 0 1 58.366 8.118M197.438 196.781a421 421 0 0 1 9.302 58.269c.733 8.283 1.22 16.595 1.156 24.91-.147 19.512-3.345 39.005-9.523 57.515-4.814 14.422-11.578 28.463-21.936 39.593-3.703 3.979-7.894 7.592-12.773 9.987-4.879 2.396-10.506 3.509-15.827 2.402-5.536-1.151-10.416-4.644-13.919-9.083-3.502-4.44-5.717-9.778-7.168-15.243-3.803-14.328-2.541-29.544.38-44.077 3.799-18.892 10.366-37.232 19.518-54.19 4.393-8.139 9.372-15.95 14.576-23.595a459.883 459.883 0 0 1 36.214-46.488" style="fill:#fff;stroke:#000;stroke-width:6;stroke-linecap:butt;stroke-linejoin:miter;stroke-opacity:1"/><path d="M197.438 196.781a420.998 420.998 0 0 1 55.113 21.078c7.54 3.507 14.981 7.242 22.15 11.454 16.825 9.884 32.108 22.4 45.048 37.005 10.084 11.38 18.861 24.258 23.321 38.794 1.594 5.196 2.628 10.632 2.263 16.055-.365 5.423-2.215 10.853-5.834 14.908-3.765 4.218-9.23 6.698-14.825 7.512-5.596.814-11.327.063-16.785-1.414-14.31-3.87-26.856-12.57-37.982-22.368-14.461-12.735-27.061-27.592-37.17-43.997-4.852-7.874-9.128-16.091-13.147-24.421a459.881 459.881 0 0 1-22.152-54.606" style="fill:#fff;stroke:#000;stroke-width:6;stroke-linecap:butt;stroke-linejoin:miter;stroke-opacity:1"/><path style="fill:#fff;stroke:#000;stroke-width:6;stroke-linecap:butt;stroke-linejoin:miter;stroke-opacity:1" d="M197.438 196.781a421 421 0 0 1 45.81-37.19c6.807-4.776 13.762-9.354 20.995-13.457 16.972-9.628 35.452-16.605 54.57-20.51 14.898-3.042 30.44-4.205 45.258-.799 5.297 1.217 10.522 3.04 15.035 6.068 4.514 3.027 8.292 7.344 9.994 12.506 1.771 5.37 1.186 11.343-.907 16.595-2.093 5.253-5.61 9.84-9.617 13.83-10.507 10.458-24.315 16.972-38.362 21.709-18.26 6.156-37.426 9.64-56.688 10.191-9.245.266-18.499-.14-27.722-.825a459.882 459.882 0 0 1-58.366-8.118"/></g><path style="fill:#ffc600;stroke:#000;stroke-width:6;fill-opacity:1" d="M197.438 137.438c-32.764 0-59.313 26.58-59.313 59.343 0 32.764 26.55 59.313 59.313 59.313 32.763 0 59.343-26.55 59.343-59.313 0-32.763-26.58-59.344-59.344-59.344z"/></g><g style="display:inline"><path style="fill:#0080ff;fill-opacity:1;stroke:#000;stroke-width:3" d="M463.031 270.563c-5.022 0-10.01.192-14.937.562l-8.625 46.156a150.922 150.922 0 0 0-26.25 6.563l-29.344-36.719a196.603 196.603 0 0 0-31.938 17.781l15.625 44.313A152.768 152.768 0 0 0 348.156 368l-43.781-17.125a196.833 196.833 0 0 0-18.844 31.344l35.688 30.562a150.782 150.782 0 0 0-7.406 26l-46.47 7.031a198.95 198.95 0 0 0-1.156 21.625c0 5.023.193 10.01.563 14.938L312.906 491a150.926 150.926 0 0 0 6.531 26.219l-36.687 29.343a196.658 196.658 0 0 0 17.75 31.97l44.313-15.626a152.678 152.678 0 0 0 18.78 19.407l-17.124 43.78a196.816 196.816 0 0 0 31.344 18.845l30.562-35.688a150.77 150.77 0 0 0 26 7.406l7.031 46.469a198.945 198.945 0 0 0 21.625 1.156c5.023 0 10.01-.193 14.938-.562l8.625-46.157a151.167 151.167 0 0 0 26.219-6.53l29.343 36.687a196.675 196.675 0 0 0 31.969-17.75L558.5 585.656a152.933 152.933 0 0 0 19.438-18.781L621.688 584a196.879 196.879 0 0 0 18.843-31.313l-35.656-30.562c3.221-8.345 5.692-17.05 7.406-26.031l46.469-7.031a198.86 198.86 0 0 0 1.156-21.625c0-5.023-.193-10.01-.562-14.938l-46.157-8.625a151.161 151.161 0 0 0-6.562-26.25l36.719-29.344a196.62 196.62 0 0 0-17.782-31.937l-44.312 15.625a153.024 153.024 0 0 0-18.781-19.438l17.125-43.75a196.895 196.895 0 0 0-31.313-18.844l-30.562 35.657c-8.346-3.221-17.05-5.692-26.032-7.406l-7.03-46.47a198.864 198.864 0 0 0-21.626-1.156zm113.57 196.862c0 62.715-50.84 113.556-113.556 113.556-62.715 0-113.556-50.841-113.556-113.556 0-62.716 50.841-113.556 113.556-113.556 62.716 0 113.556 50.84 113.556 113.556z"/></g></svg>