<svg xmlns="http://www.w3.org/2000/svg" height="23.163" width="26.567"><path style="fill:#000;fill-opacity:1;stroke-width:1px;stroke-linecap:butt;stroke-linejoin:miter;stroke-opacity:1" d="m71.826-81.704 7.587-7.587s-34.887-26.716-40.14-21.464c-5.252 5.253-1.295 8.69-1.295 8.69s30.164 7.34 33.848 20.361z" transform="scale(.16857) rotate(30 -153.07 -1.413)"/><path style="fill:#1fe058;fill-opacity:1;stroke:#000;stroke-width:5;stroke-linecap:round;stroke-linejoin:round;stroke-miterlimit:4;stroke-dasharray:none;stroke-opacity:1" d="M78.029-86.801s-18.99-10.54-41.558-5.058C-7.916-81.077 9.684 2.574 43.763 4.945 63.448 6.314 60.397-.782 73.553.247c13.091 1.023 7.392 5.382 25.619 6.067 30.668-.115 50.955-55.271 31.434-85.1-5.088-7.774-11.214-12.333-23.16-14.896-18.955-4.792-27.959 7.565-29.417 6.88z" transform="scale(.16857) rotate(30 -153.07 -1.413)"/><path style="fill:#40a41f;fill-opacity:1;stroke:#000;stroke-width:4;stroke-linecap:butt;stroke-linejoin:miter;stroke-miterlimit:4;stroke-dasharray:none;stroke-opacity:1" d="M79.413-89.29s3.554-13.887 23.319-21.6c19.764-7.713 33.856-3.912 33.856-3.912 8.776 1.249-5.934 29.071-32.287 30.258-26.352 1.186-24.888-4.153-24.888-4.747z" transform="scale(.16857) rotate(30 -153.07 -1.413)"/></svg>