<svg width="16" height="16" fill="none" stroke="#000" stroke-linecap="round" stroke-linejoin="round" stroke-width="2" viewBox="0 0 18.311 15.98" xmlns="http://www.w3.org/2000/svg"><path d="M.56 15.271c.244-1.38 1.46-1.9 2.842-1.9h13.5" stroke-width=".8" transform="scale(.91448 .88186)"/><path d="M6.073.45h13.5l-2.656 12.972s-1.292 1.254-1.43 1.926c-.152.745.56 2.323.56 2.323h-13.5c-1.381 0-2.303-.963-2.06-2.152L3.132 2.603C3.376 1.414 4.692.45 6.073.45z" stroke-width=".9" transform="scale(.91448 .88186)"/><path d="M2.156 15.182c-.722-.05-1.254-.465-1.329-1.038-.02-.16-.008-.268.081-.675.075-.342.114-.432.265-.626.28-.358.73-.571 1.422-.674.145-.022.596-.024 6.083-.028 3.26-.002 5.927 0 5.927.003s-.07.087-.155.185c-.277.32-.505.653-.603.88-.087.202-.104.29-.104.548 0 .338.065.659.234 1.159.047.137.085.256.085.265 0 .018-11.643.02-11.906.001z" fill="#e6e6e6" stroke-linejoin="bevel" stroke-width=".013"/><path d="M1.246 11.76c.022-.074.482-2.221 1.022-4.772.54-2.55 1.045-4.778 1.123-4.95.172-.38.704-.855 1.208-1.08.37-.165.435-.167 6.577-.188 4.997-.018 6.204-.003 6.205.078 0 .055-.5 2.458-1.112 5.341l-1.112 5.242-6.062.002c-3.59 0-6.29.033-6.62.079a4.429 4.429 0 0 0-.913.23c-.327.14-.354.14-.316.018z" fill="#db0d0d" stroke-linejoin="bevel" stroke-width=".071"/></svg>