<svg width="24" height="24" xmlns="http://www.w3.org/2000/svg"><path d="M10.73 7.704h1.81S11.564.36 10.312.36c-1.252 0-1.19.881-1.19.881s2.72 4.47 1.607 6.462z"/><path d="M11.894 7.697s-3.2-1.777-7.005-.852C-2.593 8.662.374 22.763 6.119 23.163c3.318.23 2.803-.965 5.021-.792 2.207.173 1.246.907 4.318 1.023 5.17-.02 8.59-9.317 5.3-14.346-.858-1.31-1.891-2.079-3.905-2.51-3.195-.809-4.713 1.275-4.959 1.16z" fill="red" stroke="#000" stroke-linecap="round" stroke-linejoin="round" stroke-width=".84285"/><path d="M11.774 7.298s.6-2.34 3.931-3.64c3.332-1.3 5.708-.66 5.708-.66 1.479.21-1 4.9-5.443 5.1-4.442.2-4.195-.7-4.195-.8z" fill="#30c300" stroke="#000" stroke-width=".67428"/></svg>