<svg xmlns="http://www.w3.org/2000/svg" width="124.254" height="124.254"><linearGradient id="a" x1="64" x2="64" y1="4.25" y2="123.91" gradientUnits="userSpaceOnUse"><stop offset="0" stop-color="#FFAB40"/><stop offset="1" stop-color="#FF6D00"/></linearGradient><path fill="url(#a)" d="M4 124V4h120v120z" style="fill:url(#a)" transform="translate(-4.142 -4.142) scale(1.03545)"/><g fill="#424242" opacity=".2" style="fill:#1a1a1a"><path d="M92.02 16c.87 0 1.77.29 2.54.93l16 15.99a4.003 4.003 0 0 1 0 6.15l-16 16c-.77.64-1.67.93-2.54.93-2.07.01-4.02-1.62-4.02-4v-4.76c0-1.14-.93-2.01-1.99-2.01-.21 0-.43.03-.65.11-4.36 1.49-10.1 4.65-14.85 11.3-1.69 2.36-3.57 5.72-5.57 9.28-8.01 14.29-19.93 35.5-44.58 37.86-.13.01-.26.02-.38.02-2.18 0-3.99-1.78-3.99-4.01v-8.05c0-2.03 1.53-3.72 3.55-3.97C35.48 85.8 43.67 71.14 50.99 58.1c2.21-3.95 4.31-7.68 6.5-10.75 9.44-13.24 21.79-17.41 28.9-18.73.94-.18 1.62-1 1.62-1.96v-6.65C88 17.62 89.95 16 92.02 16m0-3C88.15 13 85 16.14 85 20.01v5.83c-7.31 1.51-20.17 6.06-29.96 19.78-2.29 3.21-4.42 7-6.67 11.02l-.04.08c-7.25 12.93-14.75 26.3-29.15 28.08-3.52.44-6.18 3.42-6.18 6.95v8.05c0 3.86 3.13 7.01 6.99 7.01.22 0 .44-.01.67-.03 26.24-2.51 38.68-24.7 46.91-39.38 1.95-3.49 3.8-6.78 5.39-9.01 3.88-5.44 8.48-8.26 12.04-9.7V52c0 3.86 3.15 7.01 7.02 7.01 1.64 0 3.18-.56 4.46-1.63l.1-.09 16.02-16.02a6.98 6.98 0 0 0 2.4-5.28c0-2.03-.87-3.95-2.4-5.28l-15.92-15.9-.1-.1-.1-.09A6.916 6.916 0 0 0 92.02 13Z" style="fill:#1a1a1a" transform="translate(-4.142 -4.142) scale(1.03545)"/><path d="M68.4 68.99c.33 0 .65.16.85.47.43.68.86 1.32 1.27 1.89 4.75 6.65 10.49 9.81 14.85 11.3.22.07.43.11.65.11 1.06 0 1.99-.87 1.99-2.01L88 76c0-2.38 1.95-4.01 4.02-4.01.87 0 1.77.29 2.54.93l16 16a4.003 4.003 0 0 1 0 6.15l-16 15.99c-.77.64-1.67.93-2.54.93-2.07 0-4.02-1.62-4.02-4.01v-6.66c0-.97-.7-1.79-1.65-1.96-6.56-1.23-17.56-4.88-26.63-15.82-.29-.34-.3-.84-.05-1.21 3.05-4.41 5.61-8.85 7.85-12.84.2-.33.54-.5.88-.5m0-3c-1.44 0-2.78.78-3.48 2.03-2.13 3.79-4.67 8.2-7.71 12.61a4.023 4.023 0 0 0 .2 4.83c9.46 11.41 21.04 15.35 27.59 16.7v5.83c0 3.86 3.15 7.01 7.02 7.01 1.64 0 3.18-.56 4.46-1.63l.1-.09.1-.1 15.92-15.91a6.98 6.98 0 0 0 2.4-5.28c0-2.03-.87-3.95-2.4-5.28l-15.92-15.9-.1-.1-.1-.09a6.871 6.871 0 0 0-4.46-1.63C88.15 68.99 85 72.14 85 76v3.32c-3.56-1.45-8.16-4.26-12.04-9.7-.36-.51-.74-1.08-1.17-1.76a4.01 4.01 0 0 0-3.39-1.87ZM19.98 24.2c.13 0 .25.01.38.02 15.42 1.48 25.85 10.33 33.47 20.25.25.33.28.77.07 1.12-1.29 2.17-5.88 9.85-7.81 13.12-.19.32-.52.49-.85.49-.32 0-.65-.15-.85-.46-5.99-9.17-13.43-17.09-24.84-18.5-2.01-.27-3.55-1.95-3.55-3.99V28.2c0-2.22 1.81-4 3.98-4m0-3c-3.85 0-6.98 3.14-6.98 7.01v8.05c0 3.52 2.66 6.51 6.19 6.95 8.64 1.07 15.64 6.36 22.69 17.17.74 1.14 2 1.82 3.36 1.82 1.42 0 2.71-.73 3.43-1.96 1.93-3.27 6.51-10.94 7.8-13.11.85-1.42.74-3.18-.26-4.49-10.03-13.08-21.67-20.08-35.56-21.41-.22-.02-.45-.03-.67-.03Z" style="fill:#1a1a1a" transform="translate(-4.142 -4.142) scale(1.03545)"/></g><g fill="#fafafa"><path d="M110.338 29.956 93.77 13.399c-2.693-2.258-6.793-.332-6.793 3.179v6.885c0 .994-.694 1.854-1.677 2.03-7.352 1.367-20.15 5.695-29.925 19.394-2.268 3.179-4.432 7.041-6.73 11.131C41.076 69.52 32.586 84.71 16.08 86.74c-2.071.27-3.656 2.009-3.656 4.121v8.335c0 2.434 2.102 4.36 4.525 4.132 25.514-2.444 37.857-24.395 46.16-39.202 2.072-3.687 4.018-7.166 5.768-9.61 4.919-6.885 10.862-10.157 15.377-11.7a2.071 2.071 0 0 1 2.733 1.967l-.01 4.919c0 3.51 4.1 5.426 6.793 3.179l16.567-16.568a4.134 4.134 0 0 0 0-6.357z"/><path d="M93.77 71.374c-2.692-2.247-6.792-.332-6.792 3.179v4.928a2.071 2.071 0 0 1-2.734 1.968c-4.514-1.543-10.458-4.815-15.376-11.7a57.91 57.91 0 0 1-1.315-1.958c-.425-.663-1.398-.642-1.781.042-2.33 4.131-4.98 8.728-8.128 13.295-.26.383-.249.9.051 1.253 9.392 11.327 20.782 15.117 27.575 16.38.983.187 1.708 1.026 1.708 2.03v6.896c0 3.51 4.1 5.426 6.793 3.179l16.567-16.557a4.145 4.145 0 0 0 0-6.368zm-77.658-33.87c11.814 1.46 19.518 9.66 25.72 19.156.425.642 1.367.632 1.76-.031a3858.2 3858.2 0 0 1 8.087-13.585 1.032 1.032 0 0 0-.072-1.16c-7.89-10.272-18.69-19.446-34.657-20.968-2.433-.217-4.525 1.709-4.525 4.152v8.336c0 2.102 1.595 3.841 3.687 4.1z"/></g></svg>