<svg xmlns="http://www.w3.org/2000/svg" width="25mm" height="25mm" viewBox="0 0 25 25"><defs><clipPath id="a"><path d="M-90.086 136.11h25.6v25.6h-25.6z" style="paint-order:stroke fill markers"/></clipPath></defs><g stroke-width=".088" clip-path="url(#a)" transform="translate(87.974 -132.925) scale(.97656)"><path fill="#bdbdbd" d="M-72.714 161.47c-.005-.622-.699-1.524-1.29-1.676-.18-.046-1.728-.164-3.438-.261-2.838-.161-3.174-.197-3.854-.41-1.952-.61-3.411-1.865-3.683-3.17-.124-.599-.061-1.655.132-2.202.163-.461.177-1.237.026-1.431-.06-.078-.333-.186-.606-.24-.487-.099-.5-.11-.635-.506-.076-.222-.138-.466-.138-.542.001-.38.224-.834.62-1.267.381-.418.502-.494.927-.582.672-.14 1.194-.046 1.566.281l.303.266v-.524c0-.954.487-.945.968.017.38.76.82 1.19 1.223 1.19.383 0 1.224-.24 1.224-.348 0-.043-.226-.124-.503-.18-.897-.181-1.597-.743-1.598-1.281 0-.23 1.045-1.37 1.758-1.92 1.59-1.222 3.722-1.898 6.037-1.913 1.155-.007 1.193-.002 1.653.253.646.358 1.28.974 1.49 1.447.096.217.317.532.491.7.806.78 1.194 1.747 1.213 3.022l.014.876-.5.898c-.568 1.021-.873 1.81-1.071 2.766-.128.617-.127.693.016 1.076.084.227.198.428.252.446.168.056.23-.243.275-1.31.039-.946.056-1.03.212-1.03.477 0 .729.406.82 1.325.107 1.062-.38 3.982-.769 4.617-.156.255-.173.393-.134 1.073l.045.781h-3.044l-.002-.24zm5.228.175c-.118-.193-.148-1.553-.064-2.824.182-2.752.191-2.822.37-2.869.114-.03.161-.124.161-.32 0-.282-.479-5.93-.575-6.785l-.053-.47-.325.317c-.178.174-.352.317-.386.317-.034 0-.062-.283-.062-.63 0-.537-.06-.788-.416-1.728-.373-.985-.467-1.15-.903-1.585-.566-.565-1.463-1.042-2.496-1.328-.608-.167-.924-.192-2.492-.197-1.589-.004-1.885.018-2.58.194-1.44.366-1.85.628-3.364 2.157-.74.747-1.37 1.355-1.401 1.352-.18-.023-.276.051-.5.386a3.18 3.18 0 0 1-.427.523c-.328.276-.749.149-.749-.226 0-.166-.006-.166-.174-.014-.424.384-1.638.206-2.247-.328-.783-.688-.76-1.068.189-3.23.794-1.807.83-1.987.454-2.334-.298-.275-.719-.344-1.823-.3-.668.026-1.135.002-1.358-.068-.858-.27-1.354-.871-1.378-1.67-.011-.357.105-.655.863-2.218.76-1.565.899-1.799 1.05-1.763.097.023 5.487.042 11.978.043h11.802v25.664h-1.528c-.84 0-1.545-.03-1.567-.066z"/><path fill="#b1b1b1" d="M-72.712 161.49c0-.29-.212-.79-.489-1.153-.421-.552-.489-.565-3.996-.781-3.382-.208-3.929-.293-5.033-.781-1.156-.511-2.341-1.605-2.626-2.424-.218-.625-.216-1.865.005-2.51.18-.527.209-1.208.062-1.482-.067-.125-.247-.213-.58-.282-.407-.084-.506-.144-.629-.378-.487-.93.28-2.276 1.431-2.515.69-.143 1.353.042 1.646.46.13.185.136.165.136-.39 0-.49.028-.601.17-.677.232-.124.64.227.834.72.081.204.31.54.51.744.31.319.414.372.723.372.393 0 1.18-.235 1.18-.353 0-.082-.123-.126-.727-.258-.81-.177-1.457-.805-1.334-1.293.092-.37 1.664-1.848 2.48-2.334 1.523-.907 3.31-1.38 5.277-1.4l1.185-.011.512.306c.696.417 1.253.974 1.472 1.47.1.227.259.467.352.533.094.066.344.357.557.646.509.691.766 1.53.773 2.519l.006.744-.541 1.008c-.55 1.023-.9 1.976-1.083 2.944-.092.483-.084.577.078.942.098.223.219.405.267.405.157 0 .271-.635.272-1.51 0-.828.006-.854.197-.852.428.006.7.452.803 1.311.114.971-.296 3.574-.705 4.467-.222.487-.29 1.258-.157 1.79.035.138.02.225-.039.225-.134 0-.221-.39-.226-1.008a2.283 2.283 0 0 1 .23-1.05c.404-.912.637-2.275.64-3.738.002-1.163-.015-1.309-.179-1.527-.332-.446-.389-.375-.389.489 0 1.685-.415 2.194-.865 1.062l-.206-.518.194-.906c.224-1.048.64-2.132 1.14-2.974.33-.555.35-.63.348-1.276-.003-1.23-.344-2.12-1.1-2.878-.247-.246-.474-.556-.508-.687-.083-.334-.701-.983-1.315-1.382l-.518-.336h-1.103c-3.024 0-5.553 1.07-7.31 3.091l-.44.509.151.28c.194.357.64.647 1.173.763.645.14.911.269.882.427-.04.223-.676.481-1.282.52l-.555.037-.425-.419c-.234-.23-.474-.54-.533-.69-.16-.402-.423-.752-.565-.752-.1 0-.125.174-.125.876 0 .481-.034.876-.076.876s-.145-.181-.23-.402c-.219-.575-.54-.754-1.282-.718-.701.035-1.19.328-1.538.92-.188.322-.217.46-.183.873.048.576.159.688.768.772.366.05.438.094.534.326.165.397.145 1.008-.05 1.6-.227.685-.234 1.754-.016 2.385.275.795 1.404 1.84 2.522 2.335 1.095.484 1.62.566 4.85.755 1.686.098 3.214.22 3.395.268.448.122.883.524 1.153 1.067.225.451.302 1.03.138 1.03-.049 0-.088-.1-.088-.222zm5.203.025c-.093-.287-.067-2.448.047-3.92.126-1.616.143-1.694.357-1.638.15.04.163.006.125-.32-.024-.2-.16-1.742-.304-3.428a227.115 227.115 0 0 0-.314-3.49l-.053-.426-.77.755v-.673c0-.603-.046-.793-.44-1.792-.395-1.004-.489-1.165-.917-1.572-.556-.53-1.462-1-2.452-1.273-.624-.172-.908-.193-2.584-.191-1.67.002-1.963.024-2.584.195-1.376.38-1.704.594-3.2 2.078-.748.744-1.427 1.352-1.508 1.352-.081 0-.307.216-.501.48-.528.713-.906.857-1.076.407l-.095-.252-.27.164c-.714.436-2.212-.116-2.557-.943-.229-.546-.152-.871.625-2.652.409-.936.743-1.77.743-1.855 0-.242-.421-.679-.74-.766-.159-.045-.725-.06-1.257-.035-.613.03-1.122.007-1.39-.059-.91-.226-1.43-.86-1.43-1.743 0-.401.104-.662.88-2.213.73-1.461.9-1.741 1.004-1.655.072.06.354.095.675.084.302-.01 5.625-.013 11.827-.008l11.277.01v25.576h-1.527c-1.506 0-1.528-.003-1.591-.198z"/><path fill="#8f8f8f" d="M-72.712 161.44c0-.358-.367-1.06-.7-1.34a1.852 1.852 0 0 0-.596-.316c-.178-.048-1.71-.167-3.403-.264l-3.079-.178-.973-.317c-1.578-.513-2.822-1.46-3.3-2.512-.215-.474-.247-.651-.247-1.376 0-.627.048-.984.198-1.445.186-.578.196-.868.047-1.376-.03-.103-.209-.183-.568-.254-.446-.087-.546-.142-.66-.365-.484-.934.306-2.298 1.455-2.516.695-.132 1.486.112 1.649.509.035.085.08-.113.104-.465.04-.56.062-.616.249-.642.265-.038.483.167.717.672.104.224.351.575.55.78.307.317.412.372.714.372.38 0 .886-.122 1.099-.263.116-.077.116-.097.002-.17-.072-.046-.288-.11-.482-.141-.814-.133-1.62-.825-1.503-1.29.027-.107.306-.476.62-.82 1.712-1.874 4.233-2.914 7.143-2.948.915-.01 1.151.015 1.436.154.784.383 1.655 1.213 1.775 1.69.029.116.242.4.473.631.55.55.948 1.354 1.105 2.233.182 1.014.11 1.36-.535 2.605-.581 1.119-.852 1.871-1.018 2.821-.088.506-.079.598.099 1.01.179.417.207.443.335.315.11-.11.147-.378.171-1.232.03-1.06.037-1.092.226-1.092.179 0 .456.23.613.507.153.269.213 1.243.13 2.118-.106 1.135-.474 2.816-.718 3.287-.191.367-.236.955-.119 1.555.04.2.03.329-.021.329-.135 0-.204-.322-.214-1-.008-.491.03-.69.174-.93.52-.865.926-4.152.639-5.186-.076-.272-.289-.504-.463-.504-.022 0-.054.445-.071.989-.024.77-.067 1.043-.19 1.232-.088.133-.206.228-.263.21-.057-.017-.214-.246-.348-.508-.278-.544-.274-.651.078-2.006.217-.835.82-2.223 1.19-2.744.174-.243.201-.383.193-.993-.016-1.206-.477-2.35-1.202-2.987-.154-.136-.392-.475-.529-.754-.259-.53-.794-1.03-1.494-1.398-.31-.162-.495-.186-1.408-.18-2.126.016-4.005.567-5.655 1.657-.635.419-2.008 1.793-2.008 2.009 0 .425.671.91 1.504 1.086.862.182.882.503.046.752a3.6 3.6 0 0 1-.847.131c-.366 0-.441-.038-.809-.416-.222-.229-.469-.572-.547-.763-.166-.404-.376-.66-.543-.66-.09 0-.118.193-.118.832 0 .86-.09 1.048-.259.538-.205-.621-.81-.903-1.611-.751-.718.136-1.425.833-1.461 1.44-.05.825.099 1.043.775 1.136.391.053.452.091.535.329.138.395.114 1.13-.05 1.567-.097.256-.147.674-.152 1.259-.009 1.16.168 1.569 1.029 2.385.716.68 1.518 1.131 2.595 1.46.671.206 1.051.246 3.854.406 1.71.097 3.26.218 3.443.267.414.112.926.613 1.181 1.156.2.427.258.939.106.939-.048 0-.088-.12-.088-.266zm5.22.127c-.084-.222-.06-2.68.04-4.019.119-1.587.133-1.653.354-1.595.16.041.171.013.128-.32-.027-.2-.168-1.804-.314-3.562-.146-1.758-.287-3.33-.313-3.494l-.047-.296-.776.761v-.668c0-.595-.05-.795-.444-1.811-.41-1.055-.481-1.176-.932-1.588-1.128-1.031-2.674-1.494-4.983-1.492-1.634 0-2.814.21-3.81.673-.59.275-.818.463-2.013 1.66-.742.743-1.415 1.35-1.496 1.35-.081 0-.24.123-.351.272-.662.885-1.057 1.084-1.232.62l-.093-.246-.312.159c-.386.196-.738.2-1.31.016-.826-.267-1.33-.86-1.33-1.568 0-.202.266-.924.745-2.024.41-.94.744-1.79.744-1.887 0-.237-.544-.77-.801-.784a70.338 70.338 0 0 0-1.432-.022c-1.167-.01-1.247-.022-1.664-.253-.591-.328-.856-.733-.903-1.379-.036-.5-.018-.549.862-2.335.495-1.003.916-1.758.935-1.679.02.08-.342.897-.802 1.817-.903 1.804-.995 2.165-.698 2.74l.14.268.25-.305c.14-.167.369-.353.512-.412.232-.096.274-.177.406-.779.163-.739.59-1.836 1.07-2.755.489-.933.506-.557.02.421-.506 1.018-.96 2.355-.96 2.828 0 .308-.024.338-.364.458-.449.159-.77.547-.634.767.204.331.87.459 2.19.42 1.19-.034 1.294-.053 2.76-.494l1.522-.458.744.194c.41.108 1.105.33 1.545.495.462.173.962.3 1.183.3.21 0 .658.057.995.127 1.073.221 5.37.613 8.671.79 1.344.072 1.747.13 1.643.234-.155.155-8.407-.47-10.051-.761a8.407 8.407 0 0 0-1.1-.126c-.226 0-.721-.12-1.139-.273a35.948 35.948 0 0 0-1.571-.526l-.832-.254-1.402.409c-.77.225-1.418.422-1.439.439-.02.017.068.14.196.273.444.464.418.633-.385 2.446-.599 1.353-.73 1.726-.733 2.098-.006.724.49 1.235 1.394 1.437.904.202 1.23-.045 1.53-1.167.114-.422.24-.767.282-.767.116 0 .09.274-.11 1.188-.19.858-.16 1.085.128.975.072-.028.29-.266.486-.53.195-.265.43-.505.523-.535.118-.037.205-.202.29-.547.149-.612.367-.756.282-.187l-.058.38 1.218-1.2c.977-.961 1.33-1.251 1.785-1.464 1.266-.592 3.195-.867 4.987-.71 1.782.155 3.176.676 4.099 1.53.479.444.54.548.966 1.649.347.893.456 1.288.456 1.645v.47l.349-.341c.191-.187.367-.322.39-.298.039.038.75 7.878.75 8.263 0 .154-.009.154-.167.012-.091-.083-.185-.119-.208-.08-.094.162-.257 3.308-.227 4.385.03 1.084-.005 1.356-.133 1.022z"/><path fill="#6f6f6f" d="M-72.712 161.43c0-.645-.758-1.593-1.35-1.69-.149-.023-1.638-.124-3.309-.223-2.663-.158-3.134-.208-3.81-.403-1.039-.3-2.004-.817-2.674-1.431-.69-.633-1-1.188-1.13-2.028-.104-.665-.096-.725.285-2.359.066-.286.065-.5-.005-.762-.097-.358-.107-.366-.632-.469-.48-.095-.545-.133-.654-.395a2.245 2.245 0 0 1-.122-.714c0-.85.807-1.679 1.709-1.754.675-.056 1.05.038 1.35.338l.261.262.026-.593c.024-.545.043-.597.228-.623.27-.038.425.106.69.636.122.244.383.611.58.816.322.333.403.372.767.372.446 0 .934-.135 1.123-.31.1-.094.064-.129-.219-.208a2.619 2.619 0 0 0-.497-.094c-.415-.001-1.202-.614-1.33-1.034-.11-.366.938-1.536 2.056-2.295 1.617-1.097 3.58-1.664 5.758-1.664 1.06 0 1.11.009 1.613.277.605.322 1.434 1.173 1.519 1.558a.87.87 0 0 0 .308.442c.371.265.937 1.167 1.137 1.813.12.391.176.816.176 1.353 0 .77-.007.794-.396 1.458-.687 1.171-1.35 3.221-1.233 3.809.067.332.316.851.409.851.144 0 .255-.673.256-1.554 0-.818.015-.898.164-.898.265 0 .612.334.709.683.282 1.016-.13 4.348-.641 5.185-.197.321-.256 1.171-.118 1.686.038.142.03.24-.02.24-.242 0-.235-1.71.008-1.985.293-.333.716-2.664.72-3.97.004-.98-.175-1.59-.482-1.646-.121-.023-.147.108-.181.92-.04.975-.183 1.47-.423 1.47-.195 0-.562-.809-.546-1.205.035-.895.663-2.716 1.302-3.777.38-.63.448-1.082.3-1.96a4.226 4.226 0 0 0-1.038-2.147c-.234-.252-.514-.644-.622-.872-.385-.812-1.48-1.547-2.414-1.622-.713-.057-2.245.117-3.231.367-1.868.474-3.442 1.425-4.544 2.745-.467.558-.495.684-.233 1.017.238.303.605.488 1.306.66.463.112.574.173.596.327.022.157-.055.22-.463.372-.27.1-.658.183-.862.183-.334 0-.419-.047-.82-.46-.247-.252-.549-.661-.672-.908-.211-.424-.412-.612-.53-.494-.029.029-.052.42-.052.87s-.03.817-.068.817-.146-.165-.241-.368c-.259-.55-.557-.728-1.208-.72-.639.008-.96.156-1.397.64-.416.46-.55.906-.42 1.39.115.43.173.475.748.593.326.066.464.144.546.306.15.294.135 1.102-.027 1.531-.354.94-.222 2.349.293 3.126.323.488 1.224 1.211 1.972 1.581 1.208.599 1.704.683 5.232.894 3.466.207 3.47.208 4.002.764.461.481.844 1.562.553 1.562-.048 0-.088-.126-.088-.279zm5.223.082c-.129-.48-.022-3.737.171-5.22.043-.33.073-.375.229-.334.166.044.175.018.129-.364a265.15 265.15 0 0 1-.322-3.651c-.15-1.782-.292-3.335-.316-3.451-.043-.205-.054-.201-.433.171l-.39.382v-.703c0-.64-.038-.798-.44-1.79-.356-.883-.517-1.167-.85-1.505-.492-.5-1.493-1.04-2.39-1.289-1.442-.4-3.832-.402-5.393-.003-1.25.32-1.651.586-3.114 2.064-.73.738-1.408 1.353-1.506 1.368-.099.014-.34.236-.536.493s-.425.505-.51.552a.374.374 0 0 1-.55-.224l-.05-.2-.323.168c-.238.125-.43.157-.738.123-.484-.053-1.161-.334-1.442-.597-.276-.26-.496-.883-.438-1.24.027-.164.367-1.026.756-1.917.39-.892.708-1.702.708-1.8 0-.273-.41-.703-.765-.8-.18-.05-.715-.065-1.244-.035-.728.042-1.036.022-1.43-.093-.569-.165-1.084-.57-1.26-.99-.26-.623-.177-.933.769-2.883.488-1.007.902-1.788.921-1.737.02.052-.344.88-.807 1.84-.805 1.668-.841 1.768-.808 2.232.019.267.097.574.173.682l.138.197.177-.3c.107-.181.319-.363.536-.458.32-.141.36-.192.36-.458 0-.164.116-.647.259-1.072.287-.857 1.098-2.537 1.224-2.537.045 0-.149.483-.43 1.073-.575 1.208-.878 2.11-.878 2.616 0 .317-.026.352-.352.482-.376.15-.7.488-.7.73 0 .081.147.222.33.316.28.145.522.17 1.685.176l1.358.006 1.576-.469c1.82-.541 1.634-.547 3.557.118.608.21 1.265.382 1.462.382s.606.057.91.127c.93.214 4.112.513 8.38.789 1.817.117 2.121.157 2.015.263-.022.022-.905-.017-1.963-.086-4.78-.312-7.852-.609-8.632-.832a3.087 3.087 0 0 0-.7-.086c-.245 0-.777-.134-1.37-.345-.532-.19-1.213-.41-1.514-.487l-.548-.142-1.368.411c-.752.226-1.4.43-1.44.453-.04.023.01.099.11.169.202.14.444.56.444.767 0 .073-.335.9-.744 1.838-.8 1.83-.868 2.145-.584 2.674.222.414.925.797 1.572.856.453.041.535.022.776-.181.219-.184.308-.376.474-1.018.112-.435.235-.79.275-.79.106 0 .089.171-.117 1.14-.201.941-.169 1.118.184 1.006.105-.033.305-.246.445-.474.14-.228.355-.468.477-.533.146-.078.253-.24.314-.476.157-.608.179-.664.26-.664.07 0 .042.372-.052.68-.08.26.181.036 1.284-1.103 1.32-1.364 1.703-1.605 3.11-1.96.68-.172 1.007-.197 2.574-.198 1.457-.001 1.92.028 2.452.16.998.246 2.185.85 2.74 1.392.421.412.518.582.924 1.627.354.912.453 1.275.453 1.66v.494l.394-.387c.318-.312.394-.353.394-.215 0 .094.158 1.965.35 4.157.193 2.192.35 4.02.35 4.064 0 .044-.078.008-.175-.08-.096-.087-.19-.142-.207-.123-.017.02-.08.66-.14 1.421-.125 1.568-.154 3.685-.056 3.98.037.112.03.197-.018.197-.046 0-.107-.089-.136-.197z"/><path fill="#4f4f4f" d="M-72.712 161.44c0-.571-.567-1.403-1.112-1.63-.156-.066-.669-.139-1.14-.164-4.036-.21-5.45-.326-6.069-.496-1.833-.501-3.328-1.601-3.772-2.774-.259-.684-.261-1.768-.006-2.584.21-.671.231-.981.094-1.341-.117-.31-.194-.355-.721-.427-.381-.053-.442-.092-.552-.354a1.854 1.854 0 0 1-.002-1.295c.151-.362.709-.916 1.08-1.074.638-.271 1.732-.077 1.977.351.093.162.112.108.15-.427.04-.56.062-.616.249-.643.262-.037.475.16.675.623.087.204.337.557.556.786.361.379.433.416.8.416.433 0 1.224-.23 1.224-.355 0-.042-.168-.118-.372-.168-.853-.211-1.034-.28-1.291-.497-.253-.213-.527-.628-.527-.799 0-.18 1.086-1.342 1.676-1.792 1.743-1.33 3.826-1.995 6.25-1.995 1.062 0 1.062 0 1.582.312.675.405 1.207.929 1.405 1.384.086.2.362.581.611.848.773.828 1.089 1.683 1.089 2.948 0 .651-.027.767-.263 1.151-.684 1.112-1.405 3.12-1.4 3.9.003.31.297 1.019.424 1.019.17 0 .275-.578.275-1.502 0-.883.012-.95.17-.95.274 0 .62.364.709.744.262 1.136-.11 3.961-.684 5.2-.184.399-.21.554-.168 1.009.028.295.077.606.109.69.032.083.02.151-.028.151-.117 0-.195-.437-.195-1.083 0-.387.05-.62.18-.832.237-.388.575-1.907.707-3.176.119-1.139.024-2.072-.24-2.363-.295-.327-.358-.208-.407.776-.054 1.085-.154 1.423-.418 1.423-.236 0-.555-.694-.537-1.165.035-.886.581-2.48 1.263-3.684l.44-.776-.051-.757c-.08-1.182-.451-2.06-1.154-2.727a3.074 3.074 0 0 1-.539-.762c-.259-.544-.907-1.153-1.576-1.48-.47-.23-.508-.235-1.637-.182-2.466.114-4.302.752-5.96 2.07-.732.581-1.458 1.421-1.458 1.686 0 .285.61.828 1.055.938.955.237 1.048.276 1.048.44 0 .208-.577.446-1.227.506l-.481.045-.504-.53c-.277-.29-.504-.581-.504-.646 0-.189-.432-.771-.572-.771-.104 0-.128.165-.128.876 0 .482-.03.874-.066.873-.036-.002-.145-.168-.24-.368-.216-.447-.52-.679-.974-.74-1.096-.146-2.282.962-2.095 1.96.103.55.178.622.712.688.451.057.501.086.614.354.171.412.152.917-.064 1.627-.263.866-.21 1.945.13 2.639.46.94 1.733 1.872 3.209 2.35.8.26.949.276 3.941.447 1.71.097 3.26.213 3.443.258.44.107.96.59 1.238 1.146.227.454.297.94.136.94-.048 0-.087-.12-.087-.265zm5.222-.008c-.137-.685.067-5.12.249-5.414.035-.058.125-.082.199-.053.114.043.126-.024.081-.454-.029-.278-.176-1.964-.326-3.746-.15-1.783-.29-3.297-.312-3.365-.028-.09-.132-.034-.368.197-.181.176-.357.321-.391.321-.034 0-.062-.29-.062-.643 0-.556-.055-.781-.408-1.686-.467-1.193-.596-1.387-1.257-1.883-.641-.483-.988-.65-1.877-.908-1.7-.492-4.01-.49-5.72.004-1.18.342-1.496.56-2.94 2.026-.725.735-1.336 1.318-1.357 1.296-.09-.09-.386.162-.715.607-.192.26-.432.499-.533.531-.231.074-.548-.194-.49-.414.038-.147.025-.146-.195.01-.36.258-.806.307-1.345.15-.657-.19-1.04-.47-1.277-.93-.29-.561-.225-.857.593-2.719.387-.88.703-1.703.702-1.828a.781.781 0 0 0-.153-.413c-.298-.368-.526-.419-1.903-.425-1.714-.008-2.203-.206-2.594-1.052-.309-.67-.247-.915.73-2.894.49-.997.906-1.774.922-1.726.016.048-.37.89-.857 1.871-.84 1.69-.883 1.804-.827 2.177.055.366.258.878.349.878.021 0 .1-.12.176-.266.08-.155.295-.342.517-.45.352-.17.383-.214.429-.595a6.01 6.01 0 0 1 .235-.973c.253-.762 1.106-2.533 1.22-2.533.05 0-.104.39-.344.866-.476.948-.916 2.182-1.01 2.834-.048.325-.097.416-.223.416-.245 0-.782.511-.782.744 0 .144.093.246.329.363.273.136.556.166 1.686.177l1.357.013 3.209-.952.673.188c.37.103 1.082.34 1.583.528.567.213 1.061.341 1.313.342.223.001.728.06 1.123.13.941.166 3.871.433 7.251.662 1.493.1 2.731.2 2.752.22.092.093-.108.097-1.175.028-4.701-.305-8.08-.61-9.101-.824a6.346 6.346 0 0 0-1.015-.13c-.234 0-.728-.125-1.218-.307a21.844 21.844 0 0 0-1.51-.495l-.687-.188-1.424.423c-.783.233-1.434.43-1.448.44-.013.009.092.14.235.293.456.488.44.588-.383 2.456-.837 1.903-.91 2.277-.55 2.813.384.568 1.558.949 2.16.7.296-.123.459-.423.664-1.23.08-.313.182-.607.227-.652.114-.118.106-.045-.108 1.029-.2 1.005-.17 1.182.183 1.07.103-.033.282-.209.397-.391a2.98 2.98 0 0 1 .514-.585c.217-.179.323-.353.368-.602.104-.582.233-.675.18-.132l-.045.482 1.217-1.244c1.54-1.574 2.063-1.862 3.953-2.178 1.202-.2 3.39-.137 4.414.13 1.012.263 2.034.793 2.597 1.347.424.417.519.585.93 1.648.35.903.458 1.295.458 1.656v.473l.752-.738.36 4.139c.197 2.276.344 4.154.326 4.173-.018.02-.094-.016-.168-.078s-.15-.097-.167-.078c-.046.05-.213 2.137-.276 3.45-.03.626-.018 1.365.027 1.642.085.519-.001.719-.099.23z"/><path fill="#2f2f2f" d="M-72.616 161.53c-.03-.559-.63-1.436-1.177-1.722-.137-.071-.53-.145-.876-.164-5.715-.306-5.651-.3-6.67-.614-1.145-.353-1.875-.766-2.617-1.483-.75-.725-.951-1.178-1-2.253-.03-.69-.003-.962.147-1.459.207-.68.23-1.023.092-1.385-.117-.308-.195-.354-.708-.425-.394-.054-.424-.078-.563-.443-.291-.761-.05-1.413.769-2.075.242-.196.434-.265.84-.302.67-.06.904 0 1.282.332l.304.267.027-.596c.025-.574.034-.598.26-.624.187-.022.279.039.46.305.124.182.225.384.225.448s.203.33.45.593c.437.461.467.476.919.476.46 0 1.171-.214 1.171-.353 0-.08-.412-.219-.887-.298-.435-.073-1.026-.52-1.182-.894-.13-.309-.129-.31.273-.805 1.688-2.083 4.424-3.255 7.599-3.255.985 0 1 .003 1.516.312.672.403 1.115.838 1.368 1.342.112.222.403.621.647.886.75.814 1.089 1.758 1.089 3.034 0 .51-.038.715-.167.896-.347.487-.974 1.856-1.194 2.605-.332 1.134-.363 1.58-.144 2.077.338.763.531.424.606-1.058.053-1.062.09-1.121.487-.808.324.254.447.946.383 2.144-.063 1.165-.423 2.965-.719 3.59-.226.478-.27.976-.135 1.556.042.18.046.328.01.328-.088 0-.176-.544-.177-1.098 0-.276.066-.572.179-.788.346-.67.779-2.882.782-4 .002-.865-.143-1.434-.422-1.654l-.233-.184-.053.908c-.061 1.067-.196 1.56-.426 1.56-.21 0-.529-.679-.529-1.127 0-.853.694-2.815 1.402-3.966.224-.364.262-.513.261-1.017-.003-1.198-.396-2.235-1.136-2.99-.216-.222-.476-.58-.578-.796-.228-.483-.912-1.135-1.51-1.438-.396-.2-.552-.227-1.361-.227-2.054 0-4.17.6-5.661 1.603-1.082.728-2.214 1.922-2.129 2.246.073.278.68.774 1.072.876l.712.185c.726.19.207.618-.824.68l-.599.037-.392-.383a3.098 3.098 0 0 1-.57-.792c-.21-.49-.45-.728-.65-.651-.124.048-.14.173-.108.887.036.817-.033 1.084-.147.567-.079-.36-.511-.769-.886-.84-1.382-.259-2.688 1.082-2.197 2.257.12.287.173.322.56.376.528.072.605.118.722.427.14.368.113.849-.082 1.46-.244.762-.238 1.837.013 2.514.26.701 1.175 1.602 2.133 2.1 1.29.669 1.897.78 5.124.944 3.54.18 3.668.202 4.195.735.414.418.762 1.17.683 1.475-.03.113-.044.096-.053-.061zm5.128-.153c-.123-.742.08-5.09.25-5.365.028-.044.108-.058.178-.03.071.027.13.015.13-.026.006-.214-.646-7.613-.673-7.646-.018-.02-.189.115-.38.303l-.35.34v-.558c0-.464-.077-.76-.46-1.748-.41-1.063-.508-1.236-.917-1.636-.52-.507-1.45-1.01-2.33-1.258-1.987-.563-4.966-.391-6.588.38-.562.266-.801.468-1.971 1.666-.733.75-1.37 1.34-1.416 1.312-.104-.065-.568.37-.735.688-.069.132-.242.3-.385.374-.241.125-.272.122-.434-.04-.096-.097-.152-.235-.124-.308.066-.171-.088-.173-.23-.003-.47.566-2.175.123-2.595-.673-.297-.563-.204-1.013.572-2.768.39-.881.71-1.723.71-1.87 0-.34-.38-.709-.845-.824-.21-.052-.579-.053-.978-.003-.88.111-1.773-.032-2.24-.36-.45-.316-.66-.68-.728-1.258-.053-.45-.035-.498.854-2.281.499-1.003.922-1.809.939-1.792.017.018-.366.85-.85 1.85-.546 1.124-.882 1.92-.88 2.088.002.318.298 1.016.431 1.016.05 0 .092-.052.092-.115 0-.156.429-.555.71-.66.186-.071.238-.161.283-.49.03-.222.157-.708.281-1.08.251-.752 1.067-2.472 1.172-2.472.037 0-.144.422-.403.939-.494.985-.845 1.973-.95 2.677-.055.366-.099.434-.351.54-.66.275-.866.81-.405 1.048.441.228 1.312.331 2.038.241.367-.045.763-.064.88-.042.118.022.935-.177 1.816-.442l1.603-.484.719.209c.395.114 1.05.332 1.458.485s1.035.309 1.397.348c.361.039 1.09.133 1.62.208 1.34.19 3.304.366 6.481.577 2.95.196 3.342.235 2.54.252-1.134.024-7.652-.504-9.196-.745a24.928 24.928 0 0 0-1.402-.18c-.298-.025-1.137-.248-1.94-.516-.777-.26-1.51-.473-1.626-.473-.19 0-2.865.76-2.948.837-.017.017.086.149.23.293.452.452.432.58-.38 2.441-.828 1.898-.902 2.285-.54 2.832.46.692 1.868 1.034 2.364.574.202-.187.421-.757.561-1.456.03-.146.089-.266.132-.266.043 0 .057.089.032.197-.154.665-.308 1.51-.308 1.692 0 .168.046.213.216.213.161 0 .309-.124.576-.486.198-.268.455-.53.572-.584.122-.055.216-.175.22-.28.003-.1.062-.34.129-.533l.123-.35-.045.481-.044.482 1.237-1.249c1.052-1.061 1.332-1.294 1.864-1.548 1.187-.567 2.647-.8 4.524-.722 2.148.089 3.638.633 4.684 1.71.474.49 1.261 2.453 1.268 3.163l.004.477.349-.34c.191-.188.362-.324.378-.303.017.021.177 1.792.356 3.936s.345 3.988.368 4.098c.041.194.035.196-.167.064l-.21-.138-.053.506c-.154 1.485-.251 3.495-.206 4.29.053.941.034 1.131-.058.574z"/><path fill="#070707" d="M-72.913 160.73c-.257-.528-.569-.812-1.102-1.003-.219-.078-.259-.114-.13-.117.332-.007 1.006.533 1.28 1.024.142.253.244.491.227.53-.016.04-.14-.156-.275-.434zm5.403-.642c0-.626.015-.87.031-.544.017.328.017.84 0 1.14-.017.298-.03.03-.03-.596zm-8.378-.545c.155-.02.431-.02.613 0 .182.019.054.034-.283.035-.337 0-.486-.015-.33-.035zm-1.443-.088c.18-.019.476-.019.657 0 .18.019.032.035-.329.035s-.51-.016-.328-.035zm-1.447-.087c.155-.02.43-.02.613 0 .181.018.054.034-.283.035-.337 0-.486-.015-.33-.035zm-1.4-.088c.157-.019.413-.019.57 0 .156.02.028.036-.285.036s-.441-.016-.285-.036zm-1.817-.466c-.362-.143-.756-.343-.876-.443-.213-.178-.21-.178.106.006.178.103.631.303 1.007.442.375.14.623.254.55.255-.071 0-.426-.117-.787-.26zm-1.676-1.025c-.592-.525-.748-.702-.911-1.029-.072-.144-.081-.184-.021-.088.06.097.416.481.79.854.374.374.665.68.645.68-.019 0-.245-.188-.503-.417zm14.757-1.992c0-.434.014-.622.033-.42s.018.559 0 .79c-.018.23-.033.063-.033-.37zm-1.434.372c-.095-.157-.172-.324-.17-.372.002-.049.082.06.177.24.199.377.317.413.43.132.048-.121.08-.145.084-.061.006.143-.155.345-.276.345-.039 0-.15-.128-.245-.284zm3.33-.066c-.08-.051-.09-.085-.027-.086.059-.001.119-.164.138-.374.032-.356.034-.352.048.088.009.253.006.46-.006.458a.885.885 0 0 1-.153-.086zm-2.003-1.298a1.086 1.086 0 0 0-.355-.7c-.114-.095-.116-.109-.008-.08.192.05.457.553.413.783l-.038.2-.012-.203zm-1.321-.778c-.01-.247.56-1.63.935-2.267.374-.635.413-.756.464-1.438l.055-.744.015.69c.014.64-.006.723-.28 1.182-.444.738-.582 1.03-.897 1.894-.159.434-.29.741-.292.683zm-15.682-3.5c0-.315.983-1.262 1.298-1.25.1.004.081.032-.06.088-.383.154-.733.457-.986.857-.139.218-.252.356-.252.306zm4.669-.402a3.956 3.956 0 0 1-.58-.815c-.263-.525-.44-.693-.65-.613-.117.045-.13.034-.054-.042.192-.194.45.009.76.597.17.324.447.721.615.884.298.287.32.294.904.254.329-.022.677-.067.773-.1.097-.031.057 0-.087.07-.145.072-.501.131-.792.134-.51.004-.543-.01-.89-.369zm-1.416.171c-.024-.291-.282-.68-.564-.853-.155-.094-.228-.171-.164-.171s.274.154.466.342c.281.276.343.392.313.592-.02.136-.043.177-.05.09zm13.708-1.112c-.104-.552-.567-1.394-1.01-1.838-.24-.239-.464-.524-.498-.634-.127-.405-.566-.924-1.062-1.255-.666-.445-.777-.553-.3-.293.59.322 1.085.8 1.316 1.272.115.234.397.627.625.872.551.59 1.13 1.761 1.024 2.074-.02.06-.063-.03-.094-.198zm.73-.807c0-.32-.023-.653-.051-.74-.044-.134-.036-.14.042-.03.052.072.095.346.096.61l.001.477.35-.342c.193-.189.351-.303.351-.255 0 .048-.177.26-.394.474l-.394.386zm-12.813-.2c.559-.724 1.692-1.699 2.391-2.058.334-.171.196-.061-.542.431-.37.247-1 .793-1.397 1.213-.397.42-.601.606-.452.413zm-2.053-.052c.084-.049.31-.301.501-.56.191-.258.42-.493.51-.522.111-.035.207-.223.305-.597l.142-.547-.049.482-.048.482 1.258-1.243c1.082-1.068 1.35-1.286 1.914-1.55.36-.17.774-.33.918-.357.145-.027.057.027-.196.121-1.036.385-1.458.69-2.678 1.937-.677.69-1.325 1.273-1.495 1.345-.196.082-.382.265-.537.53-.13.221-.309.442-.396.489-.213.114-.346.105-.15-.01zm-2.44-.29c-.42-.195-.911-.617-.911-.781 0-.04.103.05.23.2.258.307.743.58 1.236.696.247.058.274.08.11.085-.12.004-.42-.085-.666-.2zm1.33.116c.4-.116.549-.335.752-1.1.268-1.006.34-.97.132.068-.098.494-.195.851-.215.793-.023-.071-.124-.033-.297.113-.144.121-.347.217-.452.212-.146-.006-.127-.026.08-.086zm15.327-1.788c-.27-.685-.402-.896-.749-1.208-.454-.409-1.221-.849-1.952-1.12-.253-.094-.34-.15-.196-.123.518.096 1.667.716 2.158 1.167.422.385.543.57.815 1.25.175.44.304.814.286.832-.018.018-.18-.34-.362-.798zm-17.535-.395c.072-.261.518-1.23.551-1.197.02.02-.105.326-.276.681-.17.356-.294.588-.275.516zm12.473-.94a10.23 10.23 0 0 1 1.051 0c.275.017.028.03-.55.03-.579 0-.804-.014-.5-.03zm-1.182-1.49c.279-.017.712-.017.963 0 .251.018.023.033-.507.032-.53 0-.735-.014-.456-.032zm6.257-.699c.156-.02.431-.02.613 0 .182.019.055.034-.283.035-.337 0-.485-.015-.33-.035zm-1.401-.087c.155-.02.431-.02.613-.001.181.019.054.035-.283.035-.337 0-.486-.015-.33-.034zm-14.866-.144c0-.25-.369-.583-.753-.68-.548-.138-.535-.207.04-.213.271-.003.425.01.34.029-.2.043-.202.041.154.396.262.262.407.587.262.587-.024 0-.043-.054-.043-.12zm13.642.056c.156-.02.412-.02.569 0 .157.02.028.035-.285.035s-.44-.016-.284-.035zm-1.314-.088c.156-.02.413-.02.57 0 .156.02.028.036-.285.036-.314 0-.442-.016-.285-.036zm-6.343-.63c-.346-.028-.65-.072-.676-.098-.068-.07 1.082.006 1.391.09.295.082.188.083-.715.009zm-9.808-.306c-.447-.208-.907-.722-.907-1.013 0-.073.08.024.175.217.206.414.641.732 1.21.885.267.072.334.112.192.116-.12.003-.422-.09-.67-.205zm-.38-.535c-.002-.245.71-.85.842-.717.021.021-.086.09-.238.153-.151.063-.35.235-.44.384-.09.148-.165.229-.165.18zm-.599-.962a1.533 1.533 0 0 1 .16-.656c.092-.169.17-.275.171-.236a.777.777 0 0 1-.101.263c-.058.105-.132.369-.164.586l-.058.394zm1.963-1.532c.066-.271 1.017-2.29 1.06-2.247.016.016-.182.48-.44 1.029l-.571 1.218-.101.219zm-1.278-.206c0-.095 1.048-2.16 1.097-2.16.039 0-.98 2.094-1.063 2.183-.018.02-.034.01-.034-.023z"/></g></svg>