<svg xmlns="http://www.w3.org/2000/svg" width="210" height="100" viewBox="0 0 55.562 26.458"><defs><clipPath id="a"><path fill="#333" d="M89.554 142.18h32.279v35.375H89.554z" style="paint-order:stroke fill markers"/></clipPath></defs><path fill="#fff" d="M0 9.26h55.562v17.198H0z"/><g stroke-width=".265" clip-path="url(#a)" transform="matrix(1.7288 0 0 .72917 -155.06 -103.89)"><path fill="#52a0ed" d="M89.694 148.83v-6.35h32.279v12.7H89.694z"/><path fill="#2373e1" d="M89.694 152.21v-2.977l15.774.073c11.559.053 15.872-.01 16.14-.231.307-.255.365.207.365 2.904v3.208H89.694z"/></g><path d="m14.757 3.803.32-.086s-.52-1.254-.742-1.194c-.222.059-.169.212-.169.212s.694.662.591 1.068z"/><path fill="#1fe058" stroke="#000" stroke-linecap="round" stroke-linejoin="round" stroke-width=".154" d="M15.002 3.762s-.345-.575-1.034-.777c-1.354-.397-2.175 2.113-1.3 2.702.505.341.533.104.87.335.334.23.114.258.591.558.822.47 2.217-.692 2.156-1.791-.016-.287-.11-.503-.39-.757-.433-.42-.865-.229-.893-.27z"/><path fill="#40a41f" stroke="#000" stroke-width=".124" d="M15.077 3.717s.31-.317.958-.218c.648.1.966.419.966.419.216.169-.608.686-1.331.31-.723-.375-.602-.495-.593-.511z"/><path d="M5.003 3.843h.331s-.178-1.345-.408-1.345c-.23 0-.218.161-.218.161s.499.82.295 1.185z"/><path fill="red" stroke="#000" stroke-linecap="round" stroke-linejoin="round" stroke-width=".154" d="M5.216 3.842s-.587-.325-1.284-.156c-1.371.333-.828 2.917.225 2.99.608.043.514-.176.92-.144.405.031.229.166.792.187.948-.004 1.574-1.708.971-2.63-.157-.24-.346-.38-.715-.46-.586-.147-.864.234-.91.213z"/><path fill="#30c300" stroke="#000" stroke-width=".124" d="M5.194 3.77s.11-.43.72-.668c.61-.238 1.046-.121 1.046-.121.271.039-.183.898-.997.935-.814.036-.769-.129-.769-.147z"/><path d="M9.607 3.846h.332S9.76 2.5 9.53 2.5c-.23 0-.219.162-.219.162s.499.819.295 1.184z"/><path fill="gold" stroke="#000" stroke-linecap="round" stroke-linejoin="round" stroke-width=".154" d="M9.82 3.845s-.586-.326-1.284-.157c-1.37.333-.827 2.918.226 2.991.608.042.514-.177.92-.145.405.032.228.166.792.187.947-.003 1.574-1.707.97-2.629-.157-.24-.346-.38-.715-.46-.585-.148-.864.234-.909.213z"/><path fill="#30c300" stroke="#000" stroke-width=".124" d="M9.798 3.771s.11-.428.72-.667c.611-.238 1.047-.12 1.047-.12.27.038-.184.897-.998.934-.814.037-.769-.128-.769-.147z"/><path d="M23.42 3.846h.332S23.574 2.5 23.344 2.5c-.23 0-.218.162-.218.162s.499.819.295 1.184z"/><path fill="#006dff" stroke="#000" stroke-linecap="round" stroke-linejoin="round" stroke-width=".154" d="M23.634 3.845s-.587-.326-1.284-.157c-1.371.333-.827 2.918.225 2.991.609.042.514-.177.92-.145.405.032.23.166.792.187.948-.003 1.574-1.707.971-2.629-.157-.24-.346-.38-.715-.46-.586-.148-.864.234-.909.213z"/><path fill="#fff" stroke="#000" stroke-width=".124" d="M23.612 3.771s.11-.428.72-.667c.611-.238 1.046-.12 1.046-.12.272.038-.183.897-.997.934-.814.037-.769-.128-.769-.147z"/><path d="M18.816 3.846h.331S18.97 2.5 18.74 2.5c-.229 0-.218.162-.218.162s.499.819.295 1.184z"/><path fill="#fff" stroke="#000" stroke-linecap="round" stroke-linejoin="round" stroke-width=".154" d="M19.03 3.845s-.587-.326-1.285-.157c-1.37.333-.827 2.918.226 2.991.608.042.514-.177.92-.145.404.032.228.166.791.187.948-.003 1.575-1.707.972-2.629-.158-.24-.347-.38-.716-.46-.586-.148-.864.234-.909.213z"/><path fill="#fff" stroke="#000" stroke-width=".124" d="M19.007 3.771s.11-.428.72-.667c.611-.238 1.047-.12 1.047-.12.27.038-.184.897-.998.934-.814.037-.769-.128-.769-.147z"/><path d="M25.186 10.463c-.076.004-.145.022-.123.022a.307.307 0 0 0-.109.063v.002a.301.301 0 0 0-.079.098v.002a.268.268 0 0 0-.022.146l-.002-.012-.001.125a.11.11 0 0 0-.002.003l-.003.19a.11.11 0 0 0 0 .003l-.003.22-.004.225c-.002.07-.003.131-.006.185a.11.11 0 0 0 0 .005l-.006.118a.11.11 0 0 0 0 .002l-.017.267-.022.349-.03.373-.029.347a14.47 14.47 0 0 1-.023.268 2.18 2.18 0 0 1-.015.124.11.11 0 0 0 0 .001l-.166.945a.11.11 0 0 0-.003.02v.092c0 .09.023.176.071.247a.11.11 0 0 0 .002.001c.059.081.16.123.262.123a.34.34 0 0 0 .239-.096.62.62 0 0 0 .131-.2c.032-.075.054-.157.069-.244v-.001a3.313 3.313 0 0 0 .059-.443v-.003l.004-.015c.046.006.093.009.134.024a.11.11 0 0 0 .003 0 .78.78 0 0 1 .196.103.11.11 0 0 0 .003.002.99.99 0 0 1 .175.152.11.11 0 0 0 .002 0c.056.06.107.123.155.19a.11.11 0 0 0 0 .002c.049.066.095.137.135.209a.11.11 0 0 0 .001.003c.043.072.081.141.115.208a.11.11 0 0 0 .002.004.289.289 0 0 0 .145.129.11.11 0 0 0 .004.001.484.484 0 0 0 .147.023.325.325 0 0 0 .252-.106.373.373 0 0 0 .083-.242v-.095a.11.11 0 0 0-.012-.049 3.668 3.668 0 0 0-.204-.359 2.324 2.324 0 0 0-.237-.306l-.002-.002a2.057 2.057 0 0 0-.285-.26l-.002-.001c-.07-.054-.153-.1-.233-.148.009-.01.01-.012.02-.021a.11.11 0 0 0 .002-.002l.19-.175.227-.203c.08-.07.152-.137.22-.196l.18-.157.001-.001.096-.084a.11.11 0 0 0 .013-.013.25.25 0 0 0 .063-.121.11.11 0 0 0 .001-.002.604.604 0 0 0 .006-.102.319.319 0 0 0-.107-.254.391.391 0 0 0-.248-.077h-.083a.213.213 0 0 0-.165.095l.016-.02-.129.125-.167.155-.194.177a.11.11 0 0 0-.002.001c-.065.06-.132.12-.2.18-.067.056-.134.108-.199.16.001-.106.001-.212.006-.319l.024-.451.024-.456a10 10 0 0 0 .012-.458v-.563a.11.11 0 0 0-.005-.032.278.278 0 0 0-.169-.185.513.513 0 0 0-.182-.034zm-4.102.138a.329.329 0 0 0-.221.082.4.4 0 0 0-.115.188.11.11 0 0 0-.005.03l-.001.14a.11.11 0 0 0 0 .002c0 .062-.001.137-.005.223a.11.11 0 0 0-.001.001c-.002.084-.005.175-.006.271-.002.093-.003.181-.006.266a.11.11 0 0 0-.002.002l-.004.225c-.002.064-.003.11-.005.136a.11.11 0 0 0 0 .002c-.003.065-.01.149-.018.25a.11.11 0 0 0 0 .001c-.007.1-.016.209-.027.324a.11.11 0 0 0 0 .002 31.623 31.623 0 0 1-.06.677.11.11 0 0 0 0 .002c-.008.098-.017.182-.024.252l-.013.126-.157.88a.11.11 0 0 0-.003.02v.03c0 .09.036.18.102.24a.11.11 0 0 0 .001.002.36.36 0 0 0 .236.09.329.329 0 0 0 .307-.19v-.002a.543.543 0 0 0 .055-.157c.01-.048.02-.094.026-.139v-.003l.155-1.04a.11.11 0 0 0 0-.01l.11-1.577a.11.11 0 0 0 .002-.007v-1.07a.216.216 0 0 0-.048-.13.274.274 0 0 0-.077-.075l-.003-.002a.358.358 0 0 0-.09-.042h-.002a.301.301 0 0 0-.101-.02zm-10.465.145a.371.371 0 0 0-.208.068.306.306 0 0 0-.13.202.11.11 0 0 0 0 .002c-.014.099-.03.195-.05.288a1.506 1.506 0 0 1-.194.508 1.9 1.9 0 0 1-.186.255l.003-.002a.192.192 0 0 0-.038.176.11.11 0 0 0 .003.007.34.34 0 0 0 .076.113.11.11 0 0 0 .003.003c.036.033.076.06.118.081a.35.35 0 0 0 .156.039.459.459 0 0 0 .265-.087.814.814 0 0 0 .19-.199c.056-.078.104-.162.146-.257a.11.11 0 0 0 .001-.001c.04-.094.074-.188.102-.281a.11.11 0 0 0 0-.002c.027-.095.048-.185.061-.272l-.001.002c.015-.087.024-.162.024-.23v-.155a.11.11 0 0 0-.01-.04.334.334 0 0 0-.331-.218zm17.217.38c-.07 0-.14.02-.2.058a.578.578 0 0 0-.145.127.11.11 0 0 0-.002 0 .65.65 0 0 0-.099.166.463.463 0 0 0-.04.18c0 .065.02.127.052.183a.11.11 0 0 0 .003.004.63.63 0 0 0 .118.135.11.11 0 0 0 .005.003.727.727 0 0 0 .154.093.11.11 0 0 0 .003.001.47.47 0 0 0 .176.038c.06 0 .12-.02.174-.05a.561.561 0 0 0 .139-.106.11.11 0 0 0 .003-.003.606.606 0 0 0 .097-.146.414.414 0 0 0 .043-.178.407.407 0 0 0-.045-.181.627.627 0 0 0-.106-.148.56.56 0 0 0-.145-.121.363.363 0 0 0-.185-.056zm-22.473.938a.916.916 0 0 0-.242.028.543.543 0 0 0-.307.196c-.03.037-.064.079-.098.124-.03.04-.065.085-.104.132-.007.009-.02.02-.028.028a.924.924 0 0 0-.224-.305.768.768 0 0 0-.513-.179.705.705 0 0 0-.265.045.657.657 0 0 0-.197.116c-.036.032-.072.072-.108.111v-.016a.21.21 0 0 0-.062-.144.446.446 0 0 0-.212-.105H3a.345.345 0 0 0-.099-.006.11.11 0 0 0-.006 0 .168.168 0 0 0-.101.062.302.302 0 0 0-.047.082.11.11 0 0 0-.001.003c-.02.054-.04.123-.06.206a.11.11 0 0 0 0 .002 8.426 8.426 0 0 0-.055.285.11.11 0 0 0-.002.002l-.057.34a.11.11 0 0 0-.001 0c-.02.12-.04.245-.065.374a.11.11 0 0 0 0 .002c-.022.126-.05.25-.079.374a.11.11 0 0 0 0 .001 5.072 5.072 0 0 1-.091.354.11.11 0 0 0-.001 0 2.12 2.12 0 0 1-.108.293.11.11 0 0 0-.01.047v.085a.39.39 0 0 0 .083.244.11.11 0 0 0 .006.007.327.327 0 0 0 .253.112.57.57 0 0 0 .103-.01.11.11 0 0 0 .004 0 .54.54 0 0 0 .111-.037.11.11 0 0 0 .006-.003.36.36 0 0 0 .096-.075.269.269 0 0 0 .067-.135v.006l.025-.097.002-.003.05-.161v-.003l.06-.187v-.003c.021-.066.044-.129.063-.192l.053-.163.034-.104v-.002c.015-.043.032-.097.052-.164v-.002c.023-.066.049-.137.078-.212h-.001c.03-.076.065-.153.103-.23.036-.074.075-.137.118-.195a.612.612 0 0 1 .136-.134c.042-.03.08-.04.127-.04.03 0 .039.003.052.016a.22.22 0 0 1 .053.084.11.11 0 0 0 .001.004.54.54 0 0 1 .037.138c.009.058.014.115.015.17a.11.11 0 0 0 .002.003c.003.056.003.107.001.156a3.772 3.772 0 0 0-.003.12 2.804 2.804 0 0 1-.04.541.11.11 0 0 0-.001.001 3.921 3.921 0 0 1-.045.251.11.11 0 0 0 0 .003c-.018.09-.037.194-.059.313a.11.11 0 0 0-.003.02v.034c0 .1.034.196.096.27a.11.11 0 0 0 0 .002.358.358 0 0 0 .27.118.317.317 0 0 0 .107-.021.11.11 0 0 0 .006-.002c.03-.012.06-.03.088-.05l.003-.002a.38.38 0 0 0 .076-.07.315.315 0 0 0 .057-.1.11.11 0 0 0 .005-.018l.05-.346v-.001a8.257 8.257 0 0 1 .189-.885v-.002a2.44 2.44 0 0 1 .154-.397c.059-.116.124-.206.196-.275a.317.317 0 0 1 .212-.099h.078c.064.043.115.09.146.15a.816.816 0 0 1 .078.246.11.11 0 0 0 .001.003c.017.092.023.186.021.283a.11.11 0 0 0 0 .001v.286c0 .149-.007.299-.022.45a4.64 4.64 0 0 0-.026.472c0 .102.036.2.107.27.07.071.169.107.27.107a.337.337 0 0 0 .254-.11.571.571 0 0 0 .121-.23v-.001c.026-.086.04-.18.044-.281v-.002a2.91 2.91 0 0 0 .001-.28l.002.004a3.254 3.254 0 0 0-.014-.248v-.003a2.506 2.506 0 0 1-.007-.148c0-.111-.005-.227-.012-.35v-.002a2.814 2.814 0 0 0-.04-.372l.001.002a1.701 1.701 0 0 0-.1-.358 1.034 1.034 0 0 0-.185-.314.84.84 0 0 0-.296-.22.983.983 0 0 0-.425-.085zm3.205.057-.099.001c-.257 0-.496.028-.716.086a1.61 1.61 0 0 0-.577.275 1.28 1.28 0 0 0-.385.491 1.681 1.681 0 0 0-.138.71c0 .18.02.354.058.522.04.172.105.326.196.46a.11.11 0 0 0 0 .002c.094.138.22.249.37.33.156.085.343.125.557.125.117 0 .23-.016.335-.047a1.747 1.747 0 0 0 .564-.289v.002c.044-.034.087-.072.131-.107l.008.016c.019.063.04.122.065.177a.11.11 0 0 0 .002.003c.03.063.072.118.124.163a.365.365 0 0 0 .244.082.347.347 0 0 0 .267-.12.402.402 0 0 0 .096-.263 1 1 0 0 0-.035-.248 3.834 3.834 0 0 0-.06-.236l-.065-.227v-.004a.986.986 0 0 1-.027-.209.11.11 0 0 0-.002-.001l-.055-1.344a.271.271 0 0 0-.099-.198.502.502 0 0 0-.176-.092.935.935 0 0 0-.205-.045 2.575 2.575 0 0 0-.205-.014l.003.002a2.021 2.021 0 0 0-.176-.003zm5.048 0-.098.001c-.258 0-.497.028-.716.086a1.61 1.61 0 0 0-.577.275 1.28 1.28 0 0 0-.386.491 1.681 1.681 0 0 0-.138.71c0 .18.02.354.059.522.04.172.105.326.195.46a.11.11 0 0 0 0 .002c.095.138.22.249.37.33.156.085.343.125.557.125.117 0 .23-.016.335-.047a1.747 1.747 0 0 0 .564-.289v.002c.045-.034.087-.072.131-.107l.008.016c.019.063.041.122.066.177a.11.11 0 0 0 .001.003c.03.063.072.118.124.163a.365.365 0 0 0 .244.082.347.347 0 0 0 .267-.12.402.402 0 0 0 .096-.263 1 1 0 0 0-.033-.248 3.895 3.895 0 0 0-.061-.236c-.022-.076-.045-.151-.066-.227v-.004a.987.987 0 0 1-.027-.209.11.11 0 0 0-.001-.001l-.056-1.344a.271.271 0 0 0-.098-.198.502.502 0 0 0-.177-.092.935.935 0 0 0-.204-.045 2.575 2.575 0 0 0-.205-.014l.003.002a2.021 2.021 0 0 0-.177-.003zm5.733.067c-.114 0-.247 0-.399.002a3.586 3.586 0 0 0-.477.039 2.358 2.358 0 0 0-.483.125 1.33 1.33 0 0 0-.436.265c-.13.12-.231.274-.305.457a1.69 1.69 0 0 0-.1.679c.004.177.04.336.115.474a.11.11 0 0 0 .001.001c.072.13.167.242.28.337a.11.11 0 0 0 .001 0c.114.09.242.167.383.225.139.057.282.103.428.138a.11.11 0 0 0 .001 0c.145.032.288.055.43.072a.11.11 0 0 0 .002 0c.102.01.19.017.28.023 0 .034.003.077-.003.1a.241.241 0 0 1-.054.105.11.11 0 0 0-.002.002.224.224 0 0 1-.09.061.11.11 0 0 0-.004.002.648.648 0 0 1-.14.037.11.11 0 0 0-.005.001.78.78 0 0 1-.145.014.11.11 0 0 0-.003.001c-.054.002-.103.002-.145.002a.11.11 0 0 0-.001 0 1.1 1.1 0 0 1-.295-.028.11.11 0 0 0-.001 0 .502.502 0 0 1-.16-.068.355.355 0 0 1-.09-.088.11.11 0 0 0-.001-.001 2.194 2.194 0 0 0-.089-.119.503.503 0 0 0-.131-.115.11.11 0 0 0-.002 0 .423.423 0 0 0-.42.01.11.11 0 0 0-.001.002.318.318 0 0 0-.14.172.11.11 0 0 0-.005.033v.144a.11.11 0 0 0 .001.013.66.66 0 0 0 .144.326.11.11 0 0 0 .001 0c.08.099.179.185.298.256a.11.11 0 0 0 .001 0 1.728 1.728 0 0 0 .866.23c.091 0 .185-.009.28-.021a1.57 1.57 0 0 0 .572-.175.874.874 0 0 0 .47-.774v.003l.086-2.693a.11.11 0 0 0 .002-.003.2.2 0 0 0-.05-.125.365.365 0 0 0-.067-.059l-.003-.001a.413.413 0 0 0-.08-.046 1.162 1.162 0 0 1-.038-.02.11.11 0 0 0-.054-.015zm3.9.002a1.62 1.62 0 0 0-.585.109 1.621 1.621 0 0 0-.49.287 1.403 1.403 0 0 0-.34.44 1.234 1.234 0 0 0-.127.554c0 .194.025.381.078.562a.11.11 0 0 0 .001.002c.055.18.137.343.245.484.11.14.25.255.414.34.17.085.363.125.579.125.06 0 .132-.006.214-.017a2.38 2.38 0 0 0 .258-.043.11.11 0 0 0 .002-.001c.09-.023.18-.05.27-.083a1.25 1.25 0 0 0 .257-.124.11.11 0 0 0 .002-.001.779.779 0 0 0 .193-.18.43.43 0 0 0 .088-.26c0-.1-.04-.2-.117-.261a.398.398 0 0 0-.254-.09.662.662 0 0 0-.266.058 3.59 3.59 0 0 0-.221.11c-.07.035-.14.068-.214.098a.52.52 0 0 1-.203.037.807.807 0 0 1-.196-.023h-.002a.646.646 0 0 1-.18-.083.437.437 0 0 1-.13-.125c-.013-.02-.013-.05-.02-.074l.82-.046a1.837 1.837 0 0 0 .707-.172.11.11 0 0 0 .004-.001.899.899 0 0 0 .205-.144.692.692 0 0 0 .15-.203.616.616 0 0 0 .06-.27.942.942 0 0 0-.113-.473.903.903 0 0 0-.284-.314 1.147 1.147 0 0 0-.387-.166 1.768 1.768 0 0 0-.419-.052zm4.547.04a.313.313 0 0 0-.213.07.11.11 0 0 0-.001.002.377.377 0 0 0-.1.184.11.11 0 0 0-.005.026c-.002.107-.004.22-.009.343a.11.11 0 0 0-.001.001 9.283 9.283 0 0 1-.05.755 8.816 8.816 0 0 1-.103.739 4.098 4.098 0 0 1-.075.315.24.24 0 0 0 .01.163c.02.041.049.079.085.11a.11.11 0 0 0 .007.004.428.428 0 0 0 .117.061.11.11 0 0 0 .001 0 .43.43 0 0 0 .129.021.31.31 0 0 0 .223-.102.11.11 0 0 0 .001-.001.724.724 0 0 0 .126-.21c.034-.082.063-.172.085-.273v-.001c.023-.1.042-.203.057-.31a4.77 4.77 0 0 0 .031-.317v-.001a6.43 6.43 0 0 0 .018-.293c.003-.09.007-.168.007-.237v-.003l.003-.145v-.659a.11.11 0 0 0-.006-.033.274.274 0 0 0-.158-.178h-.002a.51.51 0 0 0-.177-.031zm-19.163.652.015.003v.057c0 .058 0 .108-.002.15a2.08 2.08 0 0 1-.007.116.11.11 0 0 0 0 .006c-.002.033-.006.065-.01.099a5.516 5.516 0 0 0-.01.106l-.013.125c-.006.052-.009.11-.012.175v-.012a.617.617 0 0 1-.096.235.941.941 0 0 1-.428.365.11.11 0 0 0 0 .001.6.6 0 0 1-.243.053.35.35 0 0 1-.208-.053.377.377 0 0 1-.124-.145.712.712 0 0 1-.063-.218 1.873 1.873 0 0 1-.016-.251.97.97 0 0 1 .074-.41v-.001a.59.59 0 0 1 .21-.238c.09-.06.2-.1.335-.123a.11.11 0 0 0 .001-.001c.139-.025.292-.037.46-.037h.132a.11.11 0 0 0 .005-.002zm5.048 0 .015.003v.057c0 .058 0 .108-.002.15a2.11 2.11 0 0 1-.007.116.11.11 0 0 0 0 .006c-.002.033-.006.065-.01.099a5.415 5.415 0 0 0-.01.106l-.013.125c-.006.052-.008.11-.012.175v-.012a.612.612 0 0 1-.094.235.942.942 0 0 1-.429.365.11.11 0 0 0 0 .001.6.6 0 0 1-.244.053.35.35 0 0 1-.208-.053.372.372 0 0 1-.122-.145.713.713 0 0 1-.065-.218 1.874 1.874 0 0 1-.016-.251c0-.175.027-.31.075-.41v-.001a.59.59 0 0 1 .209-.238c.09-.06.2-.1.335-.123a.11.11 0 0 0 .001-.001c.14-.025.293-.037.46-.037h.132a.11.11 0 0 0 .005-.002zm9.574.046c.038 0 .089.006.15.015a.548.548 0 0 1 .154.048.11.11 0 0 0 .002.001c.047.023.083.05.112.086a.11.11 0 0 0 .002.001c.015.019.018.049.024.076l-.006.003a1.874 1.874 0 0 1-.237.05 6.376 6.376 0 0 1-.321.036l-.344.024-.287.013.002-.001h-.023v-.002a.439.439 0 0 1 .093-.114.11.11 0 0 0 .001-.001.597.597 0 0 1 .14-.096.11.11 0 0 0 .002-.001c.058-.03.118-.056.178-.075a.11.11 0 0 0 .003 0c.06-.02.12-.035.181-.045a.11.11 0 0 0 .003-.001.97.97 0 0 1 .17-.017zm-4.303.02c.046 0 .46.021.145.004v.042a.11.11 0 0 0 0 .003c0 .073 0 .159-.003.257l-.01.316-.012.312-.01.262a.11.11 0 0 0 0 .003c0 .049.003.073.004.103-.035-.002-.063 0-.105-.003a3.724 3.724 0 0 1-.27-.03h-.004a2.565 2.565 0 0 1-.282-.063 1.267 1.267 0 0 1-.251-.097l-.002-.001a.62.62 0 0 1-.172-.14.3.3 0 0 1-.065-.173.842.842 0 0 1 .041-.383v-.001c.044-.1.1-.173.168-.227a.667.667 0 0 1 .248-.123 1.894 1.894 0 0 1 .58-.061z"/><path d="M5.021 16.65q0-.098.065-.16.064-.065.16-.065.023 0 .051.003.031.003.057.01.029.009.05.024.023.013.028.036l.37 1.364.658 1.38.178.375q.006.012.01.015h.014q.013 0 .015-.008l.008-.023q.05-.132.083-.235.036-.104.064-.21.031-.105.062-.23l.075-.3q.018-.054.039-.105.02-.054.052-.096.03-.044.075-.07.044-.028.11-.028.08 0 .148.062.067.06.124.16.057.101.106.23.049.127.096.261l.095.261q.047.127.098.227.055.101.114.163.062.06.134.06h.008q.13-.235.233-.468.103-.235.173-.473.072-.24.11-.488.04-.25.04-.52 0-.232-.008-.46-.008-.23-.008-.46v-.023l.003-.056.005-.086.005-.085.003-.057q.02-.075.077-.111.057-.039.132-.039.083 0 .132.047.049.044.077.116l.008.333q.005.142.005.274.003.13.003.264v.703q-.026.289-.093.558-.067.268-.168.524t-.23.504q-.127.248-.274.499-.039.044-.083.067-.04.023-.098.023-.1 0-.199-.062-.095-.062-.188-.16-.09-.098-.173-.22-.08-.124-.15-.248-.07-.124-.127-.235l-.09-.186-.016-.013-.039.16q-.023.104-.06.228-.033.124-.082.256-.049.131-.11.237-.063.106-.14.176-.078.067-.168.067-.086 0-.137-.049-.05-.049-.088-.116l-.08-.147-.098-.181-.083-.155-.039-.073-.77-1.658-.03-.104q-.03-.098-.068-.24l-.085-.31-.083-.308q-.036-.144-.062-.24-.026-.098-.026-.106zM9.163 19q0-.266.114-.494.113-.23.307-.397t.447-.264q.256-.098.535-.098.194 0 .385.046.191.044.344.148.152.103.245.27.096.169.096.412 0 .121-.047.217t-.124.168q-.077.072-.178.124-.1.049-.212.082t-.225.052-.214.023l-.93.052v.01q0 .13.062.223t.157.155q.096.062.21.093.113.028.22.028.128 0 .24-.046.113-.047.22-.101.105-.057.208-.104.106-.046.217-.046.106 0 .181.062.075.06.075.173 0 .106-.064.191-.062.083-.163.15-.101.065-.23.111-.127.047-.253.078-.127.028-.243.041-.117.016-.197.016-.297 0-.519-.112-.222-.113-.37-.302-.147-.191-.222-.44-.072-.25-.072-.521zm1.408-.747q-.085 0-.186.018-.098.016-.196.05-.098.03-.191.08-.093.046-.163.11-.07.063-.114.14-.041.075-.041.166l.16-.003.284-.013q.163-.01.339-.024.175-.015.323-.036.15-.023.245-.051t.096-.068q0-.11-.062-.183-.06-.072-.148-.114-.085-.041-.18-.057t-.166-.015zm2.961.847q0-.38.124-.649.124-.27.346-.441.222-.17.527-.251.308-.08.675-.08l.1-.003q.073-.003.163.003.093.003.191.013.099.01.181.039.083.025.137.072.055.044.057.114l.054 1.317q.003.114.031.23.031.114.065.228t.06.227q.028.111.028.217 0 .111-.067.189-.065.077-.181.077-.109 0-.168-.051t-.096-.127q-.033-.075-.06-.16t-.069-.155q-.116.098-.235.188-.116.09-.246.158-.126.067-.268.106-.14.041-.3.041-.295 0-.496-.108-.199-.109-.323-.29-.121-.18-.176-.416t-.054-.488zm.53.01q0 .127.018.261t.072.246q.054.11.155.183.1.073.266.073.14 0 .282-.062.145-.062.263-.163.12-.104.205-.235.085-.132.108-.272.005-.095.013-.165l.013-.124.01-.103q.005-.05.008-.104.005-.054.008-.119.002-.064.002-.152v-.147q-.062-.021-.126-.018h-.13q-.255 0-.47.038-.214.037-.37.137-.154.101-.242.277-.085.176-.085.45zm2.47.94.023-.098q.018-.07.036-.158l.042-.183q.023-.096.041-.184l.031-.155q.016-.07.02-.103.006-.026.009-.098l.01-.176.013-.222q.008-.122.02-.243.013-.122.032-.235.018-.114.043-.2.029-.087.065-.139.036-.051.083-.049.023 0 .06.01.038.009.072.024.036.015.059.039.026.023.026.056v.385q.095-.095.194-.18.098-.088.206-.153.109-.064.228-.1.121-.04.263-.04.078 0 .184.013.106.01.204.044.098.034.165.099.07.064.07.167 0 .099-.054.158-.052.057-.15.057-.052 0-.101-.013t-.1-.028q-.05-.019-.102-.031-.049-.013-.105-.013-.184 0-.326.09-.14.088-.25.235-.11.145-.192.33-.08.187-.145.38-.064.192-.118.375-.052.184-.104.326-.051.14-.106.222-.051.083-.119.073-.103-.013-.165-.06-.062-.049-.062-.157zM18.971 19q0-.266.114-.494.113-.23.307-.397t.447-.264q.256-.098.535-.098.194 0 .385.046.191.044.344.148.152.103.245.27.096.169.096.412 0 .121-.047.217t-.124.168q-.077.072-.178.124-.1.049-.212.082t-.225.052-.214.023l-.93.052v.01q0 .13.062.223t.157.155q.096.062.21.093.113.028.22.028.128 0 .24-.046.113-.047.22-.101.105-.057.208-.104.106-.046.217-.046.106 0 .181.062.075.06.075.173 0 .106-.064.191-.062.083-.163.15-.101.065-.23.111-.127.047-.253.078-.127.028-.243.041-.117.016-.197.016-.297 0-.519-.112-.222-.113-.37-.302-.147-.191-.222-.44-.072-.25-.072-.521zm1.408-.747q-.085 0-.186.018-.098.016-.196.05-.098.03-.191.08-.093.046-.163.11-.07.063-.114.14-.041.075-.041.166l.16-.003.284-.013q.163-.01.339-.024.175-.015.323-.036.15-.023.245-.051t.096-.068q0-.11-.062-.183-.06-.072-.148-.114-.085-.041-.18-.057t-.166-.015zm3.127 1.797.18-1.145.14-2.537q.008-.095.073-.14.067-.043.144-.043t.145.025q.07.026.093.112v.467q0 .184-.008.346-.005.163-.013.32l-.015.319q-.005.162-.005.346v.067l.14-.134q.074-.075.16-.14.085-.067.178-.11.095-.045.194-.045.178 0 .302.088t.207.23q.082.14.129.318.049.178.072.362.023.18.029.351.007.168.007.29 0 .051.008.147.008.093.01.204.003.11-.005.225t-.036.209q-.028.093-.088.152-.057.06-.152.06-.114 0-.178-.075-.065-.075-.065-.189 0-.17.01-.34.013-.171.013-.347 0-.07.003-.168.002-.1 0-.212-.003-.111-.013-.225-.01-.116-.036-.22-.026-.103-.07-.188-.044-.085-.111-.137-.16.044-.29.166-.126.12-.227.291-.1.168-.178.37-.078.199-.135.398-.054.199-.093.38t-.064.312q-.023.078-.088.132-.065.052-.15.052-.114 0-.165-.067-.052-.07-.052-.173zm2.325-.95q0-.38.124-.649.124-.27.346-.441.222-.17.527-.251.308-.08.675-.08l.1-.003q.073-.003.163.003.093.003.191.013.099.01.181.039.083.025.137.072.055.044.057.114l.054 1.317q.003.114.031.23.031.114.065.228t.06.227q.028.111.028.217 0 .111-.067.189-.065.077-.181.077-.109 0-.168-.051t-.096-.127q-.033-.075-.06-.16t-.069-.155q-.116.098-.235.188-.116.09-.246.158-.126.067-.268.106-.14.041-.3.041-.295 0-.496-.108-.199-.109-.323-.29-.121-.18-.176-.416t-.054-.488zm.53.01q0 .127.018.261t.072.246q.054.11.155.183.1.073.266.073.14 0 .282-.062.145-.062.263-.163.12-.104.205-.235.085-.132.108-.272.005-.095.013-.165l.013-.124.01-.103q.005-.05.008-.104.005-.054.008-.119.002-.064.002-.152v-.147q-.062-.021-.126-.018h-.13q-.255 0-.47.038-.214.037-.37.137-.154.101-.242.277-.085.176-.085.45zm2.537-1.22q.02-.106.098-.155.08-.05.178-.034.096.018.14.052t.062.083q.02.049.026.108.005.06.02.13.347-.109.703-.114.36-.008.729.057.204.036.362.147.157.108.255.269.099.157.135.354.036.193 0 .397-.047.27-.204.478t-.38.347q-.22.134-.48.188-.262.052-.52.005l-.739-.1-.036.19-.016.099-.007.052-.008.054q-.005.034-.018.098-.01.065-.034.191l-.018.099q-.01.072-.026.15l-.026.15q-.01.072-.015.097-.039.073-.109.106-.067.034-.14.021-.092-.018-.144-.083-.052-.064-.06-.155l.029-.144q.018-.075.034-.155.018-.078.033-.155.016-.078.023-.148l.026-.26q.016-.16.031-.342.018-.183.034-.37.018-.188.03-.345l.022-.267q.007-.11.01-.136l-.005-.925.002-.013v-.01q.003-.006.003-.011zm.52.78-.008.034-.003.023q-.003.018-.008.086-.005.064-.015.155-.008.087-.021.19l-.018.192q-.008.088-.016.155-.007.065-.007.083.08.025.14.038.059.013.11.021.054.005.109.013.057.005.132.018.121.02.258.031.137.008.271-.005.135-.013.261-.049.13-.039.233-.108.103-.073.175-.181.075-.109.101-.261.02-.114.008-.217-.013-.104-.057-.186-.044-.086-.121-.14-.078-.057-.189-.077-.062-.01-.18-.018-.12-.01-.267-.01-.145 0-.297.01t-.282.033q-.126.023-.214.067-.085.042-.096.104zm2.622-.78q.02-.106.098-.155.08-.05.178-.034.096.018.14.052t.062.083q.02.049.026.108.005.06.02.13.347-.109.703-.114.36-.008.729.057.204.036.362.147.157.108.255.269.099.157.135.354.036.193 0 .397-.047.27-.204.478t-.38.347q-.22.134-.48.188-.262.052-.52.005l-.739-.1-.036.19-.016.099-.007.052-.008.054q-.005.034-.018.098-.01.065-.034.191l-.018.099q-.01.072-.026.15l-.026.15q-.01.072-.015.097-.039.073-.109.106-.067.034-.14.021-.092-.018-.144-.083-.052-.064-.06-.155l.029-.144q.018-.075.034-.155.018-.078.033-.155.016-.078.023-.148l.026-.26q.016-.16.031-.342.018-.183.034-.37.018-.188.03-.345l.022-.267q.007-.11.01-.136l-.005-.925.002-.013v-.01q.003-.006.003-.011zm.52.78-.008.034-.003.023q-.003.018-.008.086-.005.064-.015.155-.008.087-.021.19l-.018.192q-.008.088-.016.155-.007.065-.007.083.08.025.14.038.059.013.11.021.054.005.109.013.057.005.132.018.121.02.258.031.137.008.271-.005.135-.013.261-.049.13-.039.233-.108.103-.073.175-.181.075-.109.101-.261.02-.114.008-.217-.013-.104-.057-.186-.044-.086-.121-.14-.078-.057-.189-.077-.062-.01-.18-.018-.12-.01-.267-.01-.145 0-.297.01t-.282.033q-.126.023-.214.067-.085.042-.096.104zm3.247 2.8q0-.196.028-.385.031-.186.078-.37.046-.18.103-.364.057-.18.111-.37v-.056q-.232 0-.4-.085t-.284-.228q-.117-.142-.189-.328-.072-.189-.114-.393-.038-.204-.051-.413t-.013-.395q0-.06.008-.12.01-.061.036-.11.026-.05.072-.08t.122-.031q.07 0 .134.046.067.044.083.114l.007.103.013.194q.01.114.026.25t.039.28q.023.14.054.27.034.133.078.236.044.1.1.163.06.062.132.062.14 0 .235-.067.099-.07.168-.184.073-.114.122-.256.051-.144.095-.294.044-.153.09-.295.047-.144.107-.258.062-.114.144-.181.083-.07.204-.07.112 0 .163.075.055.072.055.178v.068l-.755 1.899q-.155.398-.25.808-.094.414-.094.838-.007.085-.08.121-.07.039-.147.039-.039 0-.08-.01t-.075-.034q-.031-.024-.054-.06-.02-.033-.02-.08z" aria-label="We are happy"/><path fill="#fff" d="M31.154 2.04a.306.306 0 0 0-.207.076.374.374 0 0 0-.107.178.094.094 0 0 0-.004.025c0 .027 0 .073-.002.137a.094.094 0 0 0 0 .002c0 .061-.003.135-.006.219a.094.094 0 0 0 0 .002l-.006.263-.008.262a.094.094 0 0 0 0 .002l-.004.223a7.716 7.716 0 0 1-.023.379.094.094 0 0 0 0 .002c-.007.1-.015.205-.026.318-.008.111-.019.227-.029.344-.01.116-.021.222-.031.32a.094.094 0 0 0 0 .002l-.024.246-.011.125-.155.864a.094.094 0 0 0-.002.015v.03c0 .085.034.169.096.226a.094.094 0 0 0 0 .002.336.336 0 0 0 .223.082.3.3 0 0 0 .181-.053.363.363 0 0 0 .106-.125v-.002a.522.522 0 0 0 .052-.148v-.002a1.49 1.49 0 0 0 .026-.137l-.002.002.152-1.023a.094.094 0 0 0 .002-.008l.11-1.545a.094.094 0 0 0 0-.006V2.288a.195.195 0 0 0-.045-.121.338.338 0 0 0-.16-.11.287.287 0 0 0-.096-.017zm15.896 0a.308.308 0 0 0-.209.076.374.374 0 0 0-.107.178.094.094 0 0 0-.004.025c0 .027 0 .073-.002.137a.094.094 0 0 0 0 .002c0 .063 0 .136-.004.219a.094.094 0 0 0 0 .002l-.006.263-.008.262a.094.094 0 0 0 0 .002l-.006.223c-.002.064-.002.11-.004.133a5.14 5.14 0 0 1-.02.246.094.094 0 0 0 0 .002c-.006.1-.014.205-.025.318l-.027.344c-.01.116-.02.222-.031.32a.094.094 0 0 0 0 .002l-.024.246-.013.125-.153.864a.094.094 0 0 0-.002.015v.03c0 .085.034.169.096.226a.094.094 0 0 0 0 .002.336.336 0 0 0 .223.082.3.3 0 0 0 .181-.053.357.357 0 0 0 .104-.125v-.002a.527.527 0 0 0 .055-.148v-.002c.01-.048.02-.092.025-.137l-.002.002.152-1.023a.094.094 0 0 0 .002-.008l.108-1.545a.094.094 0 0 0 0-.006V2.288a.195.195 0 0 0-.045-.121.338.338 0 0 0-.158-.11.287.287 0 0 0-.096-.017zm1.088.514a.361.361 0 0 0-.19.054.546.546 0 0 0-.138.121.62.62 0 0 0-.094.159.442.442 0 0 0-.039.172c0 .058.017.117.049.171a.094.094 0 0 0 .002.004c.03.047.068.09.113.13a.094.094 0 0 0 .002.003.714.714 0 0 0 .15.088.094.094 0 0 0 .002 0 .447.447 0 0 0 .168.037c.056 0 .11-.017.16-.045a.54.54 0 0 0 .135-.103.094.094 0 0 0 .002-.002.584.584 0 0 0 .094-.14.39.39 0 0 0 .041-.169.379.379 0 0 0-.043-.17.6.6 0 0 0-.101-.142.542.542 0 0 0-.14-.115.34.34 0 0 0-.173-.053zm-5.524.888a.338.338 0 0 0-.236.092.094.094 0 0 0-.002.002.338.338 0 0 0-.096.24c0 .082.005.161.012.239l.024.23a.094.094 0 0 0 .002.002c.01.074.016.15.023.225.007.072.01.147.01.222 0 .062-.003.133-.006.215a1.761 1.761 0 0 1-.08.49.77.77 0 0 1-.094.204.462.462 0 0 1-.137.134.345.345 0 0 1-.185.045.387.387 0 0 1-.22-.058.573.573 0 0 1-.161-.174 1.063 1.063 0 0 1-.113-.272 2.409 2.409 0 0 1-.067-.336 4.289 4.289 0 0 1-.03-.359v-.002a13.027 13.027 0 0 1-.007-.35l.008-.294v-.002c.005-.088.01-.157.012-.211a.094.094 0 0 0-.002-.026.298.298 0 0 0-.13-.176.43.43 0 0 0-.091-.04h-.002a.289.289 0 0 0-.316.074.465.465 0 0 0-.102.18.094.094 0 0 0-.004.027v.449c0 .13.005.274.012.432.007.158.024.318.049.48a.094.094 0 0 0 0 .002c.026.162.061.32.111.475.05.158.123.3.21.425.093.126.207.23.343.307a.094.094 0 0 0 .002 0c.141.08.309.12.498.12.156 0 .295-.03.418-.083a.094.094 0 0 0 .002 0 .98.98 0 0 0 .314-.219c.088-.091.16-.198.215-.316v-.002a2.366 2.366 0 0 0 .203-.75 3.51 3.51 0 0 0 .022-.377c0-.035 0-.088.004-.158.003-.074.005-.154.005-.242 0-.091-.004-.183-.013-.274V4.03a1.145 1.145 0 0 0-.051-.265v-.002a.548.548 0 0 0-.117-.215.31.31 0 0 0-.237-.106zm-3.332.032a.902.902 0 0 0-.234.027.542.542 0 0 0-.293.186 4.86 4.86 0 0 0-.096.12 2.72 2.72 0 0 1-.1.13c-.01.013-.03.028-.044.042a.894.894 0 0 0-.225-.31.736.736 0 0 0-.494-.172.678.678 0 0 0-.443.154c-.046.04-.088.086-.13.135v-.055a.188.188 0 0 0-.056-.13.437.437 0 0 0-.201-.098h-.002a.379.379 0 0 0-.092-.006.094.094 0 0 0-.004.002.15.15 0 0 0-.09.053.277.277 0 0 0-.044.078.094.094 0 0 0-.002.002 1.8 1.8 0 0 0-.059.2.094.094 0 0 0 0 .003c-.018.081-.034.174-.053.28l-.058.333c-.02.118-.04.24-.065.367a.094.094 0 0 0 0 .002 6.33 6.33 0 0 1-.168.715.094.094 0 0 0 0 .002 2.093 2.093 0 0 1-.105.29.094.094 0 0 0-.01.038v.082a.372.372 0 0 0 .08.23.094.094 0 0 0 .006.005.306.306 0 0 0 .236.107.552.552 0 0 0 .098-.01.094.094 0 0 0 .004 0 .55.55 0 0 0 .105-.037.094.094 0 0 0 .006-.002.335.335 0 0 0 .09-.07.25.25 0 0 0 .063-.125v.006c.004-.022.012-.054.025-.098l-.002.002c.015-.046.035-.1.053-.162v-.002l.056-.182.002-.004.063-.19.049-.157.033-.104.002-.002.05-.16.003-.002c.021-.064.046-.134.074-.207l.002-.002c.03-.076.062-.15.098-.225.035-.072.074-.136.117-.193a.626.626 0 0 1 .136-.137.218.218 0 0 1 .133-.04c.033 0 .048.006.063.02.021.021.04.048.054.087a.094.094 0 0 0 .002.004.54.54 0 0 1 .038.138c.008.057.012.114.013.168a.094.094 0 0 0 0 .004c.004.056.004.105.002.153-.002.05-.002.089-.002.117a2.798 2.798 0 0 1-.04.533.094.094 0 0 0 .001.002c-.012.079-.028.16-.047.246a.094.094 0 0 0 0 .002c-.017.089-.036.191-.056.307a.094.094 0 0 0-.002.015v.036a.39.39 0 0 0 .088.256.094.094 0 0 0 .002 0 .334.334 0 0 0 .253.11.285.285 0 0 0 .1-.019.094.094 0 0 0 .006-.002.413.413 0 0 0 .082-.048l.004-.002a.362.362 0 0 0 .072-.067.285.285 0 0 0 .053-.092.094.094 0 0 0 .004-.015l.049-.338a8.162 8.162 0 0 1 .187-.871v-.002c.043-.146.094-.277.15-.39v-.003a.995.995 0 0 1 .196-.271.094.094 0 0 0 .002-.002.315.315 0 0 1 .213-.1h.084a.415.415 0 0 1 .15.156.806.806 0 0 1 .08.244.094.094 0 0 0 0 .002c.016.09.021.183.02.28a.094.094 0 0 0 0 .002v.279c0 .147-.007.296-.022.443a4.52 4.52 0 0 0-.023.461c0 .097.033.19.1.256a.35.35 0 0 0 .253.1c.092 0 .18-.037.239-.106a.547.547 0 0 0 .115-.216v-.002c.024-.084.039-.175.043-.272v-.002c.005-.093.005-.184.002-.271a3.21 3.21 0 0 0-.012-.24v-.005a2.574 2.574 0 0 1-.008-.146c0-.108-.003-.222-.01-.342v-.002a2.726 2.726 0 0 0-.04-.361 1.658 1.658 0 0 0-.098-.348.995.995 0 0 0-.178-.303.808.808 0 0 0-.285-.21.95.95 0 0 0-.41-.083zm10.314.04a1.31 1.31 0 0 0-.36.047.86.86 0 0 0-.3.153.732.732 0 0 0-.2.263.882.882 0 0 0-.075.374c0 .144.02.27.066.375a.094.094 0 0 0 .002.002.672.672 0 0 0 .188.24c.076.06.164.108.258.138.089.029.18.053.273.073a.094.094 0 0 0 .002 0l.258.05a.094.094 0 0 0 .002 0c.08.017.149.039.207.067a.094.094 0 0 0 .002 0c.053.025.093.06.123.101a.094.094 0 0 0 .002.002.276.276 0 0 1 .043.168.128.128 0 0 1-.023.08.224.224 0 0 1-.069.065.49.49 0 0 1-.113.04.61.61 0 0 1-.317-.014h-.002a1.635 1.635 0 0 1-.212-.075l-.002-.002a2.182 2.182 0 0 1-.371-.222.094.094 0 0 0-.043-.02l.002.002c-.003 0-.006 0-.008-.002h.006a.094.094 0 0 0-.008-.002h-.004l-.004-.002a.08.08 0 0 0-.016-.004l-.013-.004c-.003 0-.007 0-.01-.002l-.012-.004-.006-.002c-.003 0-.006-.003-.01-.004-.008-.002-.022-.002-.023-.002h-.01a.312.312 0 0 0-.12.024.334.334 0 0 0-.178.162.094.094 0 0 0 0 .002.294.294 0 0 0-.014.21.094.094 0 0 0 .004.012l.01.035a.094.094 0 0 0 .019.038c.066.083.148.158.244.224a.094.094 0 0 0 .002.002c.096.064.199.12.307.166a.094.094 0 0 0 .002 0c.108.046.218.08.332.106.115.025.225.039.332.039.059 0 .119-.01.183-.022a1.313 1.313 0 0 0 .41-.14.094.094 0 0 0 .003 0 .987.987 0 0 0 .183-.13.655.655 0 0 0 .139-.171.094.094 0 0 0 0-.002.467.467 0 0 0 .055-.22v-.329a.616.616 0 0 0-.077-.314.621.621 0 0 0-.187-.205.902.902 0 0 0-.25-.125 2.633 2.633 0 0 0-.272-.079l.002.002c-.088-.022-.176-.045-.263-.064h-.002a1.294 1.294 0 0 1-.21-.068.413.413 0 0 1-.128-.088.173.173 0 0 1-.037-.12c0-.049.01-.08.02-.097a.109.109 0 0 1 .044-.047.259.259 0 0 1 .09-.025.094.094 0 0 0 .004-.002 1.015 1.015 0 0 1 .314.011c.066.014.132.027.192.043a.094.094 0 0 0 .002.002l.195.045c.071.015.144.023.219.023a.297.297 0 0 0 .22-.091.094.094 0 0 0 .003 0 .337.337 0 0 0-.004-.436.513.513 0 0 0-.178-.121.982.982 0 0 0-.217-.072h-.002a1.784 1.784 0 0 0-.23-.04h-.004a2.326 2.326 0 0 0-.215-.015c-.067-.002-.12-.002-.164-.002zm-16.22.014-.096.002a2.81 2.81 0 0 0-.7.084c-.213.056-.4.144-.558.266-.16.123-.288.283-.377.476h.002a1.63 1.63 0 0 0-.133.688c0 .176.02.346.057.51.038.166.102.316.19.447.09.132.21.241.355.32.151.082.333.12.54.12.115 0 .223-.015.325-.045a1.658 1.658 0 0 0 .547-.28c.048-.036.095-.075.142-.113.005.012.012.02.016.033.018.06.038.117.063.172a.094.094 0 0 0 .002.002c.029.06.07.113.119.156a.34.34 0 0 0 .228.074c.097 0 .19-.036.252-.109a.38.38 0 0 0 .09-.25.97.97 0 0 0-.031-.24l.002.002a3.826 3.826 0 0 0-.063-.235 11.18 11.18 0 0 1-.062-.22.988.988 0 0 1-.03-.211.094.094 0 0 0 0-.002l-.054-1.317a.25.25 0 0 0-.09-.181.478.478 0 0 0-.166-.09.912.912 0 0 0-.201-.045 2.565 2.565 0 0 0-.196-.012 1.716 1.716 0 0 0-.173-.002zm10.331.028a.352.352 0 0 0-.24.045.094.094 0 0 0-.002.002.318.318 0 0 0-.133.203.094.094 0 0 0-.003.008l-.002.004a.094.094 0 0 0 0 .004.094.094 0 0 0-.002.006.094.094 0 0 0 0 .004v.004a.094.094 0 0 0-.002.006l-.002.006a.215.215 0 0 0-.002.023l.005.924a7.226 7.226 0 0 0-.01.13c-.004.072-.012.161-.02.266l-.032.344a.094.094 0 0 0 0 .002c-.01.124-.021.246-.033.367a.094.094 0 0 0 0 .002c-.01.12-.021.234-.032.34l-.025.26a1.639 1.639 0 0 1-.021.14c-.01.052-.022.1-.034.15a.094.094 0 0 0 0 .005c-.01.052-.021.102-.033.15a.094.094 0 0 0 0 .004l-.03.145a.094.094 0 0 0-.001.025.382.382 0 0 0 .08.207c.05.062.12.1.2.116a.094.094 0 0 0 .001 0 .315.315 0 0 0 .197-.028.334.334 0 0 0 .149-.146.094.094 0 0 0 .01-.028 2.01 2.01 0 0 0 .015-.097v-.004a3.98 3.98 0 0 0 .028-.147v-.002c.01-.051.018-.098.025-.146v-.004l.018-.096.033-.191v-.002l.02-.1c.003-.023.007-.041.01-.057l-.003.002.008-.05c.004-.027.007-.055.014-.094v-.002c.004-.023.012-.068.02-.104l.648.088c.183.033.367.033.552-.004a.094.094 0 0 0 .002 0 1.59 1.59 0 0 0 .51-.2c.158-.098.294-.221.406-.37a1.18 1.18 0 0 0 .221-.52 1.2 1.2 0 0 0 0-.431 1.094 1.094 0 0 0-.146-.385.997.997 0 0 0-.682-.459 3.839 3.839 0 0 0-.746-.058c-.21.003-.418.036-.623.091 0-.007-.003-.014-.004-.021a.456.456 0 0 0-.031-.133l-.002-.002a.28.28 0 0 0-.092-.123.406.406 0 0 0-.18-.068.094.094 0 0 0-.004 0zm4.391.08a.292.292 0 0 0-.2.064.094.094 0 0 0-.001.002.357.357 0 0 0-.094.174.094.094 0 0 0-.004.022 8.314 8.314 0 0 1-.01.337.094.094 0 0 0 0 .002 9.263 9.263 0 0 1-.048.739 8.593 8.593 0 0 1-.102.726 4.14 4.14 0 0 1-.074.309.22.22 0 0 0 .012.15c.018.04.045.073.078.102a.094.094 0 0 0 .006.006.395.395 0 0 0 .11.055.094.094 0 0 0 .003.002c.04.012.078.02.119.02a.288.288 0 0 0 .209-.097.094.094 0 0 0 .002 0 .696.696 0 0 0 .12-.2v-.003c.033-.079.06-.166.081-.263V5.78a4.65 4.65 0 0 0 .088-.611v-.003a6.451 6.451 0 0 0 .024-.517v-.002l.002-.143v-.646a.094.094 0 0 0-.004-.028.255.255 0 0 0-.147-.166h-.002a.483.483 0 0 0-.168-.03zm-14.793.611h.129a.094.094 0 0 0 .004 0c.01 0 .02.003.03.004v.068a3.825 3.825 0 0 1-.01.262.094.094 0 0 0 0 .006 1.69 1.69 0 0 1-.008.098l-.012.103-.012.123c-.005.047-.01.101-.014.164a.615.615 0 0 1-.091.233.943.943 0 0 1-.428.361.605.605 0 0 1-.244.055.351.351 0 0 1-.211-.055.391.391 0 0 1-.127-.148.703.703 0 0 1-.065-.217 1.846 1.846 0 0 1-.015-.248.94.94 0 0 1 .076-.408.59.59 0 0 1 .209-.24.87.87 0 0 1 .334-.124.094.094 0 0 0 .002 0 2.62 2.62 0 0 1 .453-.037zm11.521.248c.096 0 .182.003.258.01a.094.094 0 0 0 .002 0c.076.005.132.012.17.018a.358.358 0 0 1 .15.06.094.094 0 0 0 .002 0 .284.284 0 0 1 .09.108.094.094 0 0 0 .002 0 .44.44 0 0 1 .047.154.61.61 0 0 1-.006.187.094.094 0 0 0 0 .002.553.553 0 0 1-.086.225.094.094 0 0 0-.002 0 .575.575 0 0 1-.15.154.756.756 0 0 1-.207.098c-.078.022-.16.037-.244.045a1.706 1.706 0 0 1-.504-.023 1.752 1.752 0 0 0-.14-.02l.007.002c-.037-.005-.075-.012-.113-.015A2.21 2.21 0 0 1 44 5.48a.645.645 0 0 1-.057-.016v-.002a.094.094 0 0 0 0-.002 5.73 5.73 0 0 0 .016-.156c.005-.06.01-.122.018-.187v-.002c.008-.068.016-.132.021-.192v-.002a4.81 4.81 0 0 0 .02-.234.094.094 0 0 0 0-.002.094.094 0 0 0 .002-.002v-.006a.094.094 0 0 0 0-.004l.002-.006v-.004c.002-.01.006-.02.007-.03a.094.094 0 0 0 0-.001c.001-.003.004-.015.045-.036a.735.735 0 0 1 .19-.058c.083-.015.174-.027.271-.033.1-.007.197-.01.291-.01z"/></svg>