<svg xmlns="http://www.w3.org/2000/svg" baseProfile="tiny" version="1.2" viewBox="0 0 330 330"><g fill="none" stroke-width="2"><path stroke="#0a090a" d="M179.78 0q-.93 3.76-3.64 5.99-.32.26-.46.64l-1.63 4.26a.92.92 0 0 1-.72.58c-5.28.76-4.01 6.96-2.88 10.66a.92.9-82.8 0 0 .39.51q4.76 2.94 2.66 8.05-.22.55.33.77l.96.38" vector-effect="non-scaling-stroke"/><path stroke="#282828" d="m174.79 31.84-39.99.09a.9.9 0 0 0-.89.9l.06 61.44q0 1.06 1.05 1.06l60.43-.31q.6 0 .6-.6L196 48.78" vector-effect="non-scaling-stroke"/><path stroke="#0a090a" d="m196 48.78 5-.27" vector-effect="non-scaling-stroke"/><path stroke="#6f6338" d="M201 48.51v45.88a.62.62 0 0 0 .62.62l45.21.04" vector-effect="non-scaling-stroke"/><path stroke="#0a090a" d="m246.83 95.05 5.77 4.92" vector-effect="non-scaling-stroke"/><path stroke="#6f6338" d="m252.6 99.97-51.07.02a.53.53 0 0 0-.53.53v60.98q0 .5.5.5h60.99q.5 0 .5-.5v-52.46" vector-effect="non-scaling-stroke"/><path stroke="#0a090a" d="M262.99 109.04q1.19 2.64 4.02 3.81.61.25.67-.41l.32-3.96" vector-effect="non-scaling-stroke"/><path stroke="#405e3c" d="m268 108.48.02 52.96q0 .53.54.53l61.44.01m0 5.03h-61.49a.51.51 0 0 0-.51.51v61.96q0 .49.48.49l61.52-.01m0 5.06h-61.51q-.49 0-.49.49v61a.46.45-90 0 0 .45.46l61.55-.01m-330-.03 61.51.05a.49.49 0 0 0 .49-.49v-60.98q0-.48-.49-.48L0 235.04" vector-effect="non-scaling-stroke"/><path stroke="#6f6338" d="M0 229.98h61.51q.49 0 .49-.49v-62a.46.45 90 0 0-.45-.46L0 167.04" vector-effect="non-scaling-stroke"/><path stroke="#282828" d="m0 161.97 60.91.02a1.34 1.34 0 0 0 1.34-1.34l-.13-59.82a.7.69.9 0 0-.68-.69Q30.8 99.33 0 100.09m0-4.91h61.47a.82.81-.3 0 0 .82-.82l-.32-61.82q0-.51-.51-.51L0 32.05" vector-effect="non-scaling-stroke"/><path stroke="#0a090a" d="M290.11 0q-1.98 4.54-1.8 6c.64 5.35-.3 10.98-.31 16.17q0 .48-.26.9-1.16 1.9-2.75.68-.4-.3-.89-.21c-5.08 1-3.83 5.8.13 7.2a.53.52-65 0 1 .28.77q-.17.28-.52.5" vector-effect="non-scaling-stroke"/><path stroke="#1f1f1e" d="M283.99 32.01 268.35 32q-.68 0-.67.68l.1 61.59a1.03 1.03 0 0 0 1.03 1.03l61.19-.34" vector-effect="non-scaling-stroke"/><path stroke="#365532" d="m330 100-61.35-.12q-.57 0-.57.56l-.08 8.04" vector-effect="non-scaling-stroke"/><path stroke="#655b2f" d="m262.99 109.04-.01-8.49q0-.53-.53-.53l-9.85-.05m-5.77-4.92 15.67-.06q.49-.01.49-.49l.02-61.99q.01-.5-.5-.5l-60.94-.05a.55.54 0 0 0-.55.54L201 48.51" vector-effect="non-scaling-stroke"/><path stroke="#1f1f1e" d="M196 48.78V33.15a1.11 1.1-89.7 0 0-1.09-1.11l-20.12-.2" vector-effect="non-scaling-stroke"/><path stroke="#282828" d="m330 32.05-46.01-.04" vector-effect="non-scaling-stroke"/></g><path fill="#131113" d="M0 0h179.78q-.93 3.76-3.64 5.99-.32.26-.46.64l-1.63 4.26a.92.92 0 0 1-.72.58c-5.28.76-4.01 6.96-2.88 10.66a.92.9-82.8 0 0 .39.51q4.76 2.94 2.66 8.05-.22.55.33.77l.96.38-39.99.09a.9.9 0 0 0-.89.9l.06 61.44q0 1.06 1.05 1.06l60.43-.31q.6 0 .6-.6L196 48.78l5-.27v45.88a.62.62 0 0 0 .62.62l45.21.04 5.77 4.92-51.07.02a.53.53 0 0 0-.53.53v60.98q0 .5.5.5h60.99q.5 0 .5-.5v-52.46q1.19 2.64 4.02 3.81.61.25.67-.41l.32-3.96.02 52.96q0 .53.54.53l61.44.01v5.03h-61.49a.51.51 0 0 0-.51.51v61.96q0 .49.48.49l61.52-.01v5.06h-61.51q-.49 0-.49.49v61a.46.45-90 0 0 .45.46l61.55-.01V330H0v-33.07l61.51.05a.49.49 0 0 0 .49-.49v-60.98q0-.48-.49-.48L0 235.04v-5.06h61.51q.49 0 .49-.49v-62a.46.45 90 0 0-.45-.46L0 167.04v-5.07l60.91.02a1.34 1.34 0 0 0 1.34-1.34l-.13-59.82a.7.69.9 0 0-.68-.69Q30.8 99.33 0 100.09v-4.91h61.47a.82.81-.3 0 0 .82-.82l-.32-61.82q0-.51-.51-.51L0 32.05V0Z"/><path d="M179.78 0h110.33q-1.98 4.54-1.8 6c.64 5.35-.3 10.98-.31 16.17q0 .48-.26.9-1.16 1.9-2.75.68-.4-.3-.89-.21c-5.08 1-3.83 5.8.13 7.2a.53.52-65 0 1 .28.77q-.17.28-.52.5L268.35 32q-.68 0-.67.68l.1 61.59a1.03 1.03 0 0 0 1.03 1.03l61.19-.34V100l-61.35-.12q-.57 0-.57.56l-.08 8.04-.32 3.96q-.06.66-.67.41-2.83-1.17-4.02-3.81l-.01-8.49q0-.53-.53-.53l-9.85-.05-5.77-4.92 15.67-.06q.49-.01.49-.49l.02-61.99q.01-.5-.5-.5l-60.94-.05a.55.54 0 0 0-.55.54L201 48.51l-5 .27V33.15a1.11 1.1-89.7 0 0-1.09-1.11l-20.12-.2-.96-.38q-.55-.22-.33-.77 2.1-5.11-2.66-8.05a.92.9-82.8 0 1-.39-.51c-1.13-3.7-2.4-9.9 2.88-10.66a.92.92 0 0 0 .72-.58l1.63-4.26q.14-.38.46-.64 2.71-2.23 3.64-5.99Z"/><path fill="#131113" d="M290.11 0H330v32.05l-46.01-.04q.35-.22.52-.5a.53.52-65 0 0-.28-.77c-3.96-1.4-5.21-6.2-.13-7.2q.49-.09.89.21 1.59 1.22 2.75-.68.26-.42.26-.9c.01-5.19.95-10.82.31-16.17q-.18-1.46 1.8-6Z"/><path fill="#3d3e3c" d="m174.79 31.84 20.12.2a1.11 1.1-89.7 0 1 1.09 1.11v15.63l.05 45.64q0 .6-.6.6l-60.43.31q-1.05 0-1.05-1.06l-.06-61.44a.9.9 0 0 1 .89-.9l39.99-.09Z"/><path fill="#cab55d" d="m246.83 95.05-45.21-.04a.62.62 0 0 1-.62-.62V48.51l.02-16.01a.55.54 0 0 1 .55-.54l60.94.05q.51 0 .5.5l-.02 61.99q0 .48-.49.49l-15.67.06Z"/><path fill="#3d3e3c" d="m283.99 32.01 46.01.04v62.91l-61.19.34a1.03 1.03 0 0 1-1.03-1.03l-.1-61.59q-.01-.68.67-.68l15.64.01ZM0 95.18V32.05l61.46-.02q.51 0 .51.51l.32 61.82a.82.81-.3 0 1-.82.82H0Zm0 66.79v-61.88q30.8-.76 61.44.05a.7.69.9 0 1 .68.69l.13 59.82a1.34 1.34 0 0 1-1.34 1.34L0 161.97Z"/><path fill="#6caa64" d="M330 100v61.98l-61.44-.01q-.54 0-.54-.53l-.02-52.96.08-8.04q0-.56.57-.56L330 100Z"/><path fill="#cab55d" d="m252.6 99.97 9.85.05q.53 0 .53.53l.01 8.49v52.46q0 .5-.5.5H201.5q-.5 0-.5-.5v-60.98a.53.53 0 0 1 .53-.53l51.07-.02ZM0 229.98v-62.94l61.55-.01a.46.45 90 0 1 .45.46v62q0 .49-.49.49H0Z"/><path fill="#6caa64" d="M330 167.01v62.95l-61.52.01q-.48 0-.48-.49v-61.96a.51.51 0 0 1 .51-.51H330ZM0 296.93v-61.89l61.51-.01q.49 0 .49.48v60.98a.49.49 0 0 1-.49.49L0 296.93Zm330-61.91v61.94l-61.55.01a.46.45 90 0 1-.45-.46v-61q0-.49.49-.49H330Z"/><path fill="#3d3e3c" d="M129.23 93.83a1.27 1.27 0 0 1-1.27 1.27H68.18a1.27 1.27 0 0 1-1.27-1.27V33.25a1.27 1.27 0 0 1 1.27-1.27h59.78a1.27 1.27 0 0 1 1.27 1.27v60.58Z"/><path fill="#fbfefa" d="M26.5 60.56v13.13a.31.31 0 0 1-.31.31h-4.13a.31.31 0 0 1-.31-.31V51.31a.31.31 0 0 1 .31-.31h4.46a.31.31 0 0 1 .26.15l8.27 13.68a.31.31 0 0 0 .58-.16l.12-13.36a.31.31 0 0 1 .31-.31h3.65a.31.31 0 0 1 .31.31l-.01 22.39a.31.31 0 0 1-.31.31l-4.33-.02a.31.31 0 0 1-.27-.15L27.08 60.4a.31.31 0 0 0-.58.16ZM162.8 70h10.62a.58.58 0 0 1 .58.58v2.84a.58.58 0 0 1-.58.58h-15.09a.58.58 0 0 1-.58-.58V51.58a.58.58 0 0 1 .58-.58h3.41a.58.58 0 0 1 .58.58l-.1 17.84a.58.58 0 0 0 .58.58Zm78.7-3.82a.66.66 0 0 1 .26.7c-1.39 5.25-5.63 7.61-10.9 7.1-12.89-1.26-12.45-22.94 1.64-22.89q6.59.02 9.26 6.2a.57.56 70.7 0 1-.37.77l-3.58.94q-.6.16-.82-.41-1.29-3.35-4.39-3.55c-8.13-.51-7.97 15.35-.16 14.88q3.48-.21 4.62-4.09.19-.63.85-.68 1.95-.13 3.59 1.03Zm59.97 7.524a.29.29 0 0 1-.29.29l-4.2-.008a.29.29 0 0 1-.29-.29l.04-22.4a.29.29 0 0 1 .29-.29l4.2.008a.29.29 0 0 1 .29.29l-.04 22.4Z"/><path fill="#cab55d" d="M129 161.33a.68.68 0 0 1-.68.68H67.68a.68.68 0 0 1-.68-.68v-60.68a.68.68 0 0 1 .68-.68h60.64a.68.68 0 0 1 .68.68v60.68Zm66.947.274a.45.45 0 0 1-.451.45l-61.1-.107a.45.45 0 0 1-.45-.451l.107-61.14a.45.45 0 0 1 .451-.45l61.1.107a.45.45 0 0 1 .45.451l-.107 61.14Z"/><path fill="#fbfefa" d="M29.36 123h-5.97a.39.39 0 0 1-.39-.39v-3.22a.39.39 0 0 1 .39-.39h17.47a.39.39 0 0 1 .39.39v3.22a.39.39 0 0 1-.39.39h-6.01a.39.39 0 0 0-.39.39l-.22 18.22a.39.39 0 0 1-.39.39h-3.71a.39.39 0 0 1-.39-.39v-18.22a.39.39 0 0 0-.39-.39Zm193.18-3.45a.61.61 0 0 1 .61-.61l9.42.03a10.03 9.71-89.8 0 1 9.68 10.06l-.02 3.06a10.03 9.71-89.8 0 1-9.74 10l-9.42-.03a.61.61 0 0 1-.61-.61l.08-21.9Zm71.99 14.88c.02 4.15 9.04 5.89 9-1.89q-.03-6.56.24-13.03.02-.51.54-.51h3.25q.61 0 .63.6.26 7.73-.17 15.4c-.57 10.05-18.12 9.76-18.26-.93q-.09-7.17.03-14.33.01-.58.59-.61l3.49-.18q.63-.03.63.6-.02 7.48.03 14.88Z"/><path fill="#6caa64" d="M129.036 229.594a.46.46 0 0 1-.461.46l-61.16-.107a.46.46 0 0 1-.46-.461l.11-62.08a.46.46 0 0 1 .46-.46l61.16.107a.46.46 0 0 1 .46.461l-.11 62.08Z"/><path fill="#cab55d" d="M196 229.74a.26.26 0 0 1-.26.26h-61.48a.26.26 0 0 1-.26-.26v-62.48a.26.26 0 0 1 .26-.26h61.48a.26.26 0 0 1 .26.26v62.48Z"/><path fill="#3d3e3c" d="M263.25 229.47a.55.55 0 0 1-.55.55h-61.14a.55.55 0 0 1-.55-.55v-61.92a.55.55 0 0 1 .55-.55h61.14a.55.55 0 0 1 .55.55v61.92Z"/><path fill="#fbfefa" d="M20.68 196.08c1.23-10.85 16-14.66 19.95-3.79q.25.68-.45.85l-3.57.89a.67.66 72.6 0 1-.79-.42c-2.03-5.48-8.4-4.37-9.89.81-2.38 8.21 6.92 16.02 10.28 6.23q.25-.74 1.02-.54l3.18.85q.54.14.4.68c-3.39 12.82-21.71 8.3-20.13-5.56Zm274.42 6.86c1.66 2.94 5.92 2.28 8.07.27a1.12 1.09-21.4 0 0 .35-.78l.33-15.86q.01-.57.58-.57h3.07a.73.72 89.2 0 1 .72.71q.09 4.35.02 8.67c-.12 7.54.77 12.57-7.7 13.61-5.13.62-10.08-1.09-10.49-6.74q-.58-7.95-.21-15.81.02-.44.45-.44h3.7q.5 0 .5.51c.01 3.43-.83 13.88.61 16.43Z"/><path fill="#6caa64" d="M129 296.74a.26.26 0 0 1-.26.26H67.26a.26.26 0 0 1-.26-.26v-61.48a.26.26 0 0 1 .26-.26h61.48a.26.26 0 0 1 .26.26v61.48Zm67-.33a.59.59 0 0 1-.59.59h-60.82a.59.59 0 0 1-.59-.59v-60.82a.59.59 0 0 1 .59-.59h60.82a.59.59 0 0 1 .59.59v60.82Zm67 .05a.54.54 0 0 1-.54.54h-60.92a.54.54 0 0 1-.54-.54v-60.92a.54.54 0 0 1 .54-.54h60.92a.54.54 0 0 1 .54.54v60.92Z"/><path fill="#fbfefa" d="M21.78 254.47a.54.54 0 0 1 .54-.54l9.54.03a10.06 9.64-89.8 0 1 9.61 10.09l-.02 3a10.06 9.64-89.8 0 1-9.67 10.03l-9.54-.03a.54.54 0 0 1-.54-.54l.08-22.04Zm273.32 16.47c1.63 2.89 5.83 2.33 7.97.36a1.18 1.16-21.7 0 0 .38-.86l.18-15.86a.6.6 0 0 1 .62-.6l3.38.1q.58.02.59.6c.08 4.78-.1 9.57-.01 14.32.21 10.8-17.49 11-18.18 1.08q-.55-7.81-.19-15.65.02-.43.45-.43h3.7q.5 0 .5.51c.01 3.43-.83 13.88.61 16.43ZM94.95 60l10.61.01a.53.53 0 0 1 .53.56l-.14 2.93a.53.53 0 0 1-.53.5H94.99a.53.53 0 0 0-.53.51l-.17 4.94a.53.53 0 0 0 .53.55h12.16a.53.53 0 0 1 .53.53l-.03 2.94a.53.53 0 0 1-.53.53h-16.8a.53.53 0 0 1-.53-.53l-.08-21.94a.53.53 0 0 1 .53-.53h16.15a.53.53 0 0 1 .53.53v2.94a.53.53 0 0 1-.53.53H94.9a.53.53 0 0 0-.53.54l.05 3.94a.53.53 0 0 0 .53.52Zm12.56 74.18q.36.26.25.69c-2.62 10.24-16.7 9.23-19.69-.41-4.4-14.17 15.2-21.93 19.54-9.2a.66.65 71.8 0 1-.42.84l-3.09.94q-.74.22-1.07-.48-2.03-4.25-5.73-3.38c-4.69 1.11-5.18 6.02-4.3 10.07 1.27 5.84 8.22 6.67 10.09.7q.16-.5.66-.68 1.72-.59 3.76.91Zm61.63 2.82h-8.89a.48.48 0 0 0-.46.34l-1.35 4.32a.48.48 0 0 1-.46.34h-3.99a.48.48 0 0 1-.45-.65l8.27-22.04a.48.48 0 0 1 .45-.31h5.43a.48.48 0 0 1 .46.31l8.09 22.04a.48.48 0 0 1-.45.65h-4.37a.48.48 0 0 1-.46-.34l-1.36-4.32a.48.48 0 0 0-.46-.34Z"/><path fill="#cab55d" d="M227.26 123.86a.79.79 0 0 1 .79-.79l3.48.01a6.01 5.69-89.9 0 1 5.68 6.02v2.98a6.01 5.69-89.9 0 1-5.7 6l-3.48-.01a.79.79 0 0 1-.79-.79l.02-13.42Z"/><path fill="#fbfefa" d="M102.29 204h-8.91a.48.48 0 0 0-.46.34l-1.3 4.3a.48.48 0 0 1-.45.34l-4.08.03a.48.48 0 0 1-.46-.65l8.25-21.97a.48.48 0 0 1 .44-.32l5.54-.1a.48.48 0 0 1 .46.31l8.1 22.07a.48.48 0 0 1-.45.65h-4.44a.48.48 0 0 1-.45-.34l-1.34-4.32a.48.48 0 0 0-.45-.34Zm53.17-17.48a.55.55 0 0 1 .55-.55l9.52-.03a9.92 9.65 89.8 0 1 9.68 9.89l.02 3.26a9.92 9.65 89.8 0 1-9.62 9.95l-9.52.03a.55.55 0 0 1-.55-.55l-.08-22ZM229.49 205h11.39q.62 0 .62.63v2.74q0 .63-.63.63h-17.62q-.48 0-.57-.48-.52-2.77.25-3.83 5.2-7.11 10.67-13.97a.44.44 0 0 0-.34-.72h-8.64q-.62 0-.62-.63v-2.62q0-.75.75-.75h14.86a1.84 1.83 18.7 0 1 1.46 2.95l-11.88 15.45q-.46.6.3.6Zm-127.24 67h-8.84a.53.53 0 0 0-.5.38l-1.28 4.23a.53.53 0 0 1-.5.37l-3.96.03a.53.53 0 0 1-.5-.72l8.2-21.91a.53.53 0 0 1 .49-.34l5.48-.06a.53.53 0 0 1 .5.35l8.03 21.96a.53.53 0 0 1-.5.71h-4.3a.53.53 0 0 1-.51-.37l-1.3-4.26a.53.53 0 0 0-.51-.37ZM162 254.48c4.84-1.68 11.3.28 12.75 5.94a.68.68 0 0 1-.5.82l-3.21.81a.82.81-16.9 0 1-.97-.51c-1.81-4.96-8.16-4.15-9.65.13-3 8.56 6.24 17.1 10.02 6.78a.69.68 17.1 0 1 .81-.42l3.31.85q.57.15.43.72-1.44 6.04-7.14 7.24c-14.48 3.06-17.79-18.21-5.85-22.36Zm74.68 12.3q3.87 4.36 6.55 9.54.35.68-.42.68h-4.51q-.58 0-.9-.49c-1.98-3.08-5.06-9.53-9.12-9.55a.81.8 90 0 0-.81.82l.09 8.65a.56.56 0 0 1-.56.57h-3.75q-.5 0-.5-.5v-21.79q0-.68.68-.69 4.52-.07 11.55.02c7.98.1 9.4 9.91 1.82 12.31q-.39.12-.12.43Z"/><path fill="#6caa64" d="M26.52 258.74a.68.68 0 0 1 .68-.68h3.31a5.73 5.52 0 0 1 5.73 5.52v3.94a5.73 5.52 0 0 1-5.73 5.52H27.2a.68.68 0 0 1-.68-.68v-13.62Z"/><path fill="#cab55d" d="m167.52 132.79-5.65.28a.31.31 0 0 1-.31-.41l2.87-8.29a.31.31 0 0 1 .58 0l2.78 8.01a.31.31 0 0 1-.27.41Zm-7.27 57.84a.53.53 0 0 1 .52-.54l3.67-.06a6.02 5.66 89.1 0 1 5.76 5.93l.04 2.98a6.02 5.66 89.1 0 1-5.56 6.11l-3.67.06a.53.53 0 0 1-.54-.52l-.22-13.96Z"/><path fill="#6caa64" d="m98.1 191.5 3.05 8.08a.31.31 0 0 1-.29.42h-5.83a.31.31 0 0 1-.29-.41l2.78-8.09a.31.31 0 0 1 .58 0Zm129.4 67.27a.78.78 0 0 1 .78-.79l3.93-.01a4.53 2.3-.2 0 1 4.54 2.28v.44a4.53 2.3-.2 0 1-4.52 2.32l-3.93.01a.78.78 0 0 1-.78-.77l-.02-3.48Zm-129.69.06a.03.03 0 0 1 .06 0l3.21 8.6q.21.57-.4.57H95.3a.5.5 0 0 1-.47-.67l2.98-8.5Z"/></svg>