<svg version="1.2" width="12" height="12" xmlns="http://www.w3.org/2000/svg"><path style="color:#000;fill:#666;-inkscape-stroke:none" d="M7.8 0c.122.768.257 1.546.356 2.818.013.17-.152.27-.293.182-.825-.514-1.822-1.31-2.883-1.318-1.454-.014-2.569.843-3.205 1.992-.636 1.149-.812 2.595-.414 3.814.314.958.93 1.84 1.735 2.4.804.56 1.81.791 2.853.423.72-.255 1.354-.908 2.15-1.172.067 1.143-.12 2.12-.244 2.861h1.758c.4-2.596.14-3.439-.197-4-.27-.451-.735-.714-1.36-.645-.624.07-1.41.436-2.431 1.186a1.184 1.184 0 0 1-.986.203 1.72 1.72 0 0 1-.92-.58c-.658-.782-.954-1.533-.912-2.262.042-.73.423-1.455 1.17-2.187.228-.224.46-.31.709-.32.249-.01.52.062.796.183.553.242 1.111.67 1.592.9.698.337 1.25.41 1.682.252.431-.157.706-.54.861-1.025.31-.965.207-2.276-.035-3.705Z"/></svg>