<?xml version="1.0" encoding="UTF-8" standalone="no"?>
<svg
   xml:space="preserve"
   id="icons"
   width="15.5"
   height="15.5"
   version="1.1"
   viewBox="0 0 17.104496 17.104496"
   sodipodi:docname="cnano2.svg"
   inkscape:version="1.3 (0e150ed6c4, 2023-07-21)"
   xmlns:inkscape="http://www.inkscape.org/namespaces/inkscape"
   xmlns:sodipodi="http://sodipodi.sourceforge.net/DTD/sodipodi-0.dtd"
   xmlns="http://www.w3.org/2000/svg"
   xmlns:svg="http://www.w3.org/2000/svg"><sodipodi:namedview
     id="namedview1"
     pagecolor="#ffffff"
     bordercolor="#000000"
     borderopacity="0.25"
     inkscape:showpageshadow="2"
     inkscape:pageopacity="0.0"
     inkscape:pagecheckerboard="0"
     inkscape:deskcolor="#d1d1d1"
     inkscape:zoom="8.7350649"
     inkscape:cx="20.091436"
     inkscape:cy="25.071365"
     inkscape:window-width="1920"
     inkscape:window-height="1003"
     inkscape:window-x="0"
     inkscape:window-y="0"
     inkscape:window-maximized="1"
     inkscape:current-layer="icons" /><defs
     id="defs6"><linearGradient
       id="linear-gradient"
       x1="32"
       x2="32"
       y1="62"
       y2="2"
       gradientUnits="userSpaceOnUse"><stop
         id="stop1"
         offset="0"
         stop-color="#3871e9" /><stop
         id="stop2"
         offset="1"
         stop-color="#61c5f6" /></linearGradient><linearGradient
       id="linear-gradient-2"
       x1="32"
       x2="32"
       y1="62"
       y2="2"
       gradientUnits="userSpaceOnUse"><stop
         id="stop3"
         offset="0" /><stop
         id="stop4"
         offset=".36"
         stop-opacity="0" /></linearGradient><linearGradient
       id="linear-gradient-3"
       x1="32"
       x2="32"
       y1="48"
       y2="16"
       gradientTransform="translate(-13.971,-13.972)"
       gradientUnits="userSpaceOnUse"><stop
         id="stop5"
         offset="0"
         stop-color="#e2eff6"
         style="stop-color:#fff;stop-opacity:1" /><stop
         id="stop6"
         offset="1"
         stop-color="#fff" /></linearGradient><style
       id="style1">.cls-1{opacity:.08}.cls-2{fill:url(#linear-gradient)}.cls-3{opacity:.16}.cls-4{fill:url(#linear-gradient-2)}.str1{stroke:#e00047;stroke-width:442.127;stroke-linecap:round}</style></defs><g
     id="g1"
     style="clip-rule:evenodd;fill:#00ff60;fill-opacity:1;fill-rule:evenodd;stroke:#000000;stroke-width:5.56622;stroke-dasharray:none;stroke-opacity:1;image-rendering:optimizeQuality;shape-rendering:geometricPrecision;text-rendering:geometricPrecision"
     transform="matrix(0.11895,0,0,0.11895,-373.26565,-409.21877)"><g
       id="Layer_x0020_1"
       style="fill:#00ff60;fill-opacity:1;stroke:#000000;stroke-width:5.56622;stroke-dasharray:none;stroke-opacity:1"><path
         id="path1"
         d="m 3264.483,3508.403 c 5.338,0 8.372,2.03 13.938,2.875 v -43.436 h -43.299 c 0.913,-5.634 2.943,-8.668 2.943,-14.098 0,-5.908 -7.117,-10.699 -15.832,-10.699 -8.806,0 -15.855,4.79 -15.855,10.7 0,5.086 2.19,8.166 3.103,14.097 h -43.093 v 42.455 c -5.772,-0.912 -8.806,-3.034 -14.304,-3.034 -5.909,0 -10.7,7.118 -10.7,15.855 0,8.737 4.791,15.832 10.7,15.832 5.156,0 8.327,-2.236 14.304,-3.171 v 45.489 h 43.8 c -0.912,-5.909 -3.102,-9.012 -3.102,-14.076 0,-5.909 7.117,-10.7 15.854,-10.7 8.715,0 15.832,4.791 15.832,10.7 0,5.43 -2.098,8.44 -3.034,14.076 h 42.615 v -44.28 c -5.772,0.912 -8.875,3.034 -13.939,3.034 -5.84,0 -10.63,-7.05 -10.7,-15.786 0,-8.806 4.769,-15.833 10.7,-15.9 z"
         style="fill:#00ff60;fill-opacity:1;stroke:#000000;stroke-width:5.56622;stroke-dasharray:none;stroke-opacity:1" /></g></g></svg>
